<?xml version="1.0" encoding="UTF-8"?><svg id="full_logo" xmlns="http://www.w3.org/2000/svg" viewBox="0 0 144 64"><path d="M30.36,28.68c-.33-.04-.52-.06-.7.08.26.27.42.04.7-.08Z"/><path d="M28.75,30.19c-.04.44-.09.88-.14,1.32-.29,2.33-.73,4.65-.55,7.02,0,.99.01,1.97,0,2.96,0,.36.12.41.42.32.63-.2,1.26-.41,1.91-.56.42-.1.46-.27.38-.66-.71-3.43-1.21-6.88-1.61-10.36-.01-.12.08-.32-.15-.32-.16,0-.23.13-.24.29Z"/><path d="M27.64,29.69c.26-.12.48-.06.54-.37-.21.04-.38.06-.54.37Z"/><path d="M28.91,29.28c.09-.02.13-.08.12-.17-.03-.05.01-.17-.12-.14-.09.02-.13.09-.13.17,0,.07,0,.16.13.14Z"/><path d="M48.74,40.74c.17-.17-3.28-2.3-4.75-3.44-6.35-3.57,3.35-4.17,6.04-4.43.6-.3,8.37-.16,7.23-.87-.19-.09-.41,0-.6-.09-3.74-.28-7.48-.71-11.22-1.32-8.52-.65,3.54-6.86,3.41-7.06-.42-.29-10.25,4.05-8.31.31,3.71-5.74,8.22-10.88,12.66-16.06,1.83-2.57,4.66-5.02,5.84-7.79-1.59.95-14.98,16.61-21.69,20.99-2.33.41.28-7.26.53-9.05-.93,1.24-4.16,9.52-5.31,6.75-.97-2.38-.82-4.99-1.1-7.49-.31-3.28-.55-6.57-.85-9.83-.63,2.99-1.08,10.87-1.41,14.07-.09.84-.16,1.68-.4,2.49-.11.36-.26.85-.61,1.05-.61.36-1.22-.47-1.52-.89-.58-.81-2.64-4.45-3.67-6.34.62,1.78,1.16,3.6,1.52,5.45.16.81.29,1.63.3,2.46,0,.52-.02,1.19-.39,1.61-.61.32-1.2-.35-1.7-.64-4.62-3.73-8.46-8.3-12.75-12.38C-.02-2.61-1.41-2.72,9.03,8.66c4.26,4.9,8.55,9.88,11.65,15.6.53,3.44-9.18-.61-9.18-.61,0,0,10.41,5.14,7.13,6.38-4.9,1.25-10,1.06-14.91,2.12,2.26,1.01,16.23.12,15.5,3.41-1.64,2.57-5.2,3.29-7.18,5.07,2.51-.14,12.68-5.13,7.88,1.42-5.9,7.4-12.07,14.58-18.02,21.95,4.47-3.28,17.11-17.38,20.08-19.94,5.31-4.73,1.26,6.43,1.16,8.91,1.28-1.27,4.86-12.98,5.71-5.85.49,4.14,1.58,13.47,1.96,15.54.58-1.8-.11-19.8,2.62-17.57,1.69,2.36,2.99,5.4,4.67,7.57-.07-.06-1.51-7.23-1.55-8.26-.01-.3-.05-.78.19-1.02.24-.24.64,0,.87.14.54.33,1,.77,1.47,1.18,6.78,5.83,13.05,12.56,19.35,18.94-4.52-6.97-11.66-13.29-16.36-20.55-5.66-7.58,3.08-3.86,6.65-2.35ZM36.04,24.39c-1.98.38-3.95.75-5.93,1.13-.46.09-.63-.13-.6-.57.04-.64.43-1.07,1.08-1.15.67-.09,1.34-.27,2.21-.17-.89.6-2,.27-2.7,1.18.64.02,1.13-.15,1.64-.24,1.19-.21,2.37-.45,3.56-.65.35-.06.4-.17.35-.54-.09-.68-.42-.8-1.04-.77-1.94.1-3.85.25-5.69.95-.37.14-.44.25-.3.63.41,1.12.39,2.33.7,3.48.1.35.19.48.6.43.74-.1,1.49-.1,2.23-.14.21-.01.43-.01.49.24.07.31-.19.36-.39.44-.69.27-1.38.56-2.08.8-.37.13-.47.34-.42.72.27,2.15.53,4.31.91,6.45.24,1.39.42,2.78.76,4.15.13.51,0,.84-.57.98-.88.22-1.74.49-2.61.75-.53.16-.78-.08-.79-.58-.03-2.89-.21-5.79.3-8.67.16-.87.21-1.76.33-2.63.05-.36-.05-.42-.38-.31-.74.25-1.49.48-2.24.72-.23.07-.49.2-.64-.08-.15-.27.09-.44.28-.6.54-.46,1.09-.9,1.76-1.15.66-.25,1.29-.55,1.84-1.01.13-.11.09-.2.06-.31-.37-1.33-.34-2.76-.9-4.05-.13-.3-.03-.51.32-.64,2.34-.93,4.79-1.18,7.29-1.17.35,0,.56.11.62.5.07.43.2.86.32,1.28.1.35,0,.54-.36.61Z"/><path d="M92.38,19.16c.46.28-2.66.23-2.9.35-1.08.1-4.97.35-2.42,1.78.59.46,1.97,1.31,1.91,1.38-1.44-.61-4.94-2.1-2.67.94,1.89,2.91,4.75,5.45,6.56,8.24-2.53-2.56-5.04-5.26-7.76-7.6-.19-.16-.38-.34-.59-.47-.09-.06-.25-.15-.35-.05s-.08.29-.08.41c.02.41.59,3.29.62,3.32-.68-.87-1.2-2.09-1.88-3.04-1.1-.9-.82,6.33-1.05,7.05-.15-.83-.59-4.57-.79-6.23-.34-2.86-1.77,1.84-2.29,2.35.04-1,1.67-5.47-.47-3.58-1.19,1.03-6.26,6.68-8.06,8,2.39-2.96,4.86-5.84,7.23-8.81,1.93-2.63-2.15-.63-3.16-.57.79-.71,2.22-1,2.88-2.03.29-1.32-5.31-.96-6.22-1.37,1.97-.43,4.02-.35,5.98-.85,1.32-.49-2.86-2.56-2.86-2.56,0,0,3.9,1.63,3.68.24-1.25-2.3-2.97-4.3-4.68-6.26-4.19-4.57-3.63-4.52.38-.16,1.72,1.64,3.26,3.47,5.12,4.97.2.12.44.38.68.26.15-.17.16-.43.16-.64,0-.33-.05-.66-.12-.99-.15-.74-.36-1.47-.61-2.19.41.76,1.24,2.22,1.47,2.54.12.17.37.5.61.36.14-.08.2-.28.24-.42.1-.32.12-.66.16-1,.13-1.29.31-4.45.57-5.65.12,1.31.22,2.63.34,3.94.11,1,.05,2.05.44,3,.46,1.11,1.76-2.21,2.13-2.71-.1.72-1.14,3.8-.21,3.63,2.69-1.76,8.06-8.04,8.7-8.42-.47,1.11-1.61,2.09-2.34,3.13-1.78,2.08-3.59,4.14-5.08,6.44-.78,1.5,3.16-.24,3.33-.12.05.08-4.78,2.57-1.37,2.83,1.5.24,3,.42,4.5.53.08.04.16,0,.24.04Z"/><path d="M130.42,21.57c2.11-.3,4.28-.24,6.36.28,1.68.26,3.22,1.17,4.13,2.59.52.86.73,1.75.75,2.73.02,3.88,0,7.77,0,11.64,0,.79.13,1.56.28,2.33.08.38.06.82-.32,1.03-.26.16-.59.2-.89.2-.84,0-1.68,0-2.52,0-.42-.01-.88,0-1.24-.23-.3-.19-.48-.6-.76-.84-.34-.34-.78-.12-1.13.09-1.02.62-2.11.97-3.24,1.25-3.1.7-7.3.19-8.8-2.99-.99-2.21-.86-5.27.98-7,1.66-1.5,4.07-1.85,6.22-2.15.8-.1,1.57-.18,2.37-.3,1.24-.18,2.92-.5,3.32-1.86.68-3.18-3.39-3.77-5.58-2.8-.77.36-1.35,1.04-1.59,1.86-.08.23-.21.44-.41.56-.98.42-2.15.14-3.18.22-.54,0-1.14.07-1.63-.18-.81-.6.14-2.3.51-3.01,1.26-2.19,3.94-3.18,6.33-3.44h.04Z"/><path d="M61.27,41.28c-.12-.62-.27-1.23-.28-1.86-.07-.15-.03-.31-.03-.46,0-3.87,0-7.74,0-11.6,0-.16.02-.31-.03-.47-.05-.33-.07-.67-.15-1-.44-1.84-1.68-2.95-3.38-3.63-.89-.35-1.82-.51-2.75-.7-.18-.07-.38.01-.56-.06-.1,0-.2-.01-.3-.02-.44-.08-.89.03-1.33-.07-.34.03-.69.05-1.03,0-.35.09-.72-.02-1.07.06-.21.08-.43.12-.66.11-.2.09-.43-.02-.63.07-.47.13-.95.24-1.42.38-1.56.45-2.95,1.14-3.92,2.44,1.03-.27,2.13-.62,2.98-.9,1.17-.38,1.75-.56,2.05-.56.13,0,.24.03.33.09.05.03.09.07.12.12.07.1.09.23.07.35-.05.24-.13.29-1.11.9-2.55,1.59-4.2,2.83-4.92,3.72.21.07.43-.02.64.06.03-.04.05-.04.08,0,.16-.06.34-.03.5-.04.9-.02,1.81.04,2.71-.03.45-.07.71-.34.86-.76.46-1.27,1.31-2.06,2.71-2.17.15-.07.31,0,.46-.06.13,0,.26-.01.38-.02.26-.06.51-.06.77,0,.52.04,1.02.16,1.5.35.81.31,1.56,1.45,1.49,2.26-.06.76-.4,1.36-1.05,1.77-.75.47-1.62.5-2.44.69-.21.08-.43,0-.64.06-.19.04-.38.14-.58.11-.29.1-.59-.02-.88.07-.24.1-.49.11-.75.11,0,0-.02,0-.03,0,2.52.34,5.09.61,7.69.8.06,0,.11.02.16.04,0,0,0,0,0,0,0,0,.14,0,.14,0,.13,0,.29.01.45.09.02,0,.03.02.05.02.39.24.34.56.31.65-.14.55-.83.67-4.87.83-1.1.04-2.48.1-2.72.18-.05.03-.08.03-.14.04l-.59.05c-4.58.41-6.98,1.01-7.15,1.78-.06.3.4.91,1.88,1.75.02.01.04.02.05.04.6.46,1.53,1.09,2.43,1.7,2.33,1.58,2.48,1.71,2.51,2.04.01.13-.04.29-.13.38-.09.09-.2.13-.32.13-.06,0-.12-.01-.18-.04l-.07-.03c-1.65-.69-4.58-1.93-6.42-2.15.32,1.03.86,1.94,1.78,2.62,1.22.91,2.64,1.24,4.11,1.39.54.06,1.08.05,1.63,0,.22-.03.43-.15.66-.11.17-.08.37.01.54-.07,1.32-.32,2.62-.7,3.78-1.46.54-.36.84-.24,1.2.31.2.3.36.64.77.72.18.08.38-.01.56.07,1.04,0,2.08-.01,3.12-.01.43,0,.8-.13,1.05-.5.04-.2.04-.4,0-.6Z"/><path d="M74.88,38.2c-.25-.01-.51-.02-.76-.03-.2-.07-.42.03-.62-.07-1.07-.07-1.61-.72-1.62-1.94-.06-.15-.03-.31-.03-.46,0-1.55,0-3.1,0-4.65-.55.53-1.04.96-1.4,1.23-.08.06-.17.09-.26.09-.12,0-.24-.05-.32-.14-.15-.16-.17-.41-.02-.59.66-.82,1.34-1.65,2.02-2.46,0-.58,0-1.16,0-1.75,0-.15.03-.31-.03-.46-.06-.72.35-1.43,1.15-1.3.15-.06.31-.03.46-.03.45-.01.91.01,1.36,0,.4-.48.79-.97,1.19-1.45,0-.27-.02-.54-.03-.81,0-.13-.01-.27-.02-.4-.08-.12,0-.27-.05-.39-.07.02-.14.04-.21.07-.57.18-1.06.33-1.38.35,0,0-.02,0-.02,0-.18,0-.34-.11-.41-.28-.07-.18-.03-.38.11-.5.1-.09.22-.18.33-.26-.41,0-.83.03-1.24-.04-.75,0-1.06-.2-1.16-.76-.1-.37.02-.76-.07-1.13-.02-.09-.03-.19-.03-.28-.5-.04-.85-.1-1.07-.2-.18-.08-.28-.26-.26-.45.02-.19.16-.35.35-.39.34-.07.69-.13,1.03-.18,0-.61,0-1.23-.02-1.84-.1-.35-.24-.68-.64-.76-.29-.06-.59-.08-.89-.09-.98-.01-1.96,0-2.95,0-.13.1-.29,0-.43.07-.29.12-.57.25-.61.61-.07.55-.01,1.1-.03,1.65-.02.78.05,1.55-.04,2.33-.04.86-.14,1.3-.82,1.42-.27.09-.55-.01-.82.06-.16,0-.31.02-.47.02-.94-.01-1.12.13-1.26,1.03-.05.57-.05,1.14,0,1.71.06.68.23.84.96.96.29.04.57.05.86,0,.83-.04,1.34.19,1.55.92.07.1.04.22.04.33,0,3.33,0,6.67,0,10,0,.11.01.23-.04.34,0,.17,0,.34,0,.51.09.24-.01.49.07.73,0,.03,0,.05.01.08.11.19-.01.41.07.6.28.86.63,1.66,1.4,2.22.87.64,1.85.95,2.9,1.04.24.08.49-.02.73.07.04,0,.09.01.13.02.71.05,1.43.06,2.14,0,.14-.06.29-.02.43,0,.14.04.29.05.43,0,.05-.03.09-.08.14-.09,1.01-.17,1.17-.35,1.25-1.38.04-.71.05-1.43,0-2.14-.12-.57-.54-.74-1.05-.76Z"/><path d="M120.33,40.63s-.03-.02-.03-.02c0-.02.02-.04.02-.06-.07-.17-.03-.34-.04-.51,0-3.97,0-7.95,0-11.92,0-.16.03-.31-.03-.47,0-.07-.01-.14-.02-.21-.08-.18,0-.38-.07-.56-.2-.48-.22-1-.43-1.47-.78-1.72-1.93-3.01-3.83-3.53-.55-.15-1.11-.25-1.66-.4-.18-.08-.38,0-.56-.07-.4,0-.8,0-1.2,0-.21.08-.43,0-.64.06-.05,0-.11.01-.16.02-.14.09-.31-.01-.44.08-1.51.44-2.86,1.13-3.91,2.33-.1.12-.23.19-.37.25-.15.08-.3.06-.45,0-.3-.1-.49-.34-.66-.58-.46-.62-1.06-1.05-1.73-1.4-.7-.37-1.47-.52-2.23-.7-.3-.08-.6.03-.9-.07-.14.05-.28.05-.43,0-.27.09-.55-.02-.82.06-.41.12-.85.08-1.25.21-1.2.4-2.32.96-3.21,1.89-.18.18-.4.29-.64.21-.21-.07-.28-.28-.32-.51-.11-.54-.16-1.13-.85-1.29-1.23-.05-2.46-.05-3.69,0-.2.06-.41.12-.55.25.1.11.14.19.15.3.01.13-.04.27-.13.37-.06.06-.14.1-.23.11,0,.02,0,.04-.02.06,0,.07.02.14.02.21,0,1.04,0,2.07,0,3.11.31.36.62.71.92,1.06,1.15,1.31,2.34,2.67,3.25,4.08.12.19.08.45-.09.59-.08.07-.18.1-.28.1-.12,0-.23-.04-.32-.13-.54-.54-1.07-1.1-1.61-1.65-.62-.63-1.24-1.27-1.87-1.9,0,3.83,0,7.66,0,11.49,0,.37,0,.74-.01,1.11.09.21-.02.44.08.65.15.43.44.63.91.58.27-.02.54.02.81.03.69.04,1.37.04,2.06,0,1.44-.07,1.73-.04,1.72-1.83-.02-2.97,0-5.93.02-8.9.08-.55-.03-1.11.06-1.66,0-.08.01-.15.02-.23.07-.15,0-.31.06-.46-.01-.4.12-.78.27-1.14.55-1.27,1.49-2.06,2.88-2.27.44-.05.89-.06,1.33,0,.05.03.09.06.14.07.76.19,1.43.52,1.86,1.2.24.39.37.83.48,1.26.07.15,0,.31.06.46.02.15.07.31.02.47.07.17.04.34.04.51,0,3.52,0,7.04,0,10.55,0,.16-.02.31.03.47.02.21.05.42.05.63-.02.51.29.81.8.8.3,0,.59.02.89.04.74.04,1.49.04,2.23,0,.57-.06,1.19,0,1.53-.62.11-.14.06-.3.06-.45,0-2.86,0-5.73,0-8.59,0-.17-.03-.34.04-.51-.06-.44,0-.89.02-1.33.08-.3-.03-.61.06-.9l.02-.3c.07-.18-.01-.38.07-.56.12-1.42.98-2.89,2.63-3.22.18-.07.37,0,.55-.06.04,0,.08-.02.13-.02.25-.05.51-.06.76,0h.03s.02.01.02.01c.17.09.36-.02.53.08.92.35,1.66.86,2,1.86.31.9.42,1.81.39,2.75.07.15.04.31.04.46,0,3.38,0,6.76,0,10.14,0,.16-.03.31.03.47.07.35.2.65.61.69.14.08.31,0,.46.07.19,0,.38.02.57.02.71.04,1.43.04,2.14,0,.13,0,.25-.01.38-.02.9-.04,1.11-.13,1.34-.94.09-.27-.02-.55.07-.82Z"/><path d="M84.4,27.7s-.04-.03-.05-.05c-.38-.49-.71-1.07-1.03-1.64-.2-.36-.41-.73-.63-1.07-.24.87-.31,3.21-.34,4.42-.04,1.28-.06,1.9-.15,2.17-.06.19-.23.31-.42.31,0,0-.02,0-.03,0-.2-.01-.37-.16-.41-.36-.15-.79-.52-3.97-.75-5.87l-.05-.39c-.01-.11-.03-.21-.04-.28-.24.39-.56,1.09-.75,1.52-.34.75-.54,1.18-.74,1.38-.04.04-.09.08-.15.1,0,4.24,0,8.49,0,12.73,0,.14-.01.28-.02.42.09.21-.02.43.07.64.11.34.27.62.69.62.32.06.65.02.97.03.78.03,1.56-.05,2.33.04.56,0,1.08-.07,1.42-.6.08-.18-.01-.38.07-.56,0-.18,0-.37,0-.55,0-4.33,0-8.66,0-12.98Z"/></svg>