<?xml version="1.0" encoding="UTF-8"?><svg id="Layer_1" xmlns="http://www.w3.org/2000/svg" viewBox="0 0 46.13 39.12"><defs><style>.cls-1{fill:#fffdf6;}</style></defs><path d="M25.85,13.97h0s0,0,0,0h0ZM25.85,13.97h0s0,0,0,0h0ZM25.85,13.97h0s0,0,0,0h0ZM25.85,13.97h0s0,0,0,0h0ZM25.85,13.97h0s0,0,0,0h0ZM25.85,13.97h0s0,0,0,0h0ZM25.85,13.97h0s0,0,0,0h0ZM25.85,13.97h0s0,0,0,0h0ZM25.85,13.97h0s0,0,0,0h0ZM25.85,13.97h0s0,0,0,0h0ZM25.85,13.97h0s0,0,0,0h0ZM25.85,13.97h0s0,0,0,0h0ZM25.85,13.97h0s0,0,0,0h0ZM25.85,13.97h0s0,0,0,0h0ZM25.85,13.97h0s0,0,0,0h0Z"/><path d="M43.37,23.29c-4.57,8.02-12.91,12.79-21.76,14.62-2.43.49-4.9.83-7.37,1.04-2.04.18-4.14.21-6.13-.33-3.88-1.07-6.3-4.35-7.38-8.07C-1.64,22.41,1.99,13.87,8.53,8.83c.03-.03.07-.06.1-.09,2.18-1.61,4.59-2.82,7.11-3.8,1.3-.5,2.61-.96,3.96-1.26.62-.14,1.25-.22,1.84-.45.58-.22,1.12-.55,1.65-.85,4.54-2.56,10.19-3.1,15.07-1.15,4.01,1.59,6.8,4.82,7.59,9.09.83,4.48-.25,9.06-2.48,12.97Z"/><path d="M27.56,17.36c0,.3,0,.6-.04.89,0,.02,0,.04,0,.05h0s0,.04,0,.06h0c-.01.08-.03.16-.04.23-.04.16-.08.33-.12.48-.16.51-.4.94-.78,1.31-.01,0-.04.03-.06.05-.04.02-.05.04-.05.04-.04.02-.06.04-.1.06-.07.04-.13.08-.21.11-.01,0-.02.01-.04.01h.01s-.01,0-.01,0h0s-.01,0-.03,0c-.35.11-.53.13-.93.11-1.24-.06-2.43-1.17-2.78-2.41-.24-.89.02-1.86.4-2.75.16-.37.33-.73.52-1.08.11-.22.23-.35.43-.39.1,0,.21,0,.31-.04.32-.12.62-.18.87-.19.15-.01.3-.01.45-.01.29,0,.23.02.45.06,0,0,.02,0,.03,0h0s0,0,0,0h.01s0,.01,0,.01c0,0,.01.01.03.03.16.13.31.28.45.44.31.33.57.69.78,1.09.18.33.29.66.37,1.01.01.04.04.23.05.28v-.04s0,.04,0,.05h0c.01.18.03.36.04.53Z"/><path class="cls-1" d="M23.11,27.66c-.07.53-.4.98-.98.98-.48,0-1.05-.45-.98-.98.08-.66.22-1.34.16-2-.05-.6-.35-1.14-.67-1.63-.31-.47-.69-.89-1.1-1.27-.23-.21-.47-.42-.71-.62,0,0-.02-.01-.04-.03.21.23.39.48.53.77.34.66.41,1.41.33,2.14-.14,1.39-.65,2.87-1.63,3.9-1.84,1.94-5.07,1.83-7.34.77-2.29-1.07-3.56-3.55-3.63-6-.08-2.45,1.05-4.95,3.19-6.23,1.16-.7,2.53-1.01,3.87-1.07.78-.04,1.55.09,2.32.16.79.09,1.43.18,2.14.55,1.12.59.13,2.28-.99,1.7-.6-.32-1.31-.31-1.97-.38-.62-.07-1.24-.1-1.87-.04-1.06.09-2.16.43-2.99,1.11-2.69,2.2-2.23,7.42,1.22,8.62,1.57.55,3.79.67,4.89-.82.5-.67.79-1.62.86-2.43.04-.48,0-.91-.28-1.31-.16-.21-.36-.4-.57-.58-.32.25-.65.48-.97.72-.87.61-1.7,1.23-2.14,2.24-.21.49-.92.6-1.34.35-.49-.28-.56-.85-.35-1.34.59-1.36,1.83-2.21,3.01-3.05.56-.4,1.06-.85,1.6-1.28.62-.48,1.41-1.02,2.22-.74.69.23,1.34.9,1.87,1.38.56.5,1.06,1.07,1.49,1.7.44.65.81,1.4.94,2.17.15.87.01,1.7-.09,2.57Z"/><path class="cls-1" d="M25.81,13.95h0s0,0,0,0h0Z"/><path class="cls-1" d="M29.18,15.41c-.26-.7-.64-1.33-1.1-1.92-.36-.45-.8-.95-1.31-1.23-.92-.51-2.34-.39-3.29-.04-.01,0-.04.01-.05.02-1.03.21-1.67.87-2.13,1.85-.52,1.13-1.02,2.31-1.01,3.57.04,2.2,1.58,4.2,3.66,4.88,1.89.61,3.9-.13,4.83-1.9.81-1.53.99-3.59.39-5.23ZM27.51,18.26s0,.04,0,.05h0s0,.04,0,.06h0c-.01.08-.03.16-.04.23-.04.16-.08.33-.12.48-.16.51-.4.94-.78,1.31-.01,0-.04.03-.06.05-.04.02-.05.04-.05.04-.04.02-.06.04-.1.06-.07.04-.13.08-.21.11-.01,0-.02.01-.04.01h0s-.01.01-.03.01c-.35.11-.53.13-.93.11-1.24-.06-2.43-1.17-2.78-2.41-.24-.89.02-1.86.4-2.75.16-.37.33-.73.52-1.08.11-.22.23-.35.43-.39.1,0,.21,0,.31-.04.32-.12.62-.18.87-.19.15-.01.3-.01.45-.01.29,0,.23.02.45.06,0,0,.02,0,.03,0s0,0,.01,0,.01.01.03.03c.16.13.31.28.45.44.31.33.57.69.78,1.09.18.33.29.66.37,1.01.01.04.04.23.05.28,0,0,0,0,0,0h0c.01.18.03.36.04.53,0,.3,0,.6-.04.89Z"/><path class="cls-1" d="M37.35,16.3c0,.51-.33.82-.72.92-.35.39-.94.55-1.38.06-.57-.65-.43-1.41-.43-2.21,0-.89,0-1.78,0-2.67v-5.69c0-.73.65-1.04,1.21-.92.31-.05.64.03.87.26,2.67,2.73.49,7.03.45,10.25Z"/><path class="cls-1" d="M37.91,21.34c-.03.53-.13,1-.37,1.48-.09.18-.28.32-.47.4-.11.06-.24.09-.38.09-.09,0-.17-.02-.26-.04-.23-.09-.38-.16-.57-.34-.1-.09-.19-.21-.26-.34-.15-.29-.2-.55-.23-.88-.03-.3.01-.6.01-.89,0-.42.26-.76.62-.9.06-.13.13-.25.23-.35.18-.19.44-.28.69-.28.25-.01.53.11.7.28s.29.44.28.7c0,.36.02.72,0,1.09Z"/><path class="cls-1" d="M33.57,15.89c0,.09,0,.17-.02.24v.86c0,1.26-1.96,1.26-1.96,0v-1.33c-.04-.23-.11-.45-.16-.67-.09-.36-.16-.72-.21-1.09-.08-.62-.11-1.24-.2-1.86-.21-1.39-.28-2.8-.28-4.21,0-.79.77-1.09,1.34-.89t0,0c.57-.29,1.46-.01,1.46.83v7.81c.01.1.02.21.02.31Z"/><path class="cls-1" d="M33.82,20.72c0,.13-.05.26-.12.37-.06.11-.14.21-.25.27-.1.09-.21.15-.33.18-.1.02-.19.04-.28.04h-.04c-.09,0-.18-.02-.28-.04,0,0-.02,0-.03,0-.02,0-.04,0-.06-.02-.1-.04-.2-.07-.29-.12-.02,0-.04-.02-.05-.03-.08-.06-.16-.11-.23-.17,0,0,0-.01-.01-.02-.15-.17-.2-.25-.27-.47-.04-.09-.04-.18-.04-.28h0s.04-.26.04-.28c.04-.18.15-.33.28-.48h.01c.06-.06.18-.15.21-.17,0,0,.02-.01.03-.02.16-.09.32-.13.5-.13.09.01.18.02.26.04.04.01.08.03.12.04h0c.35.07.57.32.67.61.03.02.04.04.06.06.04.08.06.16.1.23.04.13.05.26.02.39Z"/></svg>