<?xml version="1.0" encoding="UTF-8"?><svg id="Layer_1" xmlns="http://www.w3.org/2000/svg" viewBox="0 0 48 22"><path d="M31.59,9.85h-13.62c.15-.11.3-.22.44-.33.98-.74,1.97-1.48,3-2.16.5-.33.7-.97.39-1.5-.29-.49-1.01-.72-1.5-.39-1.38.91-2.68,1.92-4,2.91-1.04.78-3.69,2.22-2.14,3.76.47.47,1.14.82,1.68,1.19.69.47,1.39.92,2.09,1.37.68.44,1.38.83,2.08,1.22.61.34,1.3.94,1.99,1.05.59.09,1.18-.15,1.35-.77.14-.52-.18-1.27-.77-1.35-.25-.04-.49-.25-.73-.4-.29-.18-.59-.34-.89-.51-.68-.38-1.35-.77-2.01-1.19-.36-.23-.71-.47-1.07-.7h13.69c1.41,0,1.42-2.2,0-2.2Z"/><path d="M41.58,3.89c-2.66-1.77-5.63-2.56-8.75-3.03C29.37.35,25.93.04,22.43,0c-3.96-.05-8.1.5-11.88,1.71-3.11,1-7.01,2.45-8.7,5.48-1.94,3.49.36,7.49,2.88,9.98,3.1,3.05,7.62,3.97,11.78,4.5,3.94.47,7.72.4,11.64-.22,3.8-.6,7.87-1.11,11.42-2.67,1.69-.74,3.27-1.87,4.7-3.03,1.25-1.03,2.24-2.39,2.55-4.01.65-3.4-2.73-6.17-5.25-7.85ZM42.99,13.97c-1.19,1.03-2.62,1.99-4.03,2.68-1.62.79-3.46,1.16-5.21,1.57-1.91.44-3.85.74-5.79,1.05-3.85.62-7.57.66-11.44.2-3.16-.4-6.84-1.07-9.4-3.11-2.05-1.64-4.76-4.99-3.51-7.79,1.22-2.73,5.09-3.97,7.7-4.79,3.18-1,6.67-1.55,10-1.58,3.21-.03,6.4.15,9.58.57,2.51.33,4.93.74,7.26,1.77,1.35.6,2.61,1.37,3.75,2.32,1.02.85,2.61,2.2,2.84,3.57.23,1.37-.77,2.71-1.74,3.55Z"/></svg>