<?xml version="1.0" encoding="UTF-8"?><svg id="Layer_1" xmlns="http://www.w3.org/2000/svg" viewBox="0 0 46.13 39.12"><defs><style>.cls-1{fill:#fffdf6;}</style></defs><path class="cls-1" d="M27.52,17s0-.01,0-.05c-.01-.07-.04-.21-.04-.24-.08-.36-.2-.7-.37-1.02-.21-.39-.48-.75-.78-1.09-.14-.15-.29-.31-.45-.44h0s0,0-.01-.01h0s0,0,0,0h0s0-.01-.01-.01h-.01s0,0,0,0h0c-.21-.04-.16-.05-.45-.06-.16,0-.31,0-.46.01-.25.02-.55.08-.87.19-.1.04-.2.05-.3.05-.19.04-.31.17-.43.38-.18.35-.35.71-.51,1.08-.38.89-.64,1.87-.4,2.75.33,1.24,1.53,2.35,2.77,2.41.4.02.59,0,.94-.11,0,0,.02,0,.03,0s.01,0,.02,0c0,0,.01,0,.02,0,0,0,.01,0,.02,0h-.01c.06-.04.13-.07.19-.11.04-.02.07-.04.11-.06,0,0,0,0,.01,0,.03-.03.07-.06.09-.08.38-.37.62-.79.78-1.31.05-.16.09-.32.12-.48.02-.09.04-.18.06-.28v-.02s0-.02,0-.04c.04-.3.04-.6.04-.89,0-.18-.01-.35-.04-.53ZM27.52,17s0-.01,0-.05c-.01-.07-.04-.21-.04-.24-.08-.36-.2-.7-.37-1.02-.21-.39-.48-.75-.78-1.09-.14-.15-.29-.31-.45-.44h0s0,0-.01-.01h0s0,0,0,0h0s0-.01-.01-.01h-.01s0,0,0,0h0c-.21-.04-.16-.05-.45-.06-.16,0-.31,0-.46.01-.25.02-.55.08-.87.19-.1.04-.2.05-.3.05-.19.04-.31.17-.43.38-.18.35-.35.71-.51,1.08-.38.89-.64,1.87-.4,2.75.33,1.24,1.53,2.35,2.77,2.41.4.02.59,0,.94-.11,0,0,.02,0,.03,0s.01,0,.02,0c0,0,.01,0,.02,0,0,0,.01,0,.02,0h-.01c.06-.04.13-.07.19-.11.04-.02.07-.04.11-.06,0,0,0,0,.01,0,.03-.03.07-.06.09-.08.38-.37.62-.79.78-1.31.05-.16.09-.32.12-.48.02-.09.04-.18.06-.28v-.02s0-.02,0-.04c.04-.3.04-.6.04-.89,0-.18-.01-.35-.04-.53ZM43.02,7.86c-1.79-3.62-5.73-5.44-9.61-5.78-2.18-.19-4.36.06-6.44.73-1.89.6-3.47,1.93-5.37,2.47-1.11.32-2.25.48-3.35.84-.94.31-1.88.66-2.8,1.04-2.06.86-4.02,1.94-5.81,3.28C3.2,15.34-.35,24.8,3.55,32.36c.75,1.45,1.77,2.73,3.19,3.56,1.69.99,3.66,1.21,5.59,1.17,4.32-.09,8.79-.86,12.91-2.15,7.61-2.38,14.85-7.76,17.77-15.42,1.38-3.63,1.78-8.07.01-11.66ZM23.12,27.82c-.06.53-.39.98-.98.98-.48,0-1.04-.45-.98-.98.09-.66.23-1.34.16-2.01-.05-.59-.35-1.14-.67-1.63-.31-.47-.69-.89-1.1-1.27-.23-.22-.47-.42-.71-.62-.01,0-.03-.02-.05-.04.21.23.4.48.55.77.34.65.41,1.41.33,2.14-.14,1.39-.65,2.87-1.63,3.9-1.84,1.94-5.07,1.83-7.34.77-2.29-1.07-3.55-3.55-3.63-6-.09-2.45,1.04-4.95,3.18-6.23,1.16-.7,2.53-1.01,3.87-1.07.78-.04,1.55.09,2.32.16.79.09,1.43.18,2.14.55,1.12.59.13,2.28-.99,1.7-.6-.32-1.31-.31-1.97-.38-.62-.07-1.24-.09-1.87-.04-1.05.09-2.15.44-2.98,1.11-2.7,2.2-2.24,7.42,1.21,8.62,1.58.55,3.79.67,4.89-.82.5-.67.79-1.62.85-2.44.04-.48,0-.9-.28-1.3-.16-.21-.36-.4-.56-.59-.32.26-.65.49-.98.72-.87.61-1.7,1.23-2.14,2.24-.21.48-.93.59-1.34.35-.5-.29-.57-.85-.35-1.34.6-1.36,1.83-2.22,3.01-3.05.56-.4,1.06-.85,1.6-1.28.62-.48,1.41-1.02,2.22-.74.69.23,1.33.9,1.87,1.38.55.5,1.06,1.07,1.48,1.7.45.65.82,1.4.95,2.17.15.87.01,1.7-.1,2.57ZM28.8,20.8c-.93,1.76-2.95,2.51-4.83,1.89-2.08-.67-3.63-2.68-3.66-4.88-.01-1.26.49-2.44,1.01-3.56.45-.99,1.1-1.65,2.14-1.86.01,0,.03-.01.04-.02.94-.35,2.37-.47,3.29.04.5.28.94.79,1.3,1.24.47.59.84,1.21,1.1,1.92.6,1.63.43,3.69-.38,5.22ZM31.23,14.06c-.08-.62-.11-1.23-.2-1.85-.21-1.39-.29-2.8-.29-4.21,0-.78.75-1.08,1.33-.89.58-.31,1.49-.04,1.49.82v9.21c0,1.26-1.97,1.26-1.97,0v-1.33c-.03-.22-.1-.44-.16-.66-.1-.36-.16-.73-.21-1.1ZM33.83,20.88c0,.13-.05.26-.12.37-.06.11-.14.21-.25.27-.1.09-.21.15-.33.18-.09.02-.19.04-.28.04h-.04c-.09,0-.18-.02-.28-.04,0,0-.02,0-.03,0-.02,0-.04-.01-.06-.02-.1-.04-.2-.07-.29-.12-.01,0-.04-.02-.05-.03-.08-.06-.15-.11-.22-.17,0,0-.01-.01-.02-.02-.15-.17-.2-.25-.27-.47-.03-.09-.04-.18-.04-.28h0s.04-.26.04-.27t0,0c.04-.18.15-.33.27-.48,0,0,0,0,.01,0,.06-.06.18-.14.21-.16.01,0,.02-.01.04-.02.15-.09.31-.13.49-.13.09.01.18.02.26.04.04.01.08.03.12.04h0c.35.07.57.31.67.6h0s.04.06.06.08c.04.08.07.16.1.23.04.13.05.26.02.39ZM37.91,21.5c-.03.53-.13,1-.37,1.48-.09.18-.28.32-.47.4-.11.06-.24.09-.38.09-.09,0-.17-.02-.26-.04-.23-.09-.38-.16-.57-.34-.11-.1-.2-.21-.26-.34-.15-.3-.2-.55-.23-.88-.03-.3.01-.6.01-.89,0-.42.26-.76.62-.9.06-.13.13-.25.23-.35.18-.19.44-.28.69-.28.25-.01.53.11.7.28s.29.44.28.7c0,.36.02.72,0,1.09ZM37.35,16.46c0,.51-.33.82-.72.92-.35.39-.94.55-1.38.06-.57-.64-.43-1.41-.43-2.21,0-.89,0-1.77,0-2.67v-5.68c0-.73.65-1.04,1.21-.92.31-.05.64.04.87.26,2.67,2.73.49,7.03.45,10.25ZM27.52,16.95c-.01-.07-.04-.21-.04-.24-.08-.36-.2-.7-.37-1.02-.21-.39-.48-.75-.78-1.09-.14-.15-.29-.31-.45-.44h0s0,0-.01-.01h0s0,0,0,0h0s0-.01-.01-.01h-.01s0,0,0,0h0c-.21-.04-.16-.05-.45-.06-.16,0-.31,0-.46.01-.25.02-.55.08-.87.19-.1.04-.2.05-.3.05-.19.04-.31.17-.43.38-.18.35-.35.71-.51,1.08-.38.89-.64,1.87-.4,2.75.33,1.24,1.53,2.35,2.77,2.41.4.02.59,0,.94-.11,0,0,.02,0,.03,0s.01,0,.02,0c0,0,.01,0,.02,0,0,0,.01,0,.02,0h-.01c.06-.04.13-.07.19-.11.04-.02.07-.04.11-.06,0,0,0,0,.01,0,.03-.03.07-.06.09-.08.38-.37.62-.79.78-1.31.05-.16.09-.32.12-.48.02-.09.04-.18.06-.28v-.02s0-.02,0-.04c.04-.3.04-.6.04-.89,0-.18-.01-.35-.04-.53,0,0,0-.01,0-.05Z"/><path d="M45.86,10.32c-.79-4.27-3.59-7.5-7.59-9.09-4.88-1.95-10.53-1.41-15.07,1.15-.54.31-1.07.62-1.65.85-.59.23-1.22.31-1.84.45-1.36.31-2.67.75-3.96,1.26-2.52.98-4.93,2.18-7.11,3.8-.04.03-.07.06-.11.09C2.01,13.87-1.62,22.4.74,30.54c1.09,3.73,3.51,7,7.39,8.06,1.99.55,4.09.51,6.12.33,2.47-.21,4.94-.54,7.37-1.04,8.84-1.82,17.18-6.6,21.75-14.61,2.24-3.92,3.31-8.49,2.48-12.97ZM43.01,19.52c-2.92,7.66-10.16,13.04-17.77,15.42-4.12,1.29-8.59,2.06-12.91,2.15-1.92.04-3.9-.18-5.59-1.17-1.42-.84-2.45-2.11-3.19-3.56-3.9-7.57-.35-17.02,6.09-21.92,1.8-1.33,3.75-2.42,5.81-3.28.92-.38,1.85-.73,2.8-1.04,1.1-.35,2.24-.52,3.35-.84,1.9-.54,3.48-1.87,5.37-2.47,2.09-.67,4.27-.92,6.44-.73,3.88.33,7.82,2.16,9.61,5.78,1.77,3.59,1.37,8.03-.01,11.66Z"/><path d="M23.12,27.82c-.06.53-.39.98-.98.98-.48,0-1.04-.45-.98-.98.09-.66.23-1.34.16-2.01-.05-.59-.35-1.14-.67-1.63-.31-.47-.69-.89-1.1-1.27-.23-.22-.47-.42-.71-.62-.01,0-.03-.02-.05-.04.21.23.4.48.55.77.34.65.41,1.41.33,2.14-.14,1.39-.65,2.87-1.63,3.9-1.84,1.94-5.07,1.83-7.34.77-2.29-1.07-3.55-3.55-3.63-6-.09-2.45,1.04-4.95,3.18-6.23,1.16-.7,2.53-1.01,3.87-1.07.78-.04,1.55.09,2.32.16.79.09,1.43.18,2.14.55,1.12.59.13,2.28-.99,1.7-.6-.32-1.31-.31-1.97-.38-.62-.07-1.24-.09-1.87-.04-1.05.09-2.15.44-2.98,1.11-2.7,2.2-2.24,7.42,1.21,8.62,1.58.55,3.79.67,4.89-.82.5-.67.79-1.62.85-2.44.04-.48,0-.9-.28-1.3-.16-.21-.36-.4-.56-.59-.32.26-.65.49-.98.72-.87.61-1.7,1.23-2.14,2.24-.21.48-.93.59-1.34.35-.5-.29-.57-.85-.35-1.34.6-1.36,1.83-2.22,3.01-3.05.56-.4,1.06-.85,1.6-1.28.62-.48,1.41-1.02,2.22-.74.69.23,1.33.9,1.87,1.38.55.5,1.06,1.07,1.48,1.7.45.65.82,1.4.95,2.17.15.87.01,1.7-.1,2.57Z"/><path d="M29.19,15.58c-.26-.71-.63-1.33-1.1-1.92-.35-.45-.79-.96-1.3-1.24-.92-.5-2.34-.38-3.29-.04-.01,0-.03.01-.04.02-1.04.21-1.69.87-2.14,1.86-.52,1.12-1.02,2.3-1.01,3.56.03,2.2,1.58,4.2,3.66,4.88,1.88.61,3.9-.13,4.83-1.89.81-1.53.98-3.59.38-5.22ZM27.52,18.42s0,.03,0,.04v.02c-.01.09-.04.18-.06.28-.03.16-.07.33-.12.48-.16.51-.4.94-.78,1.31-.01.01-.06.05-.09.08,0,0-.01,0-.01,0-.04.02-.07.04-.11.06-.06.04-.13.08-.19.11.05-.01.02,0,0,0,0,0-.01,0-.02,0-.01,0-.02.01-.02,0,0,0-.02,0-.03,0-.35.11-.54.13-.94.11-1.23-.06-2.43-1.17-2.77-2.41-.24-.88.02-1.86.4-2.75.16-.37.33-.72.51-1.08.12-.21.24-.35.43-.38.1,0,.2-.01.3-.05.32-.11.62-.17.87-.19.16,0,.31-.01.46-.01.29,0,.23.02.45.06h0s0,0,0,0h.01s0,0,.01,0h.01s.01.02.01.02h0c.16.14.31.3.45.45.31.33.57.7.78,1.09.17.33.29.66.37,1.02,0,.03.03.17.04.24,0,.04,0,.05,0,.05.02.17.03.35.04.53,0,.3,0,.6-.04.89Z"/><path d="M25.84,14.13h0s-.02,0-.04,0h.01s0,0,.01,0Z"/><path d="M25.86,14.14s.01,0,.01,0h0s0,0-.01,0Z"/><path d="M26.15,20.81s-.01,0-.02,0c0,0,.01,0,.02-.01h0s.02,0,0,0Z"/><path d="M37.35,16.46c0,.51-.33.82-.72.92-.35.39-.94.55-1.38.06-.57-.64-.43-1.41-.43-2.21,0-.89,0-1.77,0-2.67v-5.68c0-.73.65-1.04,1.21-.92.31-.05.64.04.87.26,2.67,2.73.49,7.03.45,10.25Z"/><path d="M37.91,21.5c-.03.53-.13,1-.37,1.48-.09.18-.28.32-.47.4-.11.06-.24.09-.38.09-.09,0-.17-.02-.26-.04-.23-.09-.38-.16-.57-.34-.11-.1-.2-.21-.26-.34-.15-.3-.2-.55-.23-.88-.03-.3.01-.6.01-.89,0-.42.26-.76.62-.9.06-.13.13-.25.23-.35.18-.19.44-.28.69-.28.25-.01.53.11.7.28s.29.44.28.7c0,.36.02.72,0,1.09Z"/><path d="M33.56,7.94v9.21c0,1.26-1.97,1.26-1.97,0v-1.33c-.03-.22-.1-.44-.16-.66-.1-.36-.16-.73-.21-1.1-.08-.62-.11-1.23-.2-1.85-.21-1.39-.29-2.8-.29-4.21,0-.78.75-1.08,1.33-.89.58-.31,1.49-.04,1.49.82Z"/><path d="M33.57,16.05c0,.06,0,.11-.01.17v-.44c0,.09.01.18.01.27Z"/><path d="M33.83,20.88c0,.13-.05.26-.12.37-.06.11-.14.21-.25.27-.1.09-.21.15-.33.18-.09.02-.19.04-.28.04h-.04c-.09,0-.18-.02-.28-.04,0,0-.02,0-.03,0-.02,0-.04-.01-.06-.02-.1-.04-.2-.07-.29-.12-.01,0-.04-.02-.05-.03-.08-.06-.15-.11-.22-.17,0,0-.01-.01-.02-.02-.15-.17-.2-.25-.27-.47-.03-.09-.04-.18-.04-.28h0s.04-.26.04-.27t0,0c.04-.18.15-.33.27-.48,0,0,0,0,.01,0,.06-.06.18-.14.21-.16.01,0,.02-.01.04-.02.15-.09.31-.13.49-.13.09.01.18.02.26.04.04.01.08.03.12.04h0c.35.07.57.31.67.6h0s.04.06.06.08c.04.08.07.16.1.23.04.13.05.26.02.39Z"/></svg>