<?xml version="1.0" encoding="UTF-8"?><svg id="Layer_1" xmlns="http://www.w3.org/2000/svg" viewBox="0 0 77 58"><defs><style>.cls-1{fill:#fffdf6;}</style></defs><path class="cls-1" d="M73.69,27c-.19,2.89-.28,6.06-1.54,8.71-.64,1.37-1.63,2.43-2.7,3.47-1.23,1.19-2.46,2.4-3.75,3.54-2.54,2.21-5.22,4.33-8.01,6.22-2.77,1.88-5.84,3.55-8.99,4.68-3.11,1.12-6.48,1.38-9.76,1.48-3.42.12-6.88-.04-10.3-.08-3.43-.05-7.06,0-10.44-.63-1.5-.27-3.05-.64-4.47-1.21-1.56-.63-2.52-1.69-3.46-3.04-1.82-2.57-3.17-5.47-4.43-8.35-2.63-5.96-3.67-13.24-1.18-19.45,2.8-6.96,8.63-12.27,15.46-15.15,3.64-1.53,7.5-2.57,11.36-3.38,2.02-.42,4.01-.64,6.07-.76,1.81-.11,3.87-.62,5.65-.31,1.64.58,3.39.85,5.04,1.36,2.8.86,5.68,1.6,8.37,2.77,2.91,1.27,5.86,2.58,8.39,4.51,2.47,1.88,4.55,4.15,6.11,6.85,1.58,2.74,2.81,5.53,2.61,8.75Z"/><path d="M76.12,22.37c-2.01-6.41-6.54-11.88-12.34-15.21-5.33-3.07-11.33-4.94-17.25-6.47-.74-.18-1.5-.37-2.23-.6-.1-.04-.21-.08-.34-.1-.25-.09-.48-.11-.68-.07-1.53-.13-3.09.07-4.61.19-1.98.15-3.94.23-5.9.55-3.79.62-7.57,1.63-11.18,2.91-6.77,2.41-12.94,6.52-16.88,12.63-2.04,3.14-3.56,6.5-4.06,10.24-.46,3.54-.28,7.13.55,10.6.82,3.47,2.3,6.75,3.88,9.92,1.4,2.82,3.15,6.3,5.88,8.04,2.88,1.86,6.71,2.31,10.04,2.57,3.89.29,7.75.34,11.64.38,3.83.05,7.61.13,11.42-.36,3.67-.47,6.82-1.68,10.14-3.28,3.37-1.62,6.4-3.8,9.33-6.11,2.9-2.28,5.67-4.67,8.3-7.29,2.36-2.36,3.73-5.08,4.23-8.38.25-1.63.36-3.28.49-4.9.15-1.79.13-3.56-.4-5.28ZM57.69,48.95c-2.77,1.88-5.84,3.55-8.99,4.68-3.11,1.12-6.48,1.38-9.76,1.48-3.42.12-6.88-.04-10.3-.08-3.43-.05-7.06,0-10.44-.63-1.5-.27-3.05-.64-4.47-1.21-1.56-.63-2.52-1.69-3.46-3.04-1.82-2.57-3.17-5.47-4.43-8.35-2.63-5.96-3.67-13.24-1.18-19.45,2.8-6.96,8.63-12.27,15.46-15.15,3.64-1.53,7.5-2.57,11.36-3.38,2.02-.42,4.01-.64,6.07-.76,1.81-.11,3.87-.62,5.65-.31,1.64.58,3.39.85,5.04,1.36,2.8.86,5.68,1.6,8.37,2.77,2.91,1.27,5.86,2.58,8.39,4.51,2.47,1.88,4.55,4.15,6.11,6.85,1.58,2.74,2.81,5.53,2.61,8.75-.19,2.89-.28,6.06-1.54,8.71-.64,1.37-1.63,2.43-2.7,3.47-1.23,1.19-2.46,2.4-3.75,3.54-2.54,2.21-5.22,4.33-8.01,6.22Z"/><path d="M24.75,36.03c1.77-.55,3.35-1.34,4.58-2.77,1.1-1.27,1.86-2.76,1.68-4.48-.16-1.49-.75-3.1-1.93-4.08-1.58-1.31-3.52-1.03-5.35-.5-.88.26-1.74.56-2.58.94-.51.23-1.64,1.09-2.23.89-.69-.23-.71-1.83-.63-2.44.09-.73.31-1.61.85-2.14.55-.54,1.4-.72,2.15-.75.93-.04,1.92-.04,2.81.25.35.12.67.3.97.51.07.05.15.1.22.15.19.16.31.49.28.13.14,1.67,2.76,1.68,2.62,0-.14-1.64-1.73-2.72-3.17-3.25-1.58-.58-3.63-.61-5.26-.22-1.83.43-3.09,1.67-3.7,3.42-.47,1.35-.59,2.94-.14,4.32.48,1.48,1.61,2.67,3.26,2.64.93-.02,1.75-.49,2.56-.9.87-.44,1.76-.76,2.69-1.03.7-.21,1.49-.5,2.23-.37.7.12,1.11.67,1.39,1.28.61,1.34.44,2.52-.47,3.66-1.2,1.5-3.02,2.21-4.86,2.58-1.33.26-2.42-.15-2.61-1.56-.1-.7-.99-1.08-1.61-.91-.76.21-1.01.91-.91,1.61.21,1.55,1.25,2.77,2.72,3.28,1.49.52,3.01.18,4.46-.27Z"/><path d="M27.69,19.15c.15,1.22.52,2.36.9,3.53.33,1.02,1.06,1.81,1.69,2.65.67.9,1.78,1.47,2.87,1.72,2.08.49,4.45-.18,5.91-1.75,1.67-1.8,2.15-4.08,1.81-6.45-.19-1.33-.45-2.59-.84-3.87-.2-.63-.37-1.28-.52-1.93-.15-.65-.25-1.18-.72-1.7-1.12-1.27-2.96.59-1.85,1.85-.23-.27-.03.22,0,.38.06.3.15.6.23.9.16.63.35,1.24.54,1.86.33,1.07.52,2.21.64,3.32.21,1.93-.69,4.21-2.72,4.75-.91.24-1.77.2-2.62-.2-.47-.22-.61-.42-.91-.84-.3-.41-.71-.77-.93-1.23-.22-.47-.32-1.03-.49-1.52-.19-.57-.34-1.12-.42-1.72-.17-1.35-.37-2.69-.58-4.03-.11-.7-.99-1.09-1.61-.91-.75.21-1.02.91-.91,1.61.18,1.19.36,2.38.51,3.57Z"/><path d="M41.22,13.96c.42,3.06.16,6.17-.04,9.24-.11,1.6-.18,3.19-.22,4.79-.02.81-.32,1.76.14,2.59.62,1.1,1.79.97,2.87.85,1.22-.14,2.44-.32,3.55-.88,2.3-1.16,3.26-3.76,3.02-6.22-.11-1.15-.68-2.17-1.59-2.84,1.21-.86,1.9-2.18,2.08-3.69.24-1.99-1.02-3.67-2.61-4.73-.79-.53-1.7-.9-2.65-1.03-1.07-.16-2.3-.34-3.37-.22-.7.08-1.31.55-1.31,1.31,0,.17.04.35.12.52,0,.11-.01.22,0,.33ZM47.79,26.41c-.22.91-.96,1.65-1.83,1.98-.51.19-1.06.29-1.59.37-.18.03-.55.02-.87.04.06-.54.07-1.08.09-1.63.03-1.37.12-2.73.22-4.09.63-.04,1.27.08,1.9.12.53.03,1.1.03,1.57.3.96.56.73,1.99.51,2.91ZM46.76,15.11c1.05.61,1.93,1.57,1.6,2.84-.5,1.89-2.64,2.21-4.4,2.46.09-1.99.08-3.98-.1-5.97.33.03.65.07.97.1.7.06,1.32.22,1.93.57Z"/><path d="M44.1,38.76c-1.01.05-1.82.76-2.67,1.23-.29.16-.57.32-.86.48,0,0-.02-.02-.03-.03-.03-.05-.04-.07-.04-.08-.04-.1-.07-.21-.12-.31-.14-.34-.29-.68-.43-1.03-.32-.76-.62-1.52-.96-2.27-.28-.62-.64-1.34-.86-1.9-.23-.6-.58-1.48-.61-1.93,0-.05-.01-.09-.02-.14.67-.58,1.34-1.16,1.92-1.83.45-.52.55-1.35,0-1.85-.49-.45-1.38-.55-1.85,0-1.07,1.24-2.41,2.28-3.67,3.32-.32.27-.65.53-.98.79-.18.14-.36.29-.55.43-.03.02-.17.13-.06.05-.12.09-.23.18-.35.27-.12.09-.24.19-.36.29-.02.01-.05.04-.07.07-.01,0-.02,0-.04.03-.13.09-.26.17-.39.25,0,0-.01,0-.02,0-.63.09-1.19.62-1.16,1.29.03.69.58,1.33,1.31,1.31.89-.03,1.57-.56,2.23-1.1.05-.04.09-.07.14-.11,0,0,0,0,0,0,.23-.18.46-.35.69-.53.33-.26.66-.52.99-.78.37,1.18.96,2.31,1.46,3.41.33.73.61,1.45.94,2.23.22.53.41,1.04.7,1.49-.78.51-1.55,1.03-2.34,1.51-.47-.49-.99-.9-1.54-1.33-.82-.65-1.6-1.34-2.41-2-.74-.6-1.53-1.14-2.27-1.73-.69-.55-1.26-1.15-2.11-1.48-.86-.34-1.59.5-1.66,1.26-.06.63.11,1.34.14,1.98.01.29.03.57.06.85.02.16.03.32.04.48-.47-.68-.95-1.34-1.35-2.06-.5-.91-1.73-.78-2.26,0-.41.6-.56,1.32-.73,2.01-.2.78-.43,1.56-.67,2.34-.24.76-.47,1.52-.7,2.28-.27.88-.5,1.58-.31,2.51.34,1.65,2.87.95,2.53-.7-.09-.44.33-1.19.45-1.62.19-.68.43-1.34.64-2.01.12-.39.22-.78.34-1.17.2.29.39.57.57.87.67,1.12,1.36,2.22,1.97,3.37.33.62,1.21.83,1.79.47.71-.43.71-1.21.69-1.94-.03-.8-.09-1.6-.15-2.4-.06-.74-.12-1.48-.19-2.22,0-.1-.02-.2-.03-.3.53.39,1.06.78,1.57,1.21.71.59,1.4,1.19,2.12,1.77.42.33.91.65,1.32,1.03-.17.39-.15.88.05,1.23.38.66,1.15.77,1.79.47,1.55-.73,2.94-1.73,4.37-2.66.71-.46,1.43-.89,2.18-1.29.39-.21.77-.42,1.15-.64.19-.11.38-.23.56-.35.07-.04.19-.09.24-.15.01-.01.01-.02.02-.02.66-.08,1.2-.6,1.2-1.29s-.6-1.35-1.31-1.31ZM31.17,34.58s-.04.01-.07.02c.03-.02.06-.03.07-.02ZM31.08,34.61s0,0,0,0c-.06.04-.04.03,0,0ZM26.6,46.27s-.02.08,0,.1c0-.02,0-.05,0-.1Z"/><path d="M51.45,32.37c-3,.42-6.03.6-9.03,1.03-.7.1-1.08.99-.91,1.61.21.75.91,1.01,1.61.91,1.24-.18,2.49-.31,3.74-.43.22,1.37.45,2.74.6,4.12.1.83.15,1.66.1,2.5-.02.42-.11.89-.02,1.31.04.21.02.05,0,.24-.02.37-.05.61,0,.98.11.7.98,1.09,1.61.91.75-.2,1.02-.91.91-1.61,0,.33.02.38.05.14.04-.17.05-.34.05-.51,0-.16-.04-.32-.04-.48-.01-.45.05-.9.07-1.35.02-.83-.06-1.67-.16-2.49-.17-1.35-.38-2.69-.59-4.03.9-.1,1.8-.2,2.7-.32.7-.1,1.08-.99.91-1.61-.21-.75-.91-1.01-1.61-.91Z"/><path d="M59.57,22.71c-.08,1.94-.15,3.89-.26,5.83-.09,1.54.1,3.46-.44,4.94-.35.93-1.63,1.22-2.18.28-.69-1.15-.63-2.87-.76-4.16-.18-1.87-.48-3.72-.65-5.59-.36-3.99-.62-8.01-.93-12.01-.06-.71.44-1.1.99-1.13.25-.22.59-.37.9-.37.46,0,.83.23,1.06.57.31.12.56.37.66.78.45,1.79.91,3.53,1.29,5.33.38,1.83.4,3.68.33,5.54Z"/><path d="M60.15,37.92c-.1-.65-.53-1.3-1.19-1.48-.36-.1-.75-.06-1.09.08-.02,0-.05-.02-.07-.03-.34-.08-.71-.06-1.01.13-.29.19-.51.45-.6.78-.13.45-.2.94-.22,1.41-.03.59.07,1.21.36,1.73.4.73,1.25,1.2,2.08.98.59-.16,1.04-.62,1.32-1.15.18-.33.34-.72.42-1.09.09-.48.07-.89,0-1.37Z"/></svg>