<?xml version="1.0" encoding="UTF-8"?><svg id="Layer_1" xmlns="http://www.w3.org/2000/svg" viewBox="0 0 77 58"><defs><style>.cls-1{fill:#fffdf6;}</style></defs><path d="M76.44,27.72c-.13,1.62-.24,3.27-.49,4.89-.5,3.29-1.87,6-4.22,8.36-2.62,2.61-5.38,5-8.28,7.27-2.92,2.3-5.95,4.48-9.31,6.09-3.31,1.6-6.45,2.81-10.11,3.28-3.8.48-7.57.4-11.39.35-3.88-.05-7.74-.1-11.61-.39-3.33-.26-7.15-.71-10.02-2.56-2.71-1.74-4.46-5.21-5.86-8.03-1.57-3.17-3.05-6.44-3.86-9.9-.82-3.46-1.01-7.04-.55-10.58.5-3.73,2.01-7.08,4.05-10.22,3.93-6.1,10.09-10.19,16.84-12.6,3.61-1.29,7.38-2.3,11.16-2.9,1.96-.32,3.91-.39,5.89-.55,1.52-.12,3.08-.32,4.6-.19.2-.04.44-.02.68.06.12.02.24.06.33.1.73.24,1.49.41,2.23.59,5.92,1.53,11.91,3.4,17.22,6.46,5.79,3.33,10.31,8.78,12.31,15.18.53,1.71.55,3.48.4,5.27Z"/><path class="cls-1" d="M24.78,36.07c1.77-.54,3.35-1.34,4.57-2.77,1.09-1.27,1.86-2.75,1.67-4.47-.16-1.48-.75-3.09-1.93-4.07-1.58-1.31-3.51-1.03-5.34-.5-.88.26-1.74.56-2.58.94-.51.23-1.63,1.09-2.23.89-.69-.23-.71-1.83-.63-2.44.09-.73.31-1.6.85-2.14.55-.54,1.4-.71,2.14-.75.92-.04,1.91-.04,2.8.25.35.12.67.3.97.51.07.05.15.1.22.15.19.16.31.49.28.13.14,1.66,2.76,1.68,2.61,0-.14-1.64-1.73-2.72-3.16-3.24-1.58-.57-3.62-.6-5.25-.22-1.82.43-3.08,1.67-3.69,3.41-.47,1.35-.59,2.94-.14,4.31.48,1.48,1.61,2.67,3.25,2.63.93-.02,1.74-.49,2.55-.9.87-.44,1.76-.76,2.69-1.03.7-.21,1.48-.49,2.23-.37.7.12,1.11.67,1.38,1.28.61,1.34.44,2.52-.47,3.65-1.2,1.5-3.01,2.21-4.85,2.58-1.32.26-2.41-.15-2.61-1.56-.1-.7-.99-1.08-1.61-.91-.75.21-1.01.91-.91,1.61.21,1.54,1.25,2.76,2.71,3.27,1.49.52,3,.18,4.45-.27Z"/><path class="cls-1" d="M27.71,19.23c.15,1.22.52,2.35.9,3.52.33,1.02,1.06,1.8,1.69,2.65.67.9,1.78,1.46,2.87,1.72,2.08.49,4.44-.18,5.9-1.75,1.66-1.79,2.14-4.07,1.81-6.43-.19-1.32-.45-2.59-.84-3.86-.2-.63-.37-1.28-.52-1.92-.15-.65-.25-1.17-.72-1.7-1.11-1.26-2.96.59-1.85,1.85-.23-.26-.03.22,0,.38.06.3.15.6.23.9.16.63.35,1.24.54,1.86.33,1.06.52,2.2.64,3.31.21,1.92-.69,4.2-2.72,4.74-.9.24-1.76.2-2.61-.2-.47-.22-.61-.42-.91-.83-.29-.41-.7-.77-.92-1.23-.22-.46-.32-1.03-.48-1.52-.19-.57-.34-1.12-.42-1.72-.17-1.34-.37-2.68-.58-4.02-.11-.7-.98-1.08-1.61-.91-.75.21-1.02.91-.91,1.61.18,1.19.36,2.37.51,3.57Z"/><path class="cls-1" d="M41.21,14.06c.42,3.05.16,6.16-.04,9.22-.11,1.59-.18,3.19-.22,4.78-.02.81-.32,1.76.14,2.58.62,1.1,1.79.97,2.87.84,1.22-.14,2.43-.32,3.54-.88,2.3-1.15,3.25-3.75,3.01-6.21-.11-1.15-.68-2.17-1.59-2.83,1.21-.86,1.89-2.18,2.08-3.68.24-1.98-1.02-3.66-2.61-4.72-.79-.53-1.7-.89-2.64-1.03-1.07-.16-2.29-.34-3.36-.22-.7.08-1.31.55-1.31,1.31,0,.17.04.35.12.52,0,.11-.01.22,0,.33ZM47.77,26.47c-.22.91-.96,1.64-1.82,1.98-.5.19-1.06.29-1.59.37-.18.03-.54.02-.87.04.06-.54.07-1.07.09-1.62.03-1.36.12-2.72.22-4.08.63-.04,1.26.08,1.9.12.53.03,1.1.03,1.57.3.95.55.73,1.99.51,2.9ZM46.74,15.2c1.05.61,1.93,1.57,1.6,2.83-.5,1.88-2.64,2.21-4.39,2.46.09-1.99.08-3.97-.1-5.95.33.03.65.07.97.09.7.06,1.32.22,1.93.57Z"/><path class="cls-1" d="M44.09,38.8c-1.01.05-1.82.76-2.67,1.23-.29.16-.57.32-.86.48,0,0-.02-.02-.03-.03-.03-.05-.04-.07-.04-.08-.04-.1-.07-.21-.11-.31-.14-.34-.29-.68-.43-1.02-.32-.76-.62-1.52-.96-2.27-.28-.62-.64-1.34-.85-1.9-.23-.6-.58-1.47-.61-1.93,0-.05-.01-.09-.02-.14.67-.58,1.34-1.15,1.92-1.83.45-.52.55-1.35,0-1.85-.49-.45-1.37-.55-1.85,0-1.06,1.24-2.41,2.28-3.66,3.31-.32.27-.65.53-.98.79-.18.14-.36.29-.55.43-.03.02-.17.13-.06.05-.12.09-.23.18-.35.27-.12.09-.24.19-.36.28-.02.01-.04.04-.07.07-.01,0-.02,0-.04.03-.13.09-.26.17-.39.25,0,0-.01,0-.02,0-.63.09-1.19.62-1.16,1.29.03.69.57,1.33,1.31,1.31.89-.03,1.57-.56,2.23-1.1.05-.04.09-.07.14-.11,0,0,0,0,0,0,.23-.17.46-.35.69-.53.33-.26.66-.52.98-.78.37,1.17.96,2.31,1.46,3.4.33.73.61,1.44.94,2.23.22.53.41,1.04.69,1.49-.77.51-1.55,1.03-2.34,1.51-.47-.49-.99-.9-1.54-1.33-.82-.65-1.6-1.34-2.41-2-.74-.6-1.53-1.13-2.27-1.73-.69-.55-1.26-1.15-2.1-1.48-.86-.34-1.58.5-1.65,1.26-.06.62.11,1.34.14,1.98.01.29.03.57.06.85.01.16.03.32.04.48-.47-.67-.95-1.34-1.34-2.06-.5-.91-1.73-.78-2.26,0-.41.6-.55,1.31-.73,2.01-.2.78-.43,1.56-.67,2.33-.24.76-.47,1.51-.7,2.27-.27.88-.5,1.58-.31,2.51.34,1.65,2.86.95,2.52-.69-.09-.44.33-1.19.45-1.62.19-.68.43-1.33.64-2,.12-.38.22-.77.33-1.16.2.28.39.57.56.87.67,1.11,1.36,2.21,1.97,3.36.33.62,1.2.82,1.79.47.7-.43.71-1.21.69-1.93-.03-.8-.09-1.6-.15-2.4-.06-.74-.12-1.48-.19-2.22,0-.1-.02-.2-.03-.3.53.39,1.06.78,1.56,1.2.71.59,1.4,1.19,2.12,1.76.42.33.91.65,1.32,1.03-.17.39-.15.87.05,1.23.38.65,1.15.77,1.79.47,1.55-.73,2.93-1.72,4.36-2.66.71-.46,1.43-.89,2.17-1.29.39-.21.77-.42,1.14-.64.19-.11.38-.23.56-.34.07-.04.19-.09.24-.15.01-.01.01-.02.02-.02.66-.08,1.2-.6,1.2-1.29s-.6-1.34-1.31-1.31ZM31.19,34.63s-.04.01-.07.02c.03-.02.06-.03.07-.02ZM31.09,34.66s0,0,0,0c-.06.04-.04.03,0,0ZM26.62,46.3s-.01.08,0,.1c0-.02,0-.05,0-.1Z"/><path class="cls-1" d="M51.43,32.42c-2.99.42-6.02.6-9.01,1.02-.7.1-1.08.99-.91,1.61.21.75.91,1.01,1.61.91,1.24-.18,2.49-.31,3.73-.43.22,1.37.45,2.73.6,4.11.1.83.15,1.66.1,2.5-.02.42-.11.89-.02,1.3.04.21.02.05,0,.24-.02.36-.05.61,0,.97.11.7.98,1.08,1.61.91.74-.2,1.02-.91.91-1.61,0,.33.02.38.05.14.04-.17.05-.34.05-.51,0-.16-.04-.32-.04-.48-.01-.45.05-.9.07-1.35.02-.83-.06-1.66-.16-2.49-.17-1.34-.38-2.68-.59-4.02.9-.1,1.8-.2,2.69-.32.7-.1,1.08-.99.91-1.61-.21-.75-.91-1.01-1.61-.91Z"/><path class="cls-1" d="M59.52,22.79c-.08,1.94-.15,3.88-.26,5.82-.09,1.54.1,3.45-.44,4.93-.35.93-1.63,1.22-2.18.28-.69-1.15-.63-2.86-.76-4.16-.18-1.86-.48-3.71-.65-5.58-.36-3.98-.61-7.99-.93-11.99-.06-.71.44-1.09.99-1.13.25-.22.59-.36.9-.36.46,0,.83.23,1.06.57.31.12.56.36.66.78.45,1.79.91,3.52,1.29,5.32.38,1.82.4,3.68.33,5.53Z"/><path class="cls-1" d="M60.1,37.96c-.09-.65-.53-1.29-1.19-1.47-.36-.1-.75-.06-1.09.08-.02,0-.05-.02-.07-.03-.33-.08-.71-.06-1.01.13-.29.18-.51.45-.6.78-.13.45-.2.93-.22,1.4-.03.59.07,1.21.36,1.73.4.72,1.24,1.2,2.07.98.59-.16,1.04-.62,1.32-1.15.18-.33.34-.71.41-1.09.09-.48.07-.89,0-1.36Z"/></svg>