<?xml version="1.0" encoding="UTF-8"?><svg id="Layer_1" xmlns="http://www.w3.org/2000/svg" viewBox="0 0 48 22"><defs><style>.cls-1{fill:#231f20;}.cls-2{fill:#fffdf6;}</style></defs><path class="cls-1" d="M15.9,11.4s0,0,.02-.02h0s-.02.02-.02.02Z"/><path d="M41.57,3.9c-2.67-1.78-5.64-2.57-8.76-3.04C29.34.35,25.91.04,22.4,0c-3.97-.05-8.12.5-11.9,1.71-3.12,1-7.02,2.45-8.71,5.48-1.94,3.49.36,7.5,2.89,9.99,3.1,3.05,7.64,3.98,11.8,4.51,3.95.47,7.73.4,11.65-.21,3.81-.59,7.88-1.11,11.43-2.67,1.69-.74,3.29-1.87,4.71-3.04,1.25-1.02,2.25-2.39,2.56-4.01.65-3.4-2.73-6.17-5.26-7.85ZM18.94,12.77c.65.42,1.32.81,2.01,1.19.3.17.6.33.89.51.24.14.48.36.73.4.59.08.92.83.77,1.35-.17.62-.76.85-1.35.77-.7-.11-1.4-.71-2-1.05-.71-.4-1.4-.78-2.09-1.22-.7-.45-1.4-.91-2.09-1.38-.54-.36-1.21-.73-1.68-1.19-1.55-1.54,1.11-2.98,2.15-3.76,1.31-.99,2.62-2.01,4-2.91.5-.33,1.22-.1,1.51.4.31.53.1,1.17-.4,1.5-1.03.68-2.01,1.42-3,2.16-.15.11-.3.21-.44.33h13.62c1.42,0,1.42,2.2,0,2.2h-13.71c.35.24.71.47,1.07.7Z"/><path class="cls-2" d="M31.57,12.07h-13.71c.35.24.71.47,1.07.7.65.42,1.32.81,2.01,1.19.3.17.6.33.89.51.24.14.48.36.73.4.59.08.92.83.77,1.35-.17.62-.76.85-1.35.77-.7-.11-1.4-.71-2-1.05-.71-.4-1.4-.78-2.09-1.22-.7-.45-1.4-.91-2.09-1.38-.54-.36-1.21-.73-1.68-1.19-1.55-1.54,1.11-2.98,2.15-3.76,1.31-.99,2.62-2.01,4-2.91.5-.33,1.22-.1,1.51.4.31.53.1,1.17-.4,1.5-1.03.68-2.01,1.42-3,2.16-.15.11-.3.21-.44.33h13.62c1.42,0,1.42,2.2,0,2.2Z"/><path class="cls-2" d="M14.21,12.94h0s-.02.02-.02.02t.02-.02Z"/></svg>