<?xml version="1.0" encoding="UTF-8"?><svg id="Layer_1" xmlns="http://www.w3.org/2000/svg" viewBox="0 0 26 26"><path d="M5.62,14.07c1.53,2.52,3.1,5.02,4.75,7.46,1.24,1.84,3.45,4.89,6.08,4.42,1.07-.19,1.93-1.21,2.7-1.9,1.01-.91,2.04-1.82,2.86-2.92.72-.97,1.48-2.16.8-3.36-.68-1.21-1.98-2.31-3.06-3.14-.93-.71-2.3-1.71-3.49-.94-.42.27-.82,1.08-1.2,1.64-.12-.17-.23-.32-.28-.39-.38-.5-.66-1.06-.96-1.61-.42-.78-.89-1.53-1.37-2.27.03-.02.05-.03.07-.04.14-.08.26-.2.41-.28.52-.26,1.15-.4,1.7-.63,1.15-.5,2.63-1,2.3-2.58-.18-.89-1.01-1.92-1.5-2.68-.73-1.12-1.37-2.3-2.08-3.42-.58-.92-1.37-1.62-2.54-1.36-1.03.23-2.09,1.09-2.96,1.64-1.99,1.26-4.46,2.8-4.86,5.34-.17,1.06.17,1.99.5,2.99.48,1.45,1.36,2.75,2.14,4.04ZM6.57,6.49c.58-.55,1.08-1.14,1.76-1.57.77-.47,1.53-.97,2.31-1.42.1-.05.19-.1.29-.15.1.15.2.29.25.36.47.79.93,1.58,1.44,2.35.27.41.53.81.77,1.24,0,.01.02.03.03.05-.43.18-.85.32-1.29.47-.71.26-1.62.63-2.15,1.17-.03.03-.05.06-.07.09-.88.24-1.57,1.17-.92,2.15,1.44,2.19,2.7,4.46,4.2,6.61.74,1.06,1.85,1.31,2.93.59.37-.25.68-.56.96-.9.2-.25.39-.52.57-.78.52.36,1.01.87,1.39,1.25.28.28.56.56.81.86-.24.29-.46.77-.68,1.01-.33.37-.69.71-1.05,1.05-.6.56-1.25,1.36-1.96,1.76-.47.26-.2.32-.8-.05-.31-.2-.58-.41-.85-.66-.81-.77-1.4-1.76-2.02-2.69-1.19-1.78-2.34-3.58-3.46-5.41-1.08-1.75-2.22-3.44-2.84-5.4-.27-.85-.34-1.29.37-1.97Z"/></svg>