<?xml version="1.0" encoding="UTF-8"?><svg id="Layer_1" xmlns="http://www.w3.org/2000/svg" viewBox="0 0 26 26"><path d="M23.4.49c-2.84.82-5.86,1.2-8.77,1.73-1.55.28-3.09.56-4.62.95-.81.21-1.64.46-2.47.68,0-.03.01-.06.02-.09.19-.98.48-2.06-.07-2.97C6.9-.21,5.82-.06,4.86.17c-.51.12-1,.28-1.5.45-.36.12-.83.4-1.21.4-1.97,0-1.97,3.06,0,3.06.74,0,1.34-.28,2.02-.51.11-.04.23-.07.35-.11-.03.15-.06.3-.1.45-.18.77-.38,1.53-.56,2.3-.38,1.61-.75,3.23-1.06,4.85-.31,1.58-.5,3.19-.83,4.77-.15.71-.26,1.41-.39,2.13-.11.62-.35,1.23-.36,1.86-.01.63.48,1.34,1.12,1.47.77.16,1.65.03,2.52-.16-.02.52-.07,1.04-.13,1.55-.06.26-.14.53-.11.78.03.27.07.53.21.77.1.17.24.3.39.42.39.79,1.26,1.31,2.19,1.31.9.13,1.87-.11,2.57-.7.57-.49.79-1.26.61-1.95.06-.38,0-.79-.21-1.16-.33-.56-.94-.91-1.57-1.01-.29-.05-.58-.07-.88-.06,0-.18.02-.36.02-.54,1.21-.2,2.42-.39,3.63-.52,1.03-.11,2.06-.18,3.1-.26,0,.3-.01.6-.05.91-.04.22-.07.45-.1.67-.04.26-.08.52-.07.79,0,.12,0,.23,0,.35-.03.16-.05.32-.06.48-.28.41-.39.93-.23,1.4.17.5.49.84.91,1.12.47.32,1.08.47,1.65.44.45-.03.96-.1,1.4-.25.62-.21,1.2-.56,1.53-1.15.43-.79.3-1.72-.23-2.41-.45-.58-1.09-.88-1.79-.93.03-.2.06-.4.08-.6.04-.38.04-.76.03-1.15,1.04-.14,2.08-.28,3.13-.32,1.96-.07,1.97-3.13,0-3.06-1.52.06-3,.31-4.5.49-1.52.18-3.07.24-4.59.4-2.39.25-4.74.68-7.11,1.09.03-.19.06-.38.1-.57.38-.1.88-.13,1.23-.23.65-.19,1.3-.38,1.95-.59,1.29-.42,2.56-.89,3.85-1.32,2.53-.85,5.01-1.78,7.51-2.72,1.19-.45,2.4-.89,3.57-1.42,1.13-.52,1.9-.93,1.99-2.31.07-1.17.11-2.34.15-3.51.05-1.26.47-2.59.3-3.82-.11-.81-1.17-1.27-1.88-1.07ZM17.97,9.86c-1.67.62-3.3,1.35-5.01,1.88-1.74.54-3.44,1.16-5.16,1.75-.81.28-1.63.53-2.46.76,0,0-.02,0-.03,0,.02-.13.04-.26.07-.39.37-2.27.88-4.51,1.41-6.75,1.17-.22,2.32-.55,3.47-.85,1.59-.41,3.18-.75,4.8-1.03,2.29-.4,4.66-.74,6.96-1.25-.05.59-.08,1.18-.1,1.77-.03.75.07,1.77-.05,2.6-.5.23-1.12.44-1.57.62-.77.3-1.55.61-2.33.89Z"/></svg>