<?xml version="1.0" encoding="UTF-8"?><svg id="Layer_1" xmlns="http://www.w3.org/2000/svg" viewBox="0 0 26 26"><path d="M1.35,15.97v7.6c0,.16.03.3.06.43-.05.8.43,1.64,1.46,1.64,6.4,0,12.79.38,19.19.37.35,0,.64-.1.87-.27.86.15,1.81-.33,1.75-1.44-.05-.96-.21-1.89-.21-2.86,0-1.12.03-2.24.03-3.36,0-2.25,0-4.49,0-6.74,0-1.41.43-3.53-.8-4.56-.36-.3-.73-.35-1.15-.54-.37-.17-.71-.46-1.04-.69-.84-.58-1.61-1.18-2.37-1.86-.75-.66-1.56-1.26-2.29-1.95-.54-.51-.96-1.14-1.63-1.5-.76-.4-1.56-.31-2.3.08-.88.47-1.75,1.07-2.6,1.6-1.78,1.11-3.53,2.27-5.31,3.38-1.37.85-3.45,1.55-3.65,3.37-.13,1.15,0,2.34,0,3.49,0,1.27,0,2.53,0,3.8ZM13.23,11.37c1.58,0,3.18.08,4.76-.04,1.14-.09,2.32-.25,3.47-.3,0,.26,0,.51,0,.77,0,2.1,0,4.19,0,6.29,0,1.05-.02,2.1-.03,3.15,0,.58.05,1.15.1,1.72-1.14,0-2.27-.02-3.41-.04.02-.6.04-1.19,0-1.79-.04-.84-.19-1.68-.2-2.52,0-.46.07-.92.04-1.38-.07-1.07-.63-2.08-1.84-2.1-.24,0-.48.04-.71.09-.03,0-.18.04-.28.07-.01,0-.03,0-.03,0-.25-.05-.5-.11-.75-.15-.84-.14-1.69-.28-2.53-.38-.81-.1-1.74-.17-2.53.06-.81.23-1.16,1-1.2,1.78-.02.35.03.7.04,1.04,0,1.68,0,3.36,0,5.03-1.24-.03-2.48-.04-3.72-.05,0-3.48,0-6.96,0-10.44,0-.26,0-.53-.01-.79,2.95,0,5.9,0,8.85,0ZM11.16,17.74c.13,0,.27,0,.4.02.08,0,.16.02.25.03.12.02.25.04.37.06.29.05.58.1.87.14.6.09,1.22.27,1.83.33-.01.46,0,.93.05,1.38.06.64.15,1.26.16,1.9,0,.41,0,.83-.02,1.24-1.31-.03-2.61-.07-3.92-.1v-2.95c0-.62,0-1.25,0-1.87,0-.06,0-.12,0-.18ZM12.41,4.23c.35-.2.71-.38,1.04-.6.14-.09.28-.2.42-.3.06-.04.11-.07.16-.09.08.09.15.16.19.2.24.26.5.5.77.74.65.58,1.34,1.11,1.99,1.68.9.79,1.83,1.56,2.81,2.25-.6.06-1.2.13-1.81.18-1.58.12-3.18.04-4.76.04-2.44,0-4.87,0-7.31,0,1.45-.87,2.89-1.77,4.29-2.7.73-.48,1.45-.96,2.2-1.41Z"/></svg>