<?xml version="1.0" encoding="UTF-8"?><svg id="full_logo" xmlns="http://www.w3.org/2000/svg" viewBox="0 0 269 122"><path d="M55.32,54.68c-.64-.07-.99-.11-1.34.15.5.51.8.07,1.34-.15Z"/><path d="M52.23,57.55c-.08.84-.17,1.68-.27,2.51-.55,4.45-1.39,8.87-1.06,13.38,0,1.88.03,3.76-.01,5.63-.02.69.23.78.8.6,1.21-.38,2.41-.78,3.63-1.07.8-.19.88-.51.73-1.27-1.35-6.53-2.3-13.12-3.06-19.74-.03-.22.15-.61-.29-.61-.31,0-.43.25-.46.55Z"/><path d="M50.12,56.59c.5-.23.92-.11,1.03-.7-.41.07-.72.12-1.03.7Z"/><path d="M52.54,55.81c.18-.03.25-.14.23-.33-.06-.09.03-.32-.23-.26-.17.04-.25.16-.24.33,0,.14.01.31.24.27Z"/><path d="M90.34,77.66c.32-.32-6.25-4.39-9.06-6.56-12.1-6.8,6.39-7.94,11.51-8.44,1.14-.58,15.96-.3,13.78-1.66-.36-.17-.78,0-1.14-.17-7.14-.53-14.25-1.35-21.38-2.51-16.23-1.23,6.75-13.07,6.5-13.45-.8-.55-19.53,7.73-15.84.59,7.08-10.94,15.66-20.74,24.13-30.61C102.31,9.95,107.71,5.29,109.96,0c-3.04,1.82-28.55,31.67-41.34,40.01-4.43.78.53-13.84,1-17.26-1.77,2.36-7.94,18.14-10.12,12.88-1.85-4.53-1.57-9.52-2.1-14.27-.59-6.26-1.04-12.52-1.62-18.74-1.2,5.7-2.07,20.71-2.69,26.83-.18,1.59-.3,3.2-.77,4.74-.21.68-.5,1.62-1.16,2.01-1.15.68-2.32-.9-2.89-1.69-1.11-1.54-5.04-8.49-6.99-12.08,1.18,3.39,2.21,6.86,2.9,10.38.3,1.54.56,3.12.56,4.69,0,1-.04,2.27-.74,3.06-1.17.61-2.28-.66-3.23-1.21-8.8-7.1-16.14-15.81-24.31-23.6C-2.6-4.97-5.25-5.18,14.64,16.51c8.12,9.33,16.29,18.84,22.21,29.74,1.01,6.56-17.51-1.16-17.51-1.16,0,0,19.84,9.8,13.59,12.15-9.34,2.39-19.07,2.01-28.43,4.04,4.3,1.93,30.93.23,29.54,6.5-3.13,4.91-9.91,6.28-13.68,9.66,4.78-.26,24.18-9.78,15.01,2.71-11.25,14.11-23.01,27.79-34.34,41.84,8.53-6.25,32.61-33.14,38.28-38.01,10.13-9.02,2.41,12.25,2.22,16.99,2.44-2.42,9.27-24.74,10.88-11.16.93,7.9,3.01,25.67,3.74,29.62,1.11-3.43-.22-37.75,5-33.49,3.22,4.51,5.7,10.3,8.91,14.44-.13-.12-2.87-13.78-2.95-15.75-.02-.58-.09-1.5.36-1.95.47-.47,1.23-.01,1.67.26,1.02.63,1.9,1.48,2.81,2.26,12.93,11.11,24.88,23.95,36.89,36.11-8.63-13.29-22.23-25.33-31.19-39.17-10.78-14.45,5.86-7.36,12.69-4.48ZM66.13,46.49c-3.77.72-7.53,1.43-11.3,2.15-.88.17-1.2-.25-1.14-1.08.08-1.21.83-2.03,2.05-2.19,1.29-.17,2.56-.51,4.22-.33-1.69,1.15-3.82.51-5.14,2.24,1.22.03,2.16-.29,3.12-.46,2.26-.4,4.52-.85,6.79-1.24.67-.11.77-.32.68-1.02-.17-1.29-.8-1.52-1.97-1.46-3.69.19-7.34.48-10.85,1.81-.7.27-.84.48-.58,1.2.77,2.14.74,4.45,1.33,6.64.18.68.36.92,1.14.81,1.4-.19,2.83-.19,4.25-.28.4-.02.82-.02.93.46.14.59-.36.68-.75.83-1.32.52-2.63,1.06-3.96,1.53-.71.25-.89.66-.8,1.37.51,4.11,1.01,8.22,1.73,12.3.46,2.64.81,5.3,1.45,7.91.24.97,0,1.6-1.09,1.87-1.67.42-3.32.93-4.97,1.42-1.02.31-1.49-.15-1.51-1.1-.06-5.52-.41-11.05.58-16.53.3-1.66.41-3.35.64-5.02.09-.68-.1-.8-.73-.59-1.41.48-2.84.91-4.26,1.37-.44.14-.94.38-1.23-.15-.28-.52.18-.84.53-1.14,1.02-.88,2.07-1.72,3.35-2.2,1.27-.47,2.45-1.05,3.5-1.93.25-.21.17-.39.11-.59-.71-2.54-.65-5.25-1.72-7.72-.24-.57-.05-.96.62-1.23,4.47-1.77,9.14-2.24,13.89-2.22.66,0,1.06.21,1.18.95.13.83.38,1.64.62,2.45.19.66-.01,1.03-.68,1.16Z"/><path d="M173.54,36.53c.88.54-5.07.43-5.53.66-2.05.2-9.47.66-4.62,3.39,1.13.87,3.76,2.5,3.64,2.63-2.74-1.15-9.42-4-5.09,1.8,3.59,5.55,9.05,10.39,12.51,15.72-4.82-4.88-9.61-10.03-14.8-14.49-.36-.31-.72-.65-1.13-.9-.18-.11-.48-.29-.67-.1s-.15.55-.15.78c.03.79,1.13,6.27,1.18,6.32-1.29-1.66-2.28-3.98-3.58-5.79-2.09-1.71-1.56,12.06-2.01,13.44-.29-1.58-1.13-8.71-1.5-11.88-.64-5.45-3.38,3.51-4.36,4.48.08-1.9,3.17-10.44-.89-6.82-2.27,1.96-11.94,12.74-15.36,15.25,4.55-5.64,9.27-11.13,13.78-16.79,3.68-5.01-4.11-1.19-6.02-1.09,1.51-1.36,4.23-1.91,5.49-3.88.56-2.52-10.13-1.84-11.85-2.61,3.76-.81,7.66-.66,11.41-1.62,2.51-.94-5.45-4.88-5.45-4.88,0,0,7.43,3.1,7.02.47-2.37-4.38-5.65-8.19-8.91-11.93-7.98-8.7-6.92-8.62.73-.31,3.28,3.13,6.22,6.62,9.75,9.47.38.22.83.73,1.3.49.28-.32.3-.83.3-1.23,0-.63-.1-1.26-.23-1.88-.28-1.41-.69-2.81-1.16-4.17.78,1.44,2.36,4.23,2.8,4.85.23.32.7.95,1.16.68.26-.16.38-.53.47-.81.19-.62.24-1.26.31-1.9.25-2.45.6-8.48,1.08-10.76.23,2.5.41,5.01.65,7.52.21,1.91.1,3.91.84,5.73.88,2.11,3.35-4.22,4.06-5.17-.19,1.37-2.18,7.24-.4,6.92,5.13-3.35,15.37-15.32,16.59-16.05-.9,2.12-3.07,3.99-4.47,5.96-3.4,3.96-6.84,7.89-9.68,12.28-1.48,2.86,6.03-.46,6.35-.24.1.15-9.12,4.9-2.61,5.4,2.86.47,5.72.79,8.58,1.01.15.07.31,0,.46.07Z"/><path d="M246.05,41.13c4.03-.56,8.15-.46,12.12.54,3.2.5,6.13,2.24,7.87,4.95.99,1.65,1.39,3.33,1.44,5.2.03,7.39,0,14.82.01,22.2,0,1.5.25,2.98.54,4.45.16.72.11,1.57-.61,1.96-.5.3-1.12.37-1.7.39-1.6,0-3.21.01-4.81.02-.8-.03-1.67.01-2.37-.43-.57-.36-.92-1.14-1.45-1.61-.65-.65-1.48-.22-2.15.18-1.94,1.18-4.02,1.84-6.17,2.39-5.9,1.34-13.91.36-16.77-5.71-1.89-4.22-1.64-10.05,1.86-13.35,3.17-2.87,7.75-3.53,11.85-4.09,1.53-.19,2.99-.34,4.52-.58,2.36-.34,5.57-.96,6.33-3.54,1.3-6.07-6.47-7.18-10.63-5.34-1.47.68-2.57,1.98-3.03,3.55-.15.43-.39.85-.79,1.07-1.87.8-4.09.27-6.06.42-1.03,0-2.18.14-3.11-.33-1.55-1.14.27-4.39.97-5.73,2.4-4.18,7.5-6.06,12.08-6.56h.08Z"/><path d="M114.23,78.68c-.23-1.17-.52-2.34-.53-3.54-.13-.29-.07-.59-.07-.89,0-7.37,0-14.75,0-22.12,0-.3.05-.6-.05-.89-.09-.64-.14-1.29-.29-1.91-.83-3.52-3.2-5.62-6.44-6.91-1.69-.68-3.47-.97-5.24-1.33-.35-.12-.73.03-1.07-.12-.19-.01-.38-.02-.56-.04-.84-.16-1.69.06-2.53-.13-.65.05-1.31.1-1.96,0-.67.18-1.37-.04-2.04.12-.4.16-.82.23-1.25.21-.39.16-.81-.03-1.2.13-.9.24-1.81.46-2.71.72-2.97.86-5.63,2.17-7.48,4.65,1.97-.51,4.05-1.19,5.69-1.72,2.24-.73,3.34-1.08,3.91-1.08.24,0,.45.06.62.18.09.06.17.14.23.23.13.19.18.45.13.68-.1.45-.25.55-2.12,1.71-4.87,3.03-8,5.4-9.37,7.09.4.13.83-.03,1.22.12.05-.07.1-.07.15,0,.31-.12.64-.06.96-.07,1.72-.04,3.45.07,5.17-.06.85-.14,1.35-.66,1.64-1.45.88-2.42,2.5-3.94,5.17-4.14.28-.14.59,0,.87-.12.24-.01.49-.03.73-.04.49-.11.97-.11,1.46,0,.99.07,1.94.31,2.85.66,1.54.6,2.97,2.77,2.85,4.32-.12,1.45-.77,2.6-2.01,3.38-1.42.9-3.08.95-4.66,1.31-.4.15-.83-.01-1.23.12-.37.07-.72.26-1.11.2-.55.19-1.12-.04-1.67.13-.46.19-.94.22-1.42.2-.02,0-.03,0-.05.01,4.81.64,9.7,1.16,14.66,1.53.11,0,.21.04.31.08,0,0,0,0,0,0,.01,0,.28,0,.28,0,.25,0,.54.02.85.16.03.01.06.03.09.05.74.46.64,1.07.6,1.24-.28,1.05-1.58,1.27-9.29,1.59-2.1.09-4.72.19-5.18.35-.1.05-.16.06-.27.07l-1.12.1c-8.73.79-13.31,1.93-13.63,3.39-.12.57.75,1.74,3.58,3.33.04.02.07.04.1.07,1.14.88,2.91,2.08,4.63,3.24,4.45,3.01,4.72,3.27,4.78,3.88.02.26-.08.54-.26.73-.17.17-.39.26-.61.26-.11,0-.23-.02-.34-.07l-.14-.06c-3.14-1.32-8.73-3.68-12.24-4.1.62,1.97,1.64,3.7,3.39,5,2.32,1.73,5.03,2.36,7.84,2.65,1.03.11,2.07.09,3.1.01.42-.06.82-.28,1.26-.21.33-.16.7.02,1.03-.13,2.52-.61,5-1.32,7.2-2.79,1.03-.68,1.61-.46,2.29.6.37.58.69,1.22,1.46,1.37.34.16.72-.02,1.06.13,1.98,0,3.97-.02,5.95-.02.83,0,1.52-.24,2-.95.08-.38.08-.76,0-1.14Z"/><path d="M140.17,72.83c-.48-.02-.97-.04-1.46-.05-.38-.14-.8.05-1.17-.12-2.04-.13-3.07-1.37-3.09-3.7-.12-.29-.06-.59-.06-.88,0-2.96,0-5.91,0-8.87-1.06,1.01-1.98,1.83-2.68,2.34-.15.11-.33.16-.5.16-.23,0-.45-.09-.62-.26-.3-.31-.32-.79-.05-1.12,1.27-1.57,2.56-3.14,3.84-4.69,0-1.11,0-2.22,0-3.33,0-.3.05-.6-.05-.89-.12-1.37.67-2.73,2.19-2.47.29-.11.58-.05.88-.06.86-.03,1.73.02,2.59,0,.76-.92,1.51-1.84,2.27-2.77,0-.52-.04-1.03-.07-1.55-.01-.26-.03-.51-.04-.77-.15-.22,0-.51-.1-.74-.14.04-.27.08-.4.12-1.08.34-2.02.63-2.63.67-.02,0-.03,0-.05,0-.34,0-.65-.21-.79-.53-.14-.33-.05-.72.22-.96.2-.18.41-.34.64-.49-.79.01-1.57.05-2.36-.07-1.42.02-2.02-.37-2.21-1.45-.19-.71.03-1.44-.13-2.15-.05-.18-.06-.35-.05-.53-.96-.09-1.61-.19-2.03-.38-.34-.15-.54-.5-.5-.87.04-.37.31-.67.67-.74.65-.14,1.31-.25,1.96-.34.02-1.17.01-2.34-.04-3.51-.19-.67-.46-1.3-1.22-1.45-.55-.11-1.13-.16-1.69-.17-1.87-.02-3.74-.01-5.62-.02-.25.19-.56,0-.82.14-.55.23-1.09.47-1.17,1.17-.13,1.05-.03,2.1-.06,3.15-.05,1.48.09,2.96-.07,4.44-.07,1.64-.27,2.48-1.56,2.71-.51.17-1.05-.02-1.56.12-.3.01-.6.04-.89.03-1.8-.02-2.14.25-2.4,1.96-.09,1.09-.09,2.18,0,3.26.12,1.29.43,1.6,1.82,1.83.54.08,1.09.09,1.63,0,1.58-.07,2.55.36,2.95,1.76.13.2.08.42.08.64,0,6.36,0,12.71,0,19.07,0,.22.03.44-.07.64,0,.32,0,.65,0,.97.17.45-.02.94.13,1.4,0,.05.02.1.03.16.2.37-.02.78.14,1.15.53,1.64,1.2,3.17,2.66,4.24,1.66,1.21,3.52,1.8,5.53,1.99.45.16.94-.04,1.39.13.08.01.16.02.24.03,1.36.1,2.72.11,4.08,0,.28-.12.55-.04.82.01.27.08.54.09.81,0,.09-.06.17-.15.27-.16,1.92-.32,2.24-.67,2.38-2.63.08-1.36.09-2.72,0-4.08-.23-1.09-1.02-1.4-2-1.45Z"/><path d="M226.82,77.45s-.05-.03-.05-.04c0-.04.03-.08.05-.11-.13-.32-.07-.64-.07-.97,0-7.57,0-15.15,0-22.72,0-.3.05-.6-.06-.89-.01-.14-.02-.27-.04-.41-.15-.34.02-.72-.13-1.06-.38-.91-.42-1.91-.83-2.81-1.49-3.28-3.69-5.74-7.31-6.73-1.05-.29-2.12-.47-3.16-.77-.34-.16-.72.02-1.06-.14-.77,0-1.53,0-2.3,0-.39.16-.82-.02-1.22.12-.1.01-.2.02-.3.04-.26.17-.58-.02-.84.14-2.87.84-5.46,2.15-7.46,4.44-.2.23-.44.36-.71.47-.28.14-.56.11-.85,0-.57-.2-.94-.66-1.27-1.1-.87-1.18-2.01-2-3.29-2.67-1.34-.7-2.79-1-4.24-1.33-.56-.15-1.15.05-1.71-.12-.27.09-.54.09-.81,0-.51.17-1.05-.03-1.56.12-.78.23-1.62.16-2.37.41-2.29.75-4.42,1.82-6.11,3.6-.34.35-.76.56-1.22.4-.4-.14-.53-.54-.61-.97-.21-1.02-.31-2.15-1.62-2.46-2.34-.1-4.68-.09-7.03,0-.38.12-.78.22-1.04.47.2.2.27.36.29.58.02.25-.07.52-.25.7-.12.12-.27.18-.43.22,0,.04-.01.07-.03.11.01.13.04.27.04.4,0,1.97,0,3.95,0,5.92.59.68,1.18,1.36,1.76,2.03,2.19,2.5,4.45,5.09,6.19,7.77.24.37.16.85-.18,1.13-.16.13-.35.19-.53.19-.22,0-.44-.09-.61-.25-1.03-1.04-2.05-2.09-3.08-3.14-1.17-1.2-2.36-2.42-3.56-3.63,0,7.3,0,14.61-.01,21.91,0,.7-.02,1.41-.03,2.11.17.4-.03.84.14,1.24.29.82.84,1.2,1.74,1.11.51-.05,1.03.04,1.54.06,1.31.08,2.61.08,3.92,0,2.75-.14,3.29-.07,3.27-3.49-.03-5.65.02-11.31.03-16.96.15-1.05-.06-2.11.12-3.16.01-.15.03-.29.04-.44.13-.28-.02-.6.12-.88-.02-.77.22-1.49.52-2.17,1.04-2.42,2.84-3.92,5.49-4.32.85-.1,1.69-.12,2.54.01.09.05.17.12.27.14,1.44.36,2.72.98,3.54,2.29.47.74.7,1.57.92,2.41.13.28,0,.6.12.89.04.29.13.59.04.89.13.31.07.64.07.97,0,6.71,0,13.41,0,20.12,0,.3-.05.6.05.89.03.4.1.8.09,1.2-.03.96.56,1.55,1.52,1.53.56-.01,1.13.05,1.69.07,1.42.09,2.83.08,4.25,0,1.09-.11,2.27.02,2.91-1.18.22-.26.11-.58.11-.86,0-5.46,0-10.91,0-16.37,0-.32-.06-.65.07-.97-.12-.85,0-1.69.04-2.53.15-.57-.05-1.16.12-1.72l.04-.56c.13-.34-.02-.72.12-1.07.23-2.71,1.87-5.52,5.01-6.14.34-.14.71.01,1.05-.12.08-.02.16-.03.24-.05.48-.09.97-.11,1.45,0l.06-.02.05.04c.32.18.69-.04,1.01.14,1.76.66,3.16,1.65,3.81,3.55.59,1.72.8,3.45.75,5.25.14.29.07.59.07.88,0,6.44,0,12.88,0,19.33,0,.3-.05.6.05.89.12.67.38,1.23,1.17,1.32.28.15.6-.02.87.13.36.02.73.03,1.09.05,1.36.09,2.72.08,4.08,0,.24-.01.49-.02.73-.03,1.72-.07,2.11-.24,2.56-1.8.16-.51-.05-1.05.13-1.56Z"/><path d="M158.32,52.79s-.07-.06-.1-.1c-.72-.93-1.35-2.05-1.96-3.13-.39-.69-.78-1.39-1.2-2.05-.46,1.66-.59,6.12-.66,8.43-.07,2.43-.11,3.62-.28,4.13-.11.35-.44.59-.81.59-.02,0-.04,0-.06,0-.39-.03-.71-.31-.78-.69-.28-1.5-.99-7.57-1.42-11.2l-.09-.74c-.03-.22-.05-.39-.08-.54-.46.74-1.07,2.08-1.43,2.9-.64,1.42-1.02,2.25-1.41,2.63-.08.08-.18.14-.28.18,0,8.09,0,16.17,0,24.26,0,.27-.02.54-.04.81.17.39-.03.83.14,1.22.22.64.52,1.19,1.32,1.17.62.11,1.24.03,1.86.05,1.48.05,2.97-.09,4.45.07,1.06.01,2.06-.14,2.7-1.13.16-.34-.02-.72.14-1.06,0-.35-.01-.7-.01-1.05,0-8.25,0-16.5,0-24.75Z"/></svg>