<?xml version="1.0" encoding="UTF-8"?><svg id="full_logo" xmlns="http://www.w3.org/2000/svg" viewBox="0 0 168 76"><path d="M34.67,34.06c-.4-.04-.62-.07-.84.09.31.32.5.04.84-.09Z"/><path d="M32.75,35.85c-.05.52-.11,1.05-.17,1.57-.34,2.77-.87,5.52-.66,8.34,0,1.17.02,2.34,0,3.51,0,.43.14.49.5.37.75-.23,1.5-.49,2.26-.67.5-.12.55-.32.45-.79-.84-4.07-1.43-8.17-1.91-12.3-.02-.14.09-.38-.18-.38-.19,0-.27.15-.29.34Z"/><path d="M31.44,35.25c.31-.14.57-.07.64-.44-.25.05-.45.08-.64.44Z"/><path d="M32.94,34.77c.11-.02.15-.09.14-.21-.04-.05.02-.2-.14-.16-.1.02-.16.1-.15.2,0,.09,0,.2.15.17Z"/><path d="M56.49,48.38c.2-.2-3.89-2.73-5.65-4.08-7.54-4.24,3.98-4.95,7.17-5.26.71-.36,9.94-.19,8.58-1.03-.23-.11-.49,0-.71-.1-4.45-.33-8.88-.84-13.32-1.57-10.11-.77,4.21-8.14,4.05-8.38-.5-.34-12.17,4.81-9.87.37,4.41-6.82,9.76-12.92,15.03-19.07C63.95,6.2,67.31,3.29,68.71,0c-1.89,1.13-17.78,19.73-25.75,24.92-2.76.48.33-8.62.62-10.75-1.1,1.47-4.94,11.3-6.31,8.02-1.15-2.82-.98-5.93-1.31-8.89-.37-3.9-.65-7.8-1.01-11.68-.75,3.55-1.29,12.9-1.68,16.71-.11.99-.19,1.99-.48,2.95-.13.42-.31,1.01-.72,1.25-.72.43-1.45-.56-1.8-1.05-.69-.96-3.14-5.29-4.35-7.52.73,2.11,1.37,4.27,1.81,6.47.19.96.35,1.94.35,2.92,0,.62-.02,1.42-.46,1.91-.73.38-1.42-.41-2.01-.76-5.48-4.43-10.05-9.85-15.14-14.7C-1.41-3.1-3.06-3.23,9.33,10.29c5.06,5.81,10.15,11.73,13.84,18.53.63,4.09-10.91-.72-10.91-.72,0,0,12.36,6.11,8.47,7.57-5.82,1.49-11.88,1.26-17.71,2.51,2.68,1.2,19.27.14,18.4,4.05-1.95,3.06-6.17,3.91-8.52,6.02,2.98-.16,15.06-6.09,9.35,1.69-7.01,8.79-14.33,17.31-21.39,26.07,5.31-3.9,20.32-20.64,23.85-23.68,6.31-5.62,1.5,7.63,1.38,10.58,1.52-1.51,5.78-15.41,6.77-6.95.58,4.92,1.87,15.99,2.33,18.45.69-2.14-.14-23.52,3.11-20.86,2.01,2.81,3.55,6.41,5.55,8.99-.08-.07-1.79-8.59-1.84-9.81-.01-.36-.06-.93.23-1.21.29-.29.76,0,1.04.16.64.4,1.18.92,1.75,1.4,8.06,6.92,15.5,14.92,22.98,22.49-5.37-8.28-13.85-15.78-19.43-24.4-6.72-9,3.65-4.58,7.9-2.79ZM41.41,28.96c-2.35.45-4.69.89-7.04,1.34-.55.1-.75-.16-.71-.67.05-.76.52-1.27,1.28-1.37.8-.11,1.59-.32,2.63-.2-1.05.72-2.38.32-3.2,1.4.76.02,1.35-.18,1.94-.29,1.41-.25,2.82-.53,4.23-.77.42-.07.48-.2.42-.64-.11-.8-.5-.95-1.23-.91-2.3.12-4.58.3-6.76,1.13-.44.17-.53.3-.36.75.48,1.33.46,2.77.83,4.14.11.42.23.57.71.51.87-.12,1.76-.12,2.65-.17.25-.01.51-.01.58.29.09.36-.23.42-.46.52-.82.32-1.64.66-2.47.95-.45.16-.56.41-.5.86.32,2.56.63,5.12,1.08,7.66.29,1.65.5,3.3.9,4.93.15.6,0,1-.68,1.17-1.04.26-2.07.58-3.09.89-.63.19-.93-.09-.94-.69-.04-3.44-.26-6.88.36-10.3.19-1.03.25-2.09.4-3.13.06-.43-.06-.5-.46-.36-.88.3-1.77.57-2.66.85-.27.09-.59.24-.76-.09-.17-.32.11-.52.33-.71.64-.55,1.29-1.07,2.09-1.37.79-.29,1.53-.66,2.18-1.2.16-.13.1-.24.07-.37-.44-1.58-.41-3.27-1.07-4.81-.15-.35-.03-.6.38-.76,2.78-1.1,5.69-1.4,8.65-1.38.41,0,.66.13.74.59.08.52.24,1.02.38,1.52.12.41,0,.64-.43.72Z"/><path d="M108.32,22.75c.55.34-3.16.27-3.44.41-1.28.12-5.9.41-2.88,2.11.7.54,2.34,1.56,2.27,1.64-1.71-.72-5.87-2.49-3.17,1.12,2.24,3.46,5.64,6.47,7.8,9.79-3-3.04-5.99-6.25-9.22-9.03-.23-.19-.45-.4-.7-.56-.11-.07-.3-.18-.42-.07s-.1.34-.09.49c.02.49.71,3.91.74,3.94-.8-1.03-1.42-2.48-2.23-3.61-1.3-1.07-.97,7.51-1.25,8.37-.18-.99-.7-5.43-.93-7.4-.4-3.4-2.11,2.18-2.72,2.79.05-1.18,1.98-6.5-.55-4.25-1.42,1.22-7.44,7.94-9.57,9.5,2.83-3.51,5.77-6.93,8.58-10.46,2.29-3.12-2.56-.74-3.75-.68.94-.85,2.64-1.19,3.42-2.41.35-1.57-6.31-1.14-7.38-1.62,2.34-.51,4.77-.41,7.11-1.01,1.56-.59-3.4-3.04-3.4-3.04,0,0,4.63,1.93,4.38.29-1.48-2.73-3.52-5.1-5.55-7.43-4.97-5.42-4.31-5.37.45-.19,2.04,1.95,3.88,4.12,6.08,5.9.24.14.52.46.81.3.18-.2.19-.52.19-.77,0-.39-.06-.79-.14-1.17-.17-.88-.43-1.75-.72-2.6.49.9,1.47,2.63,1.75,3.02.14.2.43.59.72.42.16-.1.24-.33.29-.5.12-.39.15-.79.19-1.19.16-1.53.37-5.28.67-6.7.14,1.55.26,3.12.4,4.68.13,1.19.06,2.44.52,3.57.55,1.32,2.09-2.63,2.53-3.22-.12.85-1.36,4.51-.25,4.31,3.2-2.08,9.57-9.55,10.33-10-.56,1.32-1.91,2.49-2.78,3.71-2.12,2.47-4.26,4.92-6.03,7.65-.92,1.78,3.76-.29,3.96-.15.06.09-5.68,3.05-1.62,3.36,1.78.29,3.56.49,5.34.63.09.04.19,0,.29.04Z"/><path d="M153.49,25.62c2.51-.35,5.08-.29,7.55.34,1.99.31,3.82,1.39,4.9,3.08.62,1.03.86,2.07.9,3.24.02,4.6,0,9.23,0,13.83,0,.93.15,1.86.34,2.77.1.45.07.98-.38,1.22-.31.19-.7.23-1.06.24-1,0-2,0-2.99.01-.5-.02-1.04,0-1.48-.27-.36-.22-.57-.71-.9-1-.41-.41-.92-.14-1.34.11-1.21.74-2.5,1.15-3.84,1.49-3.68.83-8.67.22-10.45-3.56-1.18-2.63-1.02-6.26,1.16-8.32,1.98-1.79,4.83-2.2,7.38-2.55.95-.12,1.86-.21,2.81-.36,1.47-.21,3.47-.6,3.94-2.2.81-3.78-4.03-4.47-6.62-3.33-.92.43-1.6,1.23-1.89,2.21-.09.27-.24.53-.49.67-1.16.5-2.55.17-3.77.26-.64,0-1.36.09-1.94-.21-.97-.71.17-2.74.6-3.57,1.49-2.6,4.67-3.78,7.52-4.09h.05Z"/><path d="M71.37,49.02c-.14-.73-.32-1.46-.33-2.21-.08-.18-.04-.37-.04-.55,0-4.59,0-9.19,0-13.78,0-.19.03-.37-.03-.56-.06-.4-.09-.8-.18-1.19-.52-2.19-1.99-3.5-4.01-4.31-1.05-.42-2.16-.61-3.26-.83-.22-.08-.45.02-.67-.08-.12,0-.23-.02-.35-.02-.52-.1-1.06.04-1.58-.08-.41.03-.82.06-1.22,0-.42.11-.85-.02-1.27.08-.25.1-.51.14-.78.13-.24.1-.51-.02-.75.08-.56.15-1.13.29-1.69.45-1.85.54-3.51,1.35-4.66,2.89,1.23-.32,2.53-.74,3.54-1.07,1.39-.45,2.08-.67,2.44-.67.15,0,.28.04.39.11.06.04.1.09.14.14.08.12.11.28.08.42-.06.28-.16.34-1.32,1.07-3.03,1.89-4.98,3.36-5.84,4.42.25.08.51-.02.76.07.03-.05.06-.04.1,0,.19-.08.4-.04.6-.04,1.07-.02,2.15.04,3.22-.04.53-.09.84-.41,1.02-.9.55-1.51,1.56-2.45,3.22-2.58.17-.09.37,0,.54-.07.15,0,.3-.02.46-.03.3-.07.61-.07.91,0,.61.04,1.21.19,1.78.41.96.37,1.85,1.72,1.77,2.69-.07.9-.48,1.62-1.25,2.11-.88.56-1.92.59-2.9.82-.25.09-.51,0-.76.07-.23.04-.45.16-.69.13-.34.12-.7-.02-1.04.08-.28.12-.58.14-.89.13-.01,0-.02,0-.03,0,2.99.4,6.04.72,9.13.95.07,0,.13.02.19.05,0,0,0,0,0,0,0,0,.17,0,.17,0,.15,0,.34.01.53.1.02,0,.04.02.05.03.46.28.4.66.37.77-.17.65-.98.79-5.79.99-1.31.05-2.94.12-3.23.22-.06.03-.1.04-.17.04l-.7.06c-5.44.49-8.29,1.2-8.49,2.11-.08.35.47,1.09,2.23,2.08.02.01.04.03.06.04.71.55,1.82,1.3,2.88,2.02,2.77,1.88,2.94,2.04,2.98,2.42.02.16-.05.34-.16.45-.1.1-.24.16-.38.16-.07,0-.14-.01-.21-.04l-.09-.04c-1.96-.83-5.44-2.29-7.62-2.55.38,1.22,1.02,2.3,2.11,3.11,1.45,1.08,3.13,1.47,4.88,1.65.64.07,1.29.06,1.93,0,.26-.03.51-.17.79-.13.2-.1.44.01.64-.08,1.57-.38,3.11-.83,4.49-1.74.64-.43,1-.29,1.43.37.23.36.43.76.91.85.21.1.45-.01.66.08,1.24,0,2.47-.01,3.71-.01.51,0,.95-.15,1.25-.59.05-.24.05-.47,0-.71Z"/><path d="M87.53,45.37c-.3-.01-.6-.02-.91-.03-.24-.09-.5.03-.73-.08-1.27-.08-1.91-.85-1.93-2.3-.08-.18-.04-.37-.04-.55,0-1.84,0-3.68,0-5.52-.66.63-1.23,1.14-1.67,1.46-.09.07-.2.1-.31.1-.14,0-.28-.06-.38-.16-.18-.19-.2-.49-.03-.7.79-.98,1.59-1.95,2.39-2.92,0-.69,0-1.38,0-2.07,0-.18.03-.37-.03-.55-.08-.86.42-1.7,1.36-1.54.18-.07.36-.03.55-.04.54-.02,1.08.01,1.61,0,.47-.57.94-1.15,1.41-1.72,0-.32-.03-.64-.04-.97,0-.16-.02-.32-.03-.48-.09-.14,0-.32-.06-.46-.08.03-.17.05-.25.08-.68.21-1.26.39-1.64.41,0,0-.02,0-.03,0-.21,0-.41-.13-.49-.33-.09-.21-.03-.45.14-.6.12-.11.26-.21.4-.31-.49,0-.98.03-1.47-.04-.89.01-1.26-.23-1.38-.9-.12-.44.02-.9-.08-1.34-.03-.11-.04-.22-.03-.33-.6-.05-1.01-.12-1.27-.24-.21-.09-.33-.31-.31-.54.02-.23.19-.41.42-.46.41-.09.81-.15,1.22-.21.01-.73,0-1.46-.03-2.18-.12-.41-.28-.81-.76-.9-.34-.07-.7-.1-1.05-.1-1.17-.01-2.33,0-3.5-.01-.16.12-.35,0-.51.09-.34.14-.68.29-.73.73-.08.65-.02,1.31-.04,1.96-.03.92.05,1.85-.04,2.77-.05,1.02-.17,1.54-.97,1.69-.32.1-.65-.01-.97.08-.19,0-.37.02-.56.02-1.12-.02-1.33.16-1.49,1.22-.06.68-.06,1.35,0,2.03.07.8.27,1,1.14,1.14.34.05.68.06,1.02,0,.98-.04,1.59.22,1.84,1.1.08.12.05.26.05.4,0,3.96,0,7.92,0,11.88,0,.13.02.27-.04.4,0,.2,0,.4,0,.6.11.28-.01.59.08.87,0,.03.01.06.02.1.12.23-.02.49.09.72.33,1.02.75,1.98,1.66,2.64,1.03.76,2.19,1.12,3.45,1.24.28.1.58-.02.87.08.05,0,.1.01.15.02.85.06,1.7.07,2.54,0,.17-.07.34-.03.51,0,.17.05.34.06.51,0,.06-.04.11-.09.17-.1,1.2-.2,1.39-.42,1.48-1.64.05-.85.06-1.69,0-2.54-.14-.68-.64-.87-1.25-.9Z"/><path d="M141.51,48.25s-.03-.02-.03-.03c0-.02.02-.05.03-.07-.08-.2-.04-.4-.04-.6,0-4.72,0-9.44,0-14.16,0-.18.03-.37-.03-.55,0-.08-.02-.17-.02-.25-.09-.21.01-.45-.08-.66-.23-.56-.26-1.19-.52-1.75-.93-2.04-2.3-3.57-4.55-4.19-.65-.18-1.32-.3-1.97-.48-.21-.1-.45.01-.66-.08-.48,0-.95,0-1.43,0-.25.1-.51-.01-.76.08-.06,0-.13.01-.19.02-.16.11-.36-.01-.52.09-1.79.52-3.4,1.34-4.65,2.77-.12.14-.28.22-.44.29-.18.09-.35.07-.53,0-.35-.12-.59-.41-.79-.68-.54-.74-1.25-1.24-2.05-1.66-.83-.44-1.74-.62-2.64-.83-.35-.1-.72.03-1.07-.08-.17.06-.34.05-.51,0-.32.1-.65-.02-.97.08-.48.15-1.01.1-1.48.25-1.43.47-2.75,1.14-3.81,2.24-.21.22-.47.35-.76.25-.25-.09-.33-.34-.38-.6-.13-.64-.19-1.34-1.01-1.53-1.46-.06-2.92-.06-4.38,0-.24.08-.49.14-.65.3.12.13.17.23.18.36.02.16-.04.32-.15.43-.07.08-.17.11-.27.14,0,.02,0,.05-.02.07,0,.08.03.17.03.25,0,1.23,0,2.46,0,3.69.36.43.73.85,1.1,1.26,1.36,1.56,2.77,3.17,3.86,4.84.15.23.1.53-.11.7-.1.08-.22.12-.33.12-.14,0-.27-.05-.38-.16-.64-.65-1.28-1.3-1.92-1.96-.73-.75-1.47-1.51-2.22-2.26,0,4.55,0,9.1,0,13.65,0,.44-.01.88-.02,1.32.11.25-.02.52.09.77.18.51.53.74,1.09.69.32-.03.64.02.96.04.81.05,1.63.05,2.44,0,1.71-.09,2.05-.04,2.04-2.17-.02-3.52,0-7.04.02-10.56.1-.65-.04-1.31.07-1.97,0-.09.02-.18.02-.27.08-.17,0-.37.08-.55-.02-.48.14-.93.32-1.35.65-1.51,1.77-2.44,3.42-2.69.53-.06,1.06-.07,1.58,0,.06.03.11.07.17.09.9.23,1.69.61,2.21,1.43.29.46.44.98.57,1.5.08.18,0,.37.07.55.03.18.08.37.03.55.08.2.04.4.04.6,0,4.18,0,8.36,0,12.53,0,.18-.03.37.03.55.02.25.06.5.05.75-.02.6.35.96.95.95.35,0,.7.03,1.05.05.88.05,1.76.05,2.65,0,.68-.07,1.41.01,1.81-.74.14-.16.07-.36.07-.54,0-3.4,0-6.8,0-10.2,0-.2-.04-.41.04-.6-.08-.53,0-1.05.03-1.58.09-.35-.03-.72.08-1.07l.02-.35c.08-.21-.01-.45.08-.66.15-1.69,1.17-3.44,3.12-3.82.21-.09.44,0,.65-.07.05,0,.1-.02.15-.03.3-.06.6-.07.9,0h.04s.03.02.03.02c.2.11.43-.02.63.09,1.09.41,1.97,1.03,2.37,2.21.37,1.07.5,2.15.46,3.27.09.18.04.37.04.55,0,4.01,0,8.03,0,12.04,0,.18-.03.37.03.55.08.42.24.77.73.82.17.09.37,0,.54.08.23,0,.45.02.68.03.85.05,1.7.05,2.54,0,.15,0,.3-.01.45-.02,1.07-.04,1.32-.15,1.6-1.12.1-.32-.03-.65.08-.97Z"/><path d="M98.84,32.89s-.04-.04-.06-.06c-.45-.58-.84-1.28-1.22-1.95-.24-.43-.49-.87-.75-1.27-.29,1.03-.37,3.82-.41,5.25-.04,1.52-.07,2.26-.17,2.58-.07.22-.28.37-.5.37-.01,0-.02,0-.03,0-.24-.02-.44-.19-.49-.43-.17-.93-.62-4.71-.89-6.97l-.05-.46c-.02-.13-.03-.25-.05-.34-.29.46-.66,1.3-.89,1.8-.4.89-.64,1.4-.88,1.64-.05.05-.11.09-.18.11,0,5.04,0,10.08,0,15.11,0,.17-.02.34-.02.5.1.25-.02.52.09.76.14.4.32.74.82.73.38.07.77.02,1.16.03.92.03,1.85-.06,2.77.05.66,0,1.28-.09,1.68-.71.1-.21-.01-.45.08-.66,0-.22,0-.44,0-.66,0-5.14,0-10.28,0-15.42Z"/></svg>