<?xml version="1.0" encoding="UTF-8"?><svg id="Layer_1" xmlns="http://www.w3.org/2000/svg" viewBox="0 0 16 16"><defs><style>.cls-1{fill:#010101;}.cls-2{fill:#fff;}</style></defs><rect class="cls-2" y="0" width="16" height="16" rx="2.17" ry="2.17"/><path class="cls-1" d="M12.79,8c.2.13-1.18.1-1.29.15-.48.05-2.21.15-1.08.79.26.2.88.58.85.61-.64-.27-2.19-.93-1.19.42.84,1.29,2.11,2.42,2.92,3.66-1.12-1.14-2.24-2.34-3.45-3.38-.08-.07-.17-.15-.26-.21-.04-.03-.11-.07-.16-.02s-.04.13-.03.18c0,.18.26,1.46.28,1.47-.3-.39-.53-.93-.83-1.35-.49-.4-.36,2.81-.47,3.13-.07-.37-.26-2.03-.35-2.77-.15-1.27-.79.82-1.02,1.04.02-.44.74-2.43-.21-1.59-.53.46-2.78,2.97-3.58,3.55,1.06-1.31,2.16-2.59,3.21-3.91.86-1.17-.96-.28-1.4-.25.35-.32.99-.44,1.28-.9.13-.59-2.36-.43-2.76-.61.88-.19,1.78-.15,2.66-.38.58-.22-1.27-1.14-1.27-1.14,0,0,1.73.72,1.64.11-.55-1.02-1.32-1.91-2.08-2.78-1.86-2.03-1.61-2.01.17-.07.76.73,1.45,1.54,2.27,2.21.09.05.19.17.3.11.07-.07.07-.19.07-.29,0-.15-.02-.29-.05-.44-.06-.33-.16-.65-.27-.97.18.34.55.99.65,1.13.05.07.16.22.27.16.06-.04.09-.12.11-.19.04-.14.06-.29.07-.44.06-.57.14-1.98.25-2.51.05.58.1,1.17.15,1.75.05.44.02.91.2,1.33.2.49.78-.98.95-1.2-.04.32-.51,1.69-.09,1.61,1.2-.78,3.58-3.57,3.87-3.74-.21.49-.71.93-1.04,1.39-.79.92-1.59,1.84-2.26,2.86-.35.67,1.41-.11,1.48-.06.02.04-2.13,1.14-.61,1.26.67.11,1.33.19,2,.24.03.02.07,0,.11.02Z"/></svg>