<?xml version="1.0" encoding="UTF-8"?><svg id="full_logo" xmlns="http://www.w3.org/2000/svg" viewBox="0 0 400 182"><path d="M81.87,81.57c-.95-.1-1.48-.17-2,.22.75.76,1.19.1,2-.22Z"/><path d="M77.27,85.85c-.12,1.25-.25,2.5-.41,3.75-.82,6.63-2.08,13.23-1.58,19.96,0,2.8.04,5.61-.02,8.41-.02,1.02.34,1.17,1.2.9,1.8-.56,3.59-1.17,5.42-1.6,1.19-.28,1.32-.76,1.08-1.89-2.01-9.74-3.43-19.58-4.57-29.45-.04-.33.22-.91-.43-.91-.47,0-.65.37-.69.82Z"/><path d="M74.13,84.42c.75-.34,1.37-.16,1.54-1.04-.61.11-1.07.18-1.54,1.04Z"/><path d="M77.73,83.26c.26-.05.37-.21.34-.5-.09-.13.04-.48-.34-.39-.25.06-.37.24-.36.49,0,.21.02.47.36.4Z"/><path d="M134.12,115.85c.47-.48-9.32-6.54-13.52-9.78-18.05-10.15,9.53-11.85,17.17-12.59,1.7-.86,23.81-.45,20.55-2.47-.54-.26-1.16.01-1.7-.25-10.65-.8-21.26-2.02-31.9-3.75-24.22-1.84,10.07-19.5,9.69-20.06-1.2-.82-29.13,11.53-23.63.88,10.56-16.32,23.36-30.94,36-45.66,5.2-7.31,13.25-14.27,16.61-22.16-4.53,2.71-42.59,47.24-61.67,59.68-6.61,1.16.79-20.65,1.5-25.75-2.64,3.53-11.84,27.06-15.1,19.21-2.76-6.76-2.34-14.2-3.13-21.29-.88-9.34-1.56-18.68-2.41-27.96-1.79,8.5-3.08,30.9-4.01,40.02-.26,2.38-.45,4.77-1.14,7.07-.31,1.02-.75,2.42-1.73,3-1.72,1.02-3.46-1.34-4.31-2.52-1.66-2.29-7.52-12.66-10.43-18.02,1.76,5.06,3.29,10.23,4.32,15.49.45,2.3.83,4.65.84,7,0,1.49-.05,3.39-1.11,4.57-1.74.91-3.4-.99-4.82-1.81-13.13-10.6-24.07-23.59-36.26-35.21C-4.53-7.42-8.48-7.73,21.19,24.63c12.12,13.92,24.31,28.1,33.14,44.37,1.51,9.79-26.12-1.73-26.12-1.73,0,0,29.6,14.63,20.28,18.13-13.93,3.56-28.45,3.01-42.41,6.02,6.42,2.87,46.14.34,44.06,9.7-4.67,7.32-14.78,9.37-20.41,14.41,7.13-.39,36.07-14.59,22.4,4.05-16.78,21.05-34.33,41.46-51.23,62.42,12.72-9.33,48.65-49.44,57.11-56.71,15.11-13.46,3.59,18.28,3.31,25.35,3.65-3.61,13.83-36.91,16.22-16.64,1.39,11.79,4.49,38.3,5.58,44.19,1.66-5.11-.33-56.32,7.46-49.96,4.81,6.73,8.5,15.36,13.29,21.53-.19-.18-4.29-20.56-4.41-23.5-.03-.86-.13-2.23.54-2.91.69-.7,1.83-.02,2.49.39,1.52.95,2.83,2.2,4.19,3.36,19.29,16.58,37.11,35.72,55.03,53.87-12.87-19.82-33.16-37.78-46.53-58.43-16.08-21.55,8.75-10.98,18.92-6.68ZM98,69.35c-5.62,1.07-11.23,2.14-16.85,3.21-1.32.25-1.79-.38-1.7-1.62.12-1.81,1.24-3.03,3.06-3.27,1.92-.25,3.81-.77,6.29-.48-2.52,1.72-5.7.76-7.67,3.35,1.83.04,3.23-.43,4.65-.69,3.38-.6,6.74-1.27,10.12-1.85,1-.17,1.15-.48,1.01-1.53-.25-1.93-1.19-2.27-2.95-2.18-5.5.28-10.96.72-16.18,2.7-1.05.4-1.26.71-.87,1.79,1.15,3.19,1.1,6.64,1.98,9.9.27,1.01.54,1.37,1.7,1.21,2.09-.28,4.22-.29,6.34-.41.59-.03,1.22-.03,1.38.69.21.87-.54,1.01-1.11,1.24-1.96.77-3.92,1.58-5.91,2.28-1.07.37-1.33.98-1.2,2.05.77,6.13,1.51,12.26,2.58,18.34.69,3.94,1.2,7.91,2.17,11.8.36,1.44-.01,2.39-1.62,2.79-2.49.62-4.95,1.39-7.41,2.12-1.52.46-2.23-.22-2.25-1.65-.09-8.23-.61-16.48.86-24.66.44-2.47.6-4.99.95-7.49.14-1.02-.15-1.2-1.09-.87-2.11.72-4.24,1.36-6.36,2.04-.66.21-1.41.57-1.83-.22-.42-.77.27-1.25.79-1.69,1.52-1.31,3.1-2.57,5-3.28,1.89-.7,3.66-1.57,5.22-2.87.37-.31.25-.58.16-.88-1.06-3.79-.97-7.83-2.56-11.52-.37-.85-.07-1.44.92-1.83,6.67-2.63,13.63-3.34,20.72-3.32.98,0,1.59.32,1.76,1.42.2,1.23.57,2.45.92,3.65.29.98-.02,1.53-1.02,1.72Z"/><path d="M258.24,54.49c1.31.81-7.56.65-8.25.99-3.06.3-14.13.98-6.89,5.05,1.69,1.3,5.61,3.73,5.43,3.92-4.08-1.72-14.05-5.97-7.59,2.68,5.36,8.29,13.5,15.49,18.67,23.44-7.19-7.28-14.34-14.96-22.08-21.61-.54-.47-1.07-.97-1.68-1.35-.26-.16-.72-.44-1-.16s-.23.82-.22,1.17c.05,1.18,1.69,9.36,1.77,9.43-1.92-2.48-3.4-5.94-5.33-8.64-3.12-2.55-2.33,17.99-2.99,20.04-.44-2.36-1.68-13-2.24-17.73-.96-8.13-5.05,5.23-6.51,6.68.11-2.84,4.74-15.57-1.33-10.17-3.39,2.92-17.81,19.01-22.91,22.75,6.78-8.41,13.82-16.6,20.56-25.05,5.49-7.48-6.13-1.78-8.99-1.62,2.26-2.03,6.31-2.85,8.19-5.78.83-3.75-15.11-2.74-17.68-3.89,5.6-1.21,11.43-.99,17.02-2.42,3.74-1.41-8.14-7.27-8.14-7.27,0,0,11.09,4.62,10.48.7-3.54-6.53-8.43-12.22-13.3-17.8-11.91-12.98-10.32-12.86,1.09-.46,4.89,4.66,9.28,9.88,14.55,14.13.57.33,1.24,1.09,1.94.73.42-.47.45-1.24.44-1.83,0-.94-.16-1.88-.34-2.81-.41-2.11-1.03-4.19-1.74-6.22,1.17,2.15,3.52,6.31,4.18,7.23.34.47,1.04,1.42,1.73,1.01.39-.23.57-.8.7-1.2.28-.92.35-1.89.46-2.84.37-3.66.89-12.65,1.61-16.06.34,3.72.61,7.47.97,11.22.32,2.84.15,5.83,1.26,8.54,1.31,3.15,5-6.29,6.06-7.71-.28,2.05-3.25,10.8-.6,10.33,7.66-4.99,22.92-22.86,24.74-23.95-1.35,3.16-4.58,5.96-6.66,8.89-5.07,5.91-10.21,11.77-14.44,18.32-2.21,4.27,9-.68,9.48-.35.15.23-13.6,7.31-3.89,8.05,4.27.7,8.53,1.19,12.8,1.51.22.11.47,0,.68.1Z"/><path d="M366.41,61.35c6.01-.84,12.16-.68,18.07.8,4.77.74,9.15,3.34,11.74,7.38,1.48,2.46,2.07,4.97,2.14,7.75.05,11.02,0,22.1.02,33.11,0,2.23.37,4.45.81,6.63.24,1.08.16,2.34-.91,2.92-.75.45-1.67.56-2.54.58-2.39,0-4.78.02-7.17.03-1.19-.04-2.49.02-3.54-.64-.86-.53-1.38-1.7-2.17-2.4-.97-.97-2.21-.33-3.21.26-2.9,1.77-5.99,2.75-9.2,3.57-8.81,1.99-20.75.53-25.02-8.52-2.82-6.29-2.45-15,2.78-19.92,4.73-4.28,11.57-5.27,17.68-6.11,2.28-.28,4.46-.5,6.74-.87,3.52-.51,8.31-1.43,9.44-5.28,1.93-9.05-9.65-10.71-15.86-7.96-2.2,1.02-3.84,2.95-4.53,5.3-.22.64-.58,1.26-1.18,1.6-2.79,1.19-6.1.41-9.04.62-1.53,0-3.25.21-4.65-.5-2.32-1.7.4-6.55,1.44-8.55,3.58-6.23,11.19-9.04,18.01-9.79h.12Z"/><path d="M169.76,117.38c-.34-1.75-.77-3.49-.79-5.28-.19-.43-.1-.88-.1-1.32,0-11,0-22,0-33,0-.44.07-.89-.07-1.33-.14-.95-.21-1.92-.43-2.85-1.24-5.25-4.77-8.38-9.6-10.32-2.52-1.01-5.17-1.45-7.81-1.98-.52-.19-1.08.04-1.6-.18-.28-.02-.56-.04-.84-.05-1.25-.24-2.53.09-3.78-.19-.98.08-1.95.15-2.93,0-1,.26-2.04-.05-3.04.18-.6.24-1.22.34-1.87.31-.58.24-1.21-.04-1.79.19-1.35.36-2.71.69-4.05,1.07-4.44,1.28-8.4,3.24-11.16,6.93,2.94-.76,6.05-1.77,8.49-2.56,3.34-1.08,4.98-1.61,5.83-1.61.36,0,.67.09.93.27.13.09.25.21.34.34.2.29.27.66.19,1.01-.15.68-.37.82-3.16,2.56-7.26,4.52-11.93,8.06-13.98,10.58.59.19,1.23-.05,1.82.18.08-.11.15-.1.23,0,.47-.18.95-.09,1.43-.1,2.57-.06,5.14.1,7.71-.09,1.27-.21,2.02-.98,2.45-2.17,1.31-3.61,3.73-5.87,7.71-6.18.42-.21.89,0,1.31-.18.36-.02.73-.04,1.09-.06.73-.16,1.45-.17,2.18,0,1.47.11,2.89.46,4.26.99,2.3.89,4.43,4.13,4.25,6.44-.17,2.16-1.14,3.88-2.99,5.04-2.12,1.34-4.6,1.42-6.95,1.96-.59.22-1.23-.02-1.83.18-.55.1-1.07.39-1.65.3-.81.28-1.68-.06-2.49.19-.68.29-1.4.33-2.12.3-.02.01-.05.01-.08.02,7.17.96,14.47,1.73,21.86,2.29.16.01.32.05.47.13,0,0,0,0,0,0,.02,0,.41,0,.41,0,.37,0,.81.03,1.27.25.04.02.09.04.13.07,1.1.68.96,1.59.89,1.85-.41,1.57-2.35,1.9-13.86,2.37-3.14.13-7.05.29-7.73.52-.14.07-.24.09-.4.11l-1.67.15c-13.02,1.18-19.86,2.88-20.33,5.06-.18.85,1.13,2.6,5.34,4.97.05.03.11.06.16.1,1.71,1.32,4.35,3.11,6.9,4.83,6.64,4.49,7.04,4.87,7.13,5.79.04.38-.11.81-.38,1.08-.25.25-.58.38-.92.38-.17,0-.34-.03-.5-.1l-.21-.09c-4.68-1.98-13.02-5.49-18.25-6.11.92,2.93,2.45,5.51,5.06,7.46,3.47,2.59,7.5,3.52,11.7,3.95,1.54.16,3.09.14,4.63.02.63-.08,1.22-.41,1.88-.31.49-.24,1.04.03,1.53-.19,3.76-.91,7.45-1.98,10.75-4.16,1.54-1.02,2.4-.69,3.41.89.55.87,1.03,1.82,2.18,2.04.51.23,1.07-.03,1.58.2,2.96-.01,5.92-.04,8.88-.03,1.23,0,2.27-.36,2.99-1.41.12-.57.13-1.13,0-1.7Z"/><path d="M208.46,108.64c-.72-.03-1.45-.05-2.17-.08-.57-.21-1.19.08-1.75-.19-3.05-.2-4.58-2.04-4.61-5.52-.18-.43-.1-.88-.1-1.32,0-4.41,0-8.82,0-13.23-1.58,1.5-2.96,2.72-3.99,3.49-.23.16-.49.25-.75.25-.34,0-.67-.13-.92-.39-.44-.46-.47-1.18-.07-1.67,1.89-2.34,3.81-4.68,5.73-7,0-1.66,0-3.31,0-4.97,0-.44.08-.89-.08-1.32-.18-2.05,1-4.08,3.26-3.69.43-.16.87-.08,1.31-.09,1.29-.04,2.58.03,3.86-.01,1.13-1.37,2.26-2.74,3.38-4.13,0-.77-.06-1.54-.1-2.31-.02-.38-.04-.77-.06-1.15-.22-.33,0-.76-.15-1.11-.2.06-.4.12-.59.19-1.62.51-3.01.94-3.93.99-.02,0-.05,0-.07,0-.51,0-.98-.31-1.17-.78-.21-.5-.08-1.07.33-1.43.29-.26.62-.5.95-.73-1.17.02-2.35.07-3.52-.1-2.12.02-3.01-.56-3.29-2.16-.28-1.06.05-2.15-.19-3.21-.07-.26-.09-.53-.08-.79-1.43-.13-2.41-.29-3.03-.57-.5-.22-.8-.75-.74-1.29.06-.55.46-.99.99-1.11.97-.21,1.95-.37,2.93-.51.02-1.74.02-3.49-.07-5.23-.29-.99-.68-1.94-1.82-2.17-.82-.17-1.68-.24-2.52-.25-2.79-.03-5.59-.02-8.38-.03-.37.28-.84,0-1.22.2-.83.34-1.63.7-1.74,1.75-.2,1.56-.04,3.13-.09,4.7-.07,2.21.13,4.42-.11,6.63-.11,2.45-.4,3.7-2.32,4.04-.76.25-1.57-.03-2.33.18-.45.02-.89.05-1.34.05-2.68-.04-3.2.38-3.58,2.92-.14,1.62-.13,3.24,0,4.87.18,1.93.64,2.39,2.72,2.73.81.12,1.62.13,2.43,0,2.36-.1,3.8.54,4.4,2.63.19.3.12.63.12.95,0,9.48,0,18.96,0,28.45,0,.32.04.65-.1.96,0,.48,0,.96,0,1.45.26.68-.03,1.4.19,2.08.01.08.03.15.04.23.3.54-.04,1.17.21,1.72.79,2.44,1.79,4.73,3.97,6.33,2.47,1.81,5.25,2.69,8.26,2.96.67.24,1.4-.06,2.07.2.12.02.24.03.37.05,2.03.15,4.06.16,6.09,0,.41-.18.82-.06,1.22.02.41.11.81.13,1.21-.01.13-.08.26-.22.4-.24,2.86-.48,3.34-1.01,3.55-3.93.12-2.03.13-4.06,0-6.09-.34-1.62-1.52-2.09-2.99-2.16Z"/><path d="M337.72,115.54s-.07-.05-.07-.06c.01-.06.04-.11.07-.17-.19-.47-.1-.96-.1-1.44,0-11.3,0-22.6,0-33.9,0-.44.08-.89-.08-1.32-.02-.2-.04-.4-.06-.61-.22-.51.03-1.08-.19-1.59-.56-1.35-.62-2.84-1.24-4.19-2.22-4.89-5.5-8.56-10.9-10.03-1.57-.43-3.16-.71-4.72-1.15-.51-.24-1.08.03-1.58-.2-1.14,0-2.28,0-3.43,0-.59.23-1.22-.03-1.81.18-.15.02-.3.03-.45.05-.39.26-.87-.04-1.26.22-4.28,1.25-8.14,3.21-11.13,6.63-.29.34-.66.54-1.06.7-.42.22-.84.16-1.27.01-.84-.3-1.4-.98-1.89-1.64-1.3-1.76-3-2.98-4.91-3.98-2-1.05-4.17-1.49-6.33-1.99-.84-.23-1.72.08-2.56-.19-.4.13-.81.13-1.21,0-.76.25-1.56-.05-2.32.18-1.16.35-2.42.24-3.54.61-3.41,1.13-6.59,2.72-9.12,5.37-.5.52-1.14.83-1.82.59-.6-.21-.79-.81-.91-1.44-.31-1.53-.46-3.2-2.41-3.67-3.49-.14-6.99-.14-10.48,0-.56.18-1.16.33-1.56.71.3.3.4.54.43.87.04.38-.1.77-.37,1.04-.18.18-.41.27-.64.32-.01.05-.02.11-.04.16.02.2.06.4.06.6,0,2.95,0,5.89,0,8.84.87,1.02,1.75,2.03,2.63,3.02,3.26,3.73,6.64,7.59,9.24,11.6.35.55.24,1.27-.27,1.68-.23.19-.52.28-.8.28-.33,0-.66-.13-.9-.38-1.53-1.55-3.06-3.12-4.59-4.69-1.75-1.8-3.52-3.61-5.31-5.42,0,10.9,0,21.79-.02,32.69,0,1.05-.03,2.1-.04,3.15.26.59-.04,1.25.21,1.84.43,1.23,1.26,1.78,2.6,1.66.76-.07,1.53.05,2.3.09,1.95.12,3.9.12,5.85,0,4.1-.21,4.91-.11,4.88-5.2-.04-8.43.02-16.87.04-25.3.23-1.56-.09-3.15.18-4.71.02-.22.04-.43.06-.65.19-.42-.02-.89.18-1.31-.04-1.15.33-2.22.77-3.24,1.56-3.61,4.23-5.85,8.19-6.44,1.26-.14,2.53-.18,3.79.02.13.07.26.17.4.21,2.15.54,4.06,1.47,5.29,3.42.7,1.1,1.04,2.35,1.37,3.59.19.42,0,.9.17,1.32.07.44.19.88.06,1.33.19.47.1.96.11,1.44,0,10,0,20.01,0,30.01,0,.44-.07.89.07,1.33.05.6.15,1.2.13,1.8-.05,1.44.83,2.31,2.27,2.28.84-.02,1.68.07,2.53.11,2.11.13,4.22.13,6.33,0,1.62-.16,3.39.03,4.34-1.77.32-.39.16-.86.16-1.29.01-8.14,0-16.28.01-24.42,0-.48-.09-.97.1-1.44-.18-1.26-.01-2.52.06-3.78.22-.85-.08-1.73.18-2.57l.05-.84c.2-.51-.03-1.08.19-1.59.35-4.04,2.79-8.23,7.48-9.16.51-.21,1.06.02,1.57-.17.12-.02.24-.05.36-.07.72-.13,1.44-.17,2.16,0l.09-.03.07.07c.48.27,1.04-.05,1.51.21,2.62.99,4.71,2.46,5.68,5.3.88,2.56,1.19,5.15,1.11,7.83.21.43.1.88.1,1.32,0,9.61,0,19.22,0,28.83,0,.44-.08.89.08,1.33.19,1.01.57,1.84,1.74,1.97.41.22.89-.02,1.3.2.54.02,1.08.04,1.63.07,2.03.13,4.06.12,6.09,0,.36-.02.73-.03,1.09-.05,2.56-.1,3.15-.36,3.82-2.68.24-.76-.07-1.57.2-2.32Z"/><path d="M235.53,78.76c-.05-.05-.1-.09-.14-.15-1.08-1.39-2.01-3.06-2.92-4.67-.58-1.03-1.17-2.08-1.79-3.05-.69,2.47-.88,9.14-.98,12.58-.11,3.63-.17,5.41-.41,6.17-.17.53-.66.88-1.21.88-.03,0-.06,0-.08,0-.58-.04-1.06-.46-1.17-1.04-.41-2.23-1.48-11.29-2.12-16.7l-.13-1.11c-.04-.32-.08-.59-.12-.8-.69,1.11-1.59,3.11-2.14,4.32-.96,2.12-1.53,3.35-2.1,3.92-.12.12-.27.21-.42.28,0,12.06,0,24.13,0,36.19,0,.4-.04.8-.06,1.21.25.59-.05,1.24.2,1.82.33.95.77,1.78,1.97,1.75.92.16,1.85.04,2.77.07,2.21.07,4.43-.14,6.63.11,1.59.02,3.07-.2,4.03-1.69.24-.51-.03-1.08.2-1.58,0-.52-.02-1.05-.02-1.57,0-12.31,0-24.62,0-36.92Z"/></svg>