<?xml version="1.0" encoding="UTF-8"?><svg id="Layer_1" xmlns="http://www.w3.org/2000/svg" viewBox="0 0 110 84"><defs><style>.cls-1{fill:#fffdf6;}</style></defs><path class="cls-1" d="M105.8,39.21c-.28,4.16-.4,8.75-2.22,12.58-.93,1.97-2.36,3.51-3.9,5.01-1.78,1.72-3.55,3.47-5.41,5.11-3.66,3.19-7.54,6.25-11.56,8.98-4,2.71-8.43,5.12-12.98,6.76-4.48,1.61-9.36,2-14.09,2.14-4.94.17-9.93-.06-14.87-.11-4.96-.07-10.19-.01-15.07-.92-2.17-.39-4.4-.93-6.45-1.75-2.25-.9-3.64-2.44-5-4.39-2.62-3.71-4.58-7.9-6.4-12.05-3.79-8.61-5.3-19.11-1.71-28.07,4.04-10.05,12.45-17.71,22.32-21.86,5.25-2.21,10.83-3.71,16.39-4.87,2.91-.61,5.79-.93,8.76-1.1,2.61-.15,5.58-.89,8.16-.44,2.37.83,4.89,1.22,7.27,1.96,4.04,1.24,8.2,2.3,12.08,4,4.21,1.83,8.45,3.72,12.1,6.51,3.57,2.72,6.57,6,8.81,9.88,2.28,3.96,4.05,7.98,3.76,12.63Z"/><path d="M109.3,32.52c-2.9-9.26-9.44-17.14-17.81-21.96-7.69-4.43-16.35-7.13-24.9-9.34-1.07-.26-2.17-.53-3.22-.86-.14-.06-.31-.11-.49-.14-.36-.12-.69-.15-.99-.1-2.21-.19-4.46.1-6.65.28-2.86.22-5.69.33-8.52.79-5.47.89-10.92,2.35-16.14,4.21-9.77,3.48-18.67,9.41-24.36,18.23-2.94,4.54-5.14,9.38-5.86,14.78-.67,5.11-.4,10.29.79,15.3,1.18,5.01,3.32,9.74,5.59,14.33,2.03,4.07,4.55,9.09,8.48,11.6,4.15,2.68,9.69,3.33,14.49,3.71,5.61.42,11.19.49,16.8.56,5.52.07,10.98.19,16.48-.51,5.3-.68,9.84-2.43,14.63-4.73,4.86-2.33,9.23-5.48,13.46-8.81,4.19-3.29,8.19-6.75,11.98-10.52,3.4-3.4,5.39-7.33,6.11-12.09.36-2.35.51-4.73.71-7.08.22-2.58.19-5.14-.58-7.62ZM82.7,70.88c-4,2.71-8.43,5.12-12.98,6.76-4.48,1.61-9.36,2-14.09,2.14-4.94.17-9.93-.06-14.87-.11-4.96-.07-10.19-.01-15.07-.92-2.17-.39-4.4-.93-6.45-1.75-2.25-.9-3.64-2.44-5-4.39-2.62-3.71-4.58-7.9-6.4-12.05-3.79-8.61-5.3-19.11-1.71-28.07,4.04-10.05,12.45-17.71,22.32-21.86,5.25-2.21,10.83-3.71,16.39-4.87,2.91-.61,5.79-.93,8.76-1.1,2.61-.15,5.58-.89,8.16-.44,2.37.83,4.89,1.22,7.27,1.96,4.04,1.24,8.2,2.3,12.08,4,4.21,1.83,8.45,3.72,12.1,6.51,3.57,2.72,6.57,6,8.81,9.88,2.28,3.96,4.05,7.98,3.76,12.63-.28,4.16-.4,8.75-2.22,12.58-.93,1.97-2.36,3.51-3.9,5.01-1.78,1.72-3.55,3.47-5.41,5.11-3.66,3.19-7.54,6.25-11.56,8.98Z"/><path d="M35.16,52.23c2.56-.79,4.84-1.94,6.61-4,1.58-1.84,2.69-3.98,2.42-6.46-.23-2.15-1.08-4.47-2.79-5.88-2.28-1.89-5.07-1.49-7.72-.72-1.28.37-2.51.81-3.72,1.36-.74.33-2.36,1.58-3.22,1.29-1-.33-1.03-2.64-.91-3.53.14-1.05.45-2.32,1.23-3.09.8-.79,2.02-1.03,3.1-1.08,1.34-.06,2.77-.06,4.05.36.51.17.96.43,1.4.74.11.07.22.14.32.22.28.23.45.71.41.19.2,2.41,3.99,2.43,3.78,0-.2-2.37-2.5-3.93-4.58-4.69-2.28-.83-5.24-.87-7.59-.32-2.64.62-4.46,2.41-5.34,4.93-.68,1.95-.85,4.25-.2,6.23.7,2.14,2.33,3.86,4.71,3.8,1.35-.03,2.52-.71,3.69-1.3,1.25-.63,2.54-1.1,3.89-1.49,1.01-.3,2.15-.72,3.22-.53,1.01.17,1.6.97,2,1.84.89,1.94.63,3.64-.69,5.29-1.73,2.17-4.35,3.2-7.01,3.73-1.91.38-3.49-.22-3.77-2.25-.14-1.01-1.43-1.56-2.33-1.32-1.09.3-1.46,1.31-1.32,2.33.31,2.23,1.81,4,3.92,4.74,2.15.75,4.34.25,6.44-.39Z"/><path d="M39.4,27.87c.22,1.76.75,3.4,1.3,5.09.48,1.47,1.53,2.61,2.44,3.83.97,1.31,2.57,2.12,4.14,2.48,3.01.7,6.42-.26,8.53-2.53,2.41-2.6,3.1-5.88,2.61-9.31-.27-1.91-.65-3.74-1.22-5.59-.28-.91-.54-1.85-.76-2.78-.22-.95-.37-1.7-1.04-2.46-1.61-1.83-4.28.85-2.67,2.67-.34-.38-.04.31.01.55.09.44.22.87.33,1.3.24.91.51,1.79.78,2.69.48,1.54.75,3.19.93,4.79.3,2.78-.99,6.07-3.93,6.86-1.31.35-2.55.3-3.78-.28-.67-.32-.88-.61-1.31-1.21-.43-.59-1.02-1.11-1.34-1.77-.32-.67-.46-1.49-.7-2.2-.28-.82-.49-1.62-.6-2.48-.24-1.94-.54-3.88-.83-5.82-.15-1.01-1.42-1.57-2.33-1.32-1.08.3-1.47,1.31-1.32,2.33.26,1.72.53,3.43.74,5.16Z"/><path d="M58.92,20.39c.6,4.42.24,8.91-.06,13.34-.16,2.31-.26,4.61-.32,6.92-.03,1.17-.47,2.55.21,3.74.9,1.59,2.59,1.4,4.15,1.22,1.76-.2,3.52-.47,5.12-1.27,3.32-1.67,4.7-5.43,4.36-8.98-.16-1.67-.99-3.13-2.29-4.1,1.74-1.25,2.74-3.15,3.01-5.33.35-2.87-1.48-5.29-3.77-6.83-1.14-.77-2.46-1.29-3.82-1.49-1.54-.23-3.32-.49-4.86-.32-1.01.11-1.89.79-1.89,1.89,0,.25.06.5.17.75,0,.16-.02.32,0,.48ZM68.41,38.35c-.32,1.32-1.39,2.38-2.64,2.86-.73.28-1.53.42-2.3.54-.26.04-.79.02-1.26.05.08-.78.11-1.55.12-2.35.05-1.97.18-3.94.31-5.9.91-.06,1.83.12,2.74.17.77.04,1.59.04,2.27.44,1.38.8,1.06,2.88.74,4.2ZM66.92,22.04c1.51.88,2.79,2.27,2.31,4.09-.72,2.72-3.81,3.2-6.35,3.56.13-2.88.12-5.74-.15-8.61.47.04.94.1,1.4.14,1.01.09,1.91.31,2.79.82Z"/><path d="M63.09,56.18c-1.46.07-2.63,1.09-3.86,1.78-.41.23-.83.46-1.24.69-.01-.01-.03-.03-.04-.04-.04-.07-.05-.1-.06-.11-.06-.15-.11-.3-.17-.44-.2-.5-.41-.99-.62-1.48-.46-1.1-.89-2.2-1.38-3.28-.41-.9-.92-1.93-1.24-2.74-.34-.87-.83-2.13-.88-2.79,0-.07-.02-.14-.03-.2.97-.83,1.94-1.67,2.77-2.64.64-.75.79-1.95,0-2.67-.71-.65-1.98-.8-2.67,0-1.54,1.79-3.48,3.3-5.3,4.79-.47.38-.94.76-1.41,1.14-.26.21-.53.41-.79.62-.04.03-.24.19-.09.07-.17.13-.34.26-.51.39-.17.14-.35.27-.52.41-.03.02-.07.06-.1.1-.02,0-.03.01-.06.04-.19.13-.38.24-.57.37,0,0-.02,0-.03,0-.91.13-1.72.9-1.68,1.86.04,1,.83,1.92,1.89,1.89,1.28-.04,2.27-.81,3.22-1.59.07-.05.13-.11.2-.16,0,0,0,0,0,0,.33-.25.66-.51.99-.77.48-.37.95-.75,1.42-1.13.54,1.7,1.39,3.34,2.11,4.92.48,1.05.88,2.09,1.36,3.23.32.76.59,1.5,1,2.15-1.12.74-2.24,1.49-3.38,2.18-.68-.7-1.43-1.29-2.23-1.93-1.18-.94-2.31-1.94-3.48-2.89-1.07-.87-2.21-1.64-3.28-2.5-1-.8-1.82-1.66-3.04-2.14-1.25-.49-2.29.73-2.39,1.82-.08.9.16,1.94.2,2.86.02.41.05.82.09,1.23.02.23.04.47.06.7-.68-.98-1.38-1.94-1.94-2.98-.72-1.32-2.5-1.12-3.26,0-.59.87-.8,1.9-1.06,2.9-.29,1.13-.62,2.26-.97,3.37-.35,1.09-.68,2.19-1.02,3.29-.38,1.27-.72,2.29-.45,3.63.49,2.38,4.14,1.37,3.65-1-.13-.64.47-1.72.65-2.34.27-.98.62-1.93.92-2.9.17-.56.32-1.12.48-1.68.28.41.56.83.82,1.25.97,1.61,1.97,3.2,2.85,4.87.47.89,1.74,1.19,2.59.68,1.02-.62,1.03-1.75,1-2.8-.04-1.16-.13-2.31-.22-3.47-.08-1.07-.18-2.14-.27-3.21-.01-.14-.02-.29-.04-.43.76.57,1.53,1.13,2.26,1.74,1.02.85,2.03,1.72,3.07,2.55.6.48,1.31.94,1.91,1.49-.24.56-.22,1.26.08,1.77.55.95,1.66,1.11,2.59.68,2.24-1.05,4.24-2.49,6.3-3.84,1.02-.67,2.07-1.29,3.14-1.86.56-.3,1.11-.61,1.65-.93.27-.16.54-.33.81-.5.09-.06.28-.14.35-.22.02-.02.02-.03.03-.03.95-.12,1.73-.87,1.73-1.87s-.87-1.94-1.89-1.89ZM44.43,50.14s-.06.02-.1.03c.04-.02.09-.04.1-.03ZM44.28,50.19s0,0,0,0c-.08.05-.06.04,0,0ZM37.82,67.02s-.02.11,0,.14c0-.02,0-.08,0-.14Z"/><path d="M73.7,46.95c-4.33.61-8.7.87-13.03,1.48-1.01.14-1.57,1.43-1.32,2.33.3,1.09,1.31,1.46,2.33,1.32,1.79-.25,3.6-.44,5.4-.63.32,1.98.64,3.96.87,5.95.14,1.2.21,2.4.15,3.61-.03.61-.16,1.28-.03,1.89.06.3.03.07,0,.35-.03.53-.07.88,0,1.41.16,1.01,1.42,1.57,2.33,1.32,1.08-.3,1.48-1.31,1.32-2.33,0,.48.03.55.07.21.06-.24.08-.49.07-.74,0-.23-.06-.46-.06-.69-.02-.65.08-1.31.1-1.96.04-1.2-.08-2.4-.23-3.6-.24-1.94-.55-3.88-.85-5.82,1.3-.14,2.6-.29,3.89-.47,1.01-.14,1.57-1.43,1.32-2.33-.3-1.09-1.31-1.46-2.33-1.32Z"/><path d="M85.41,33.02c-.11,2.8-.22,5.61-.37,8.41-.12,2.22.14,5-.64,7.13-.5,1.35-2.36,1.76-3.15.4-1-1.67-.92-4.14-1.1-6.01-.26-2.69-.69-5.37-.94-8.06-.51-5.76-.89-11.56-1.35-17.34-.08-1.03.64-1.58,1.43-1.64.36-.32.85-.53,1.3-.53.67,0,1.19.33,1.53.82.44.17.81.53.96,1.12.65,2.58,1.32,5.09,1.86,7.69.56,2.64.58,5.32.47,8Z"/><path d="M86.24,54.96c-.14-.94-.76-1.87-1.71-2.13-.52-.14-1.08-.09-1.57.12-.03-.01-.07-.03-.1-.04-.48-.11-1.03-.09-1.46.19-.41.27-.73.65-.87,1.13-.18.66-.29,1.35-.32,2.03-.04.86.11,1.75.52,2.5.58,1.05,1.8,1.74,3,1.41.85-.23,1.5-.9,1.91-1.66.26-.48.5-1.03.6-1.58.13-.69.1-1.28,0-1.97Z"/></svg>