<?xml version="1.0" encoding="UTF-8"?><svg id="Layer_1" xmlns="http://www.w3.org/2000/svg" viewBox="0 0 65 55"><defs><style>.cls-1{fill:#fffdf6;}</style></defs><path class="cls-1" d="M38.78,23.89s0-.02-.01-.07c-.02-.1-.05-.3-.06-.34-.11-.51-.28-.98-.52-1.44-.3-.55-.67-1.06-1.1-1.53-.2-.21-.41-.43-.64-.62h0s-.01-.01-.02-.02h0s0-.01-.01-.01h-.01s-.01-.02-.02-.02h-.02s0-.01,0-.01h-.01c-.3-.05-.22-.07-.63-.08-.22,0-.43,0-.65.02-.35.03-.78.11-1.23.27-.14.05-.28.07-.42.07-.27.05-.44.24-.61.54-.26.5-.5,1-.72,1.52-.53,1.26-.9,2.64-.56,3.88.47,1.75,2.16,3.31,3.9,3.4.56.03.83,0,1.32-.16.01,0,.03-.01.04-.01s.02,0,.03-.01c.01,0,.02,0,.03-.01.01,0,.02,0,.03,0h-.02c.09-.05.18-.1.27-.16.05-.03.1-.06.15-.09,0,0,.01,0,.02-.01.04-.04.1-.09.12-.11.53-.52.88-1.12,1.1-1.84.07-.22.13-.45.17-.68.03-.13.06-.26.08-.39v-.03s.01-.03.01-.05c.05-.42.06-.84.05-1.26-.01-.25-.02-.5-.05-.74ZM38.78,23.89s0-.02-.01-.07c-.02-.1-.05-.3-.06-.34-.11-.51-.28-.98-.52-1.44-.3-.55-.67-1.06-1.1-1.53-.2-.21-.41-.43-.64-.62h0s-.01-.01-.02-.02h0s0-.01-.01-.01h-.01s-.01-.02-.02-.02h-.02s0-.01,0-.01h-.01c-.3-.05-.22-.07-.63-.08-.22,0-.43,0-.65.02-.35.03-.78.11-1.23.27-.14.05-.28.07-.42.07-.27.05-.44.24-.61.54-.26.5-.5,1-.72,1.52-.53,1.26-.9,2.64-.56,3.88.47,1.75,2.16,3.31,3.9,3.4.56.03.83,0,1.32-.16.01,0,.03-.01.04-.01s.02,0,.03-.01c.01,0,.02,0,.03-.01.01,0,.02,0,.03,0h-.02c.09-.05.18-.1.27-.16.05-.03.1-.06.15-.09,0,0,.01,0,.02-.01.04-.04.1-.09.12-.11.53-.52.88-1.12,1.1-1.84.07-.22.13-.45.17-.68.03-.13.06-.26.08-.39v-.03s.01-.03.01-.05c.05-.42.06-.84.05-1.26-.01-.25-.02-.5-.05-.74ZM60.62,11.02c-2.52-5.1-8.07-7.67-13.54-8.14-3.07-.27-6.14.09-9.08,1.03-2.67.85-4.89,2.72-7.57,3.48-1.57.45-3.17.68-4.72,1.18-1.33.43-2.65.93-3.94,1.46-2.9,1.21-5.66,2.74-8.19,4.62C4.51,21.56-.5,34.88,5,45.54c1.05,2.04,2.5,3.84,4.5,5.02,2.38,1.4,5.16,1.71,7.87,1.65,6.09-.13,12.38-1.21,18.19-3.03,10.72-3.36,20.93-10.94,25.04-21.73,1.95-5.12,2.51-11.37.02-16.43ZM32.57,39.14c-.09.74-.55,1.38-1.38,1.38-.68,0-1.47-.64-1.38-1.38.12-.93.32-1.89.23-2.83-.07-.83-.49-1.6-.94-2.29-.43-.66-.97-1.25-1.55-1.79-.32-.31-.66-.59-1-.87-.02-.01-.04-.03-.07-.05.3.33.56.68.77,1.09.48.92.58,1.98.47,3.01-.2,1.96-.91,4.04-2.29,5.49-2.59,2.73-7.15,2.58-10.34,1.08-3.22-1.51-5-5-5.11-8.45-.12-3.45,1.47-6.97,4.48-8.78,1.63-.99,3.56-1.43,5.45-1.51,1.1-.05,2.18.12,3.27.23,1.11.12,2.02.25,3.01.77,1.58.83.18,3.21-1.39,2.39-.84-.45-1.85-.43-2.78-.54-.88-.1-1.75-.13-2.64-.06-1.48.13-3.03.62-4.2,1.57-3.8,3.1-3.15,10.46,1.71,12.15,2.22.77,5.34.95,6.89-1.16.7-.94,1.11-2.28,1.2-3.44.06-.67.01-1.27-.39-1.83-.22-.3-.51-.57-.79-.83-.45.36-.92.69-1.38,1.02-1.22.86-2.4,1.73-3.01,3.15-.3.68-1.31.83-1.89.49-.7-.41-.8-1.2-.5-1.89.84-1.92,2.58-3.13,4.24-4.3.79-.56,1.49-1.2,2.25-1.8.87-.68,1.98-1.44,3.13-1.04.97.33,1.88,1.27,2.64,1.95.78.71,1.49,1.51,2.09,2.39.63.91,1.15,1.97,1.34,3.06.21,1.22.02,2.4-.14,3.62ZM40.58,29.25c-1.31,2.48-4.15,3.53-6.8,2.67-2.93-.95-5.12-3.77-5.16-6.87-.02-1.78.69-3.44,1.42-5.02.63-1.4,1.55-2.33,3.01-2.62.02-.01.04-.02.06-.03,1.33-.49,3.34-.66,4.63.05.71.4,1.33,1.11,1.83,1.75.66.83,1.19,1.71,1.55,2.71.84,2.3.6,5.2-.54,7.36ZM44,19.76c-.11-.87-.15-1.74-.28-2.61-.29-1.96-.41-3.95-.41-5.93,0-1.1,1.06-1.52,1.87-1.25.82-.44,2.1-.05,2.1,1.16v12.98c0,1.78-2.77,1.78-2.77,0v-1.87c-.04-.31-.14-.62-.22-.93-.14-.51-.23-1.03-.29-1.55ZM47.66,29.36c-.01.19-.07.36-.17.52-.08.16-.2.29-.35.38-.14.13-.29.21-.47.25-.13.03-.27.05-.4.05h-.06c-.13-.01-.26-.03-.39-.05-.01,0-.03,0-.04,0-.03-.01-.06-.02-.09-.03-.14-.05-.28-.1-.41-.17-.02-.01-.05-.03-.07-.04-.11-.08-.21-.16-.31-.24-.01-.01-.02-.02-.03-.03-.21-.24-.28-.35-.38-.66-.04-.12-.05-.26-.06-.39v-.02s.05-.34.05-.36t.01-.01c.05-.26.21-.47.38-.67.01,0,.01,0,.02,0,.09-.08.25-.2.29-.23.02-.01.03-.02.05-.03.21-.13.44-.19.69-.19.13.02.25.03.37.05.06.02.11.04.17.06h.01c.49.1.8.44.94.84h0s.06.08.08.11c.05.11.1.22.14.33.06.19.07.37.03.55ZM53.42,30.24c-.04.74-.19,1.41-.52,2.08-.13.26-.4.45-.66.56-.16.09-.34.13-.53.12-.12-.01-.24-.03-.37-.05-.32-.13-.54-.23-.8-.48-.15-.14-.28-.3-.37-.48-.21-.42-.28-.78-.32-1.24-.04-.42.02-.84.02-1.26,0-.59.37-1.07.88-1.27.08-.18.18-.35.32-.5.25-.27.62-.39.97-.4.35-.02.74.16.98.4s.41.62.4.98c0,.51.03,1.02,0,1.54ZM52.63,23.13c-.01.72-.46,1.15-1.01,1.29-.49.55-1.32.77-1.94.08-.81-.9-.61-1.99-.6-3.11,0-1.25-.01-2.5-.01-3.76v-8.01c0-1.03.92-1.46,1.7-1.3.44-.07.9.05,1.22.37,3.76,3.85.69,9.9.64,14.44ZM38.77,23.82c-.02-.1-.05-.3-.06-.34-.11-.51-.28-.98-.52-1.44-.3-.55-.67-1.06-1.1-1.53-.2-.21-.41-.43-.64-.62h0s-.01-.01-.02-.02h0s0-.01-.01-.01h-.01s-.01-.02-.02-.02h-.02s0-.01,0-.01h-.01c-.3-.05-.22-.07-.63-.08-.22,0-.43,0-.65.02-.35.03-.78.11-1.23.27-.14.05-.28.07-.42.07-.27.05-.44.24-.61.54-.26.5-.5,1-.72,1.52-.53,1.26-.9,2.64-.56,3.88.47,1.75,2.16,3.31,3.9,3.4.56.03.83,0,1.32-.16.01,0,.03-.01.04-.01s.02,0,.03-.01c.01,0,.02,0,.03-.01.01,0,.02,0,.03,0h-.02c.09-.05.18-.1.27-.16.05-.03.1-.06.15-.09,0,0,.01,0,.02-.01.04-.04.1-.09.12-.11.53-.52.88-1.12,1.1-1.84.07-.22.13-.45.17-.68.03-.13.06-.26.08-.39v-.03s.01-.03.01-.05c.05-.42.06-.84.05-1.26-.01-.25-.02-.5-.05-.74,0,0,0-.02-.01-.07Z"/><path d="M64.61,14.49c-1.11-6.01-5.06-10.57-10.69-12.81-6.87-2.75-14.84-1.98-21.23,1.62-.76.43-1.51.88-2.32,1.2-.83.33-1.72.44-2.59.63-1.91.43-3.76,1.06-5.58,1.78-3.55,1.38-6.95,3.07-10.02,5.35-.05.04-.1.08-.15.12C2.83,19.48-2.29,31.51,1.04,42.98c1.53,5.25,4.94,9.86,10.41,11.36,2.8.77,5.76.72,8.63.47,3.48-.3,6.96-.76,10.38-1.47,12.46-2.56,24.21-9.3,30.65-20.58,3.15-5.52,4.66-11.97,3.5-18.27ZM60.6,27.45c-4.11,10.79-14.32,18.37-25.04,21.73-5.81,1.82-12.1,2.9-18.19,3.03-2.71.06-5.49-.25-7.87-1.65-2-1.18-3.45-2.98-4.5-5.02-5.5-10.66-.49-23.98,8.58-30.89,2.53-1.88,5.29-3.41,8.19-4.62,1.29-.53,2.61-1.03,3.94-1.46,1.55-.5,3.15-.73,4.72-1.18,2.68-.76,4.9-2.63,7.57-3.48,2.94-.94,6.01-1.3,9.08-1.03,5.47.47,11.02,3.04,13.54,8.14,2.49,5.06,1.93,11.31-.02,16.43Z"/><path d="M32.57,39.14c-.09.74-.55,1.38-1.38,1.38-.68,0-1.47-.64-1.38-1.38.12-.93.32-1.89.23-2.83-.07-.83-.49-1.6-.94-2.29-.43-.66-.97-1.25-1.55-1.79-.32-.31-.66-.59-1-.87-.02-.01-.04-.03-.07-.05.3.33.56.68.77,1.09.48.92.58,1.98.47,3.01-.2,1.96-.91,4.04-2.29,5.49-2.59,2.73-7.15,2.58-10.34,1.08-3.22-1.51-5-5-5.11-8.45-.12-3.45,1.47-6.97,4.48-8.78,1.63-.99,3.56-1.43,5.45-1.51,1.1-.05,2.18.12,3.27.23,1.11.12,2.02.25,3.01.77,1.58.83.18,3.21-1.39,2.39-.84-.45-1.85-.43-2.78-.54-.88-.1-1.75-.13-2.64-.06-1.48.13-3.03.62-4.2,1.57-3.8,3.1-3.15,10.46,1.71,12.15,2.22.77,5.34.95,6.89-1.16.7-.94,1.11-2.28,1.2-3.44.06-.67.01-1.27-.39-1.83-.22-.3-.51-.57-.79-.83-.45.36-.92.69-1.38,1.02-1.22.86-2.4,1.73-3.01,3.15-.3.68-1.31.83-1.89.49-.7-.41-.8-1.2-.5-1.89.84-1.92,2.58-3.13,4.24-4.3.79-.56,1.49-1.2,2.25-1.8.87-.68,1.98-1.44,3.13-1.04.97.33,1.88,1.27,2.64,1.95.78.71,1.49,1.51,2.09,2.39.63.91,1.15,1.97,1.34,3.06.21,1.22.02,2.4-.14,3.62Z"/><path d="M41.12,21.89c-.36-1-.89-1.88-1.55-2.71-.5-.64-1.12-1.35-1.83-1.75-1.29-.71-3.3-.54-4.63-.05-.02.01-.04.02-.06.03-1.46.29-2.38,1.22-3.01,2.62-.73,1.58-1.44,3.24-1.42,5.02.04,3.1,2.23,5.92,5.16,6.87,2.65.86,5.49-.19,6.8-2.67,1.14-2.16,1.38-5.06.54-7.36ZM38.78,25.89s0,.04-.01.05v.03c-.02.13-.05.26-.08.39-.04.23-.1.46-.17.68-.22.72-.57,1.32-1.1,1.84-.02.02-.08.07-.12.11-.01.01-.02.01-.02.01-.05.03-.1.06-.15.09-.09.06-.18.11-.27.16.07-.02.03,0-.01,0-.01.01-.02.01-.03.01-.02.01-.03.02-.03.01-.01,0-.03.01-.04.01-.49.16-.76.19-1.32.16-1.74-.09-3.43-1.65-3.9-3.4-.34-1.24.03-2.62.56-3.88.22-.52.46-1.02.72-1.52.17-.3.34-.49.61-.54.14,0,.28-.02.42-.07.45-.16.88-.24,1.23-.27.22-.01.43-.02.65-.02.41,0,.33.03.63.08h.01s0,.01,0,.01h.02s0-.01.02.01h.02v.02s.02,0,.02,0h0c.23.2.44.42.64.63.43.47.8.98,1.1,1.53.24.46.41.93.52,1.44.01.04.04.24.06.34.01.05.01.07.01.07.03.24.04.49.05.74.01.42,0,.84-.05,1.26Z"/><path d="M36.41,19.85h.01s-.03,0-.05-.01h.02s0-.01.02.01Z"/><path d="M36.43,19.87s.02,0,.02,0h0s-.01,0-.02,0Z"/><path d="M36.85,29.26s-.02.01-.03.01c.01-.01.02-.01.03-.02h.01c.07-.02.03,0-.01,0Z"/><path d="M52.63,23.13c-.01.72-.46,1.15-1.01,1.29-.49.55-1.32.77-1.94.08-.81-.9-.61-1.99-.6-3.11,0-1.25-.01-2.5-.01-3.76v-8.01c0-1.03.92-1.46,1.7-1.3.44-.07.9.05,1.22.37,3.76,3.85.69,9.9.64,14.44Z"/><path d="M53.42,30.24c-.04.74-.19,1.41-.52,2.08-.13.26-.4.45-.66.56-.16.09-.34.13-.53.12-.12-.01-.24-.03-.37-.05-.32-.13-.54-.23-.8-.48-.15-.14-.28-.3-.37-.48-.21-.42-.28-.78-.32-1.24-.04-.42.02-.84.02-1.26,0-.59.37-1.07.88-1.27.08-.18.18-.35.32-.5.25-.27.62-.39.97-.4.35-.02.74.16.98.4s.41.62.4.98c0,.51.03,1.02,0,1.54Z"/><path d="M47.28,11.13v12.98c0,1.78-2.77,1.78-2.77,0v-1.87c-.04-.31-.14-.62-.22-.93-.14-.51-.23-1.03-.29-1.55-.11-.87-.15-1.74-.28-2.61-.29-1.96-.41-3.95-.41-5.93,0-1.1,1.06-1.52,1.87-1.25.82-.44,2.1-.05,2.1,1.16Z"/><path d="M47.3,22.56c0,.08,0,.16-.02.24v-.62c.01.12.02.25.02.38Z"/><path d="M47.66,29.36c-.01.19-.07.36-.17.52-.08.16-.2.29-.35.38-.14.13-.29.21-.47.25-.13.03-.27.05-.4.05h-.06c-.13-.01-.26-.03-.39-.05-.01,0-.03,0-.04,0-.03-.01-.06-.02-.09-.03-.14-.05-.28-.1-.41-.17-.02-.01-.05-.03-.07-.04-.11-.08-.21-.16-.31-.24-.01-.01-.02-.02-.03-.03-.21-.24-.28-.35-.38-.66-.04-.12-.05-.26-.06-.39v-.02s.05-.34.05-.36t.01-.01c.05-.26.21-.47.38-.67.01,0,.01,0,.02,0,.09-.08.25-.2.29-.23.02-.01.03-.02.05-.03.21-.13.44-.19.69-.19.13.02.25.03.37.05.06.02.11.04.17.06h.01c.49.1.8.44.94.84h0s.06.08.08.11c.05.11.1.22.14.33.06.19.07.37.03.55Z"/></svg>