<?xml version="1.0" encoding="UTF-8"?><svg id="Layer_1" xmlns="http://www.w3.org/2000/svg" viewBox="0 0 54 25"><defs><style>.cls-1{fill:#231f20;}.cls-2{fill:#fffdf6;}</style></defs><path class="cls-1" d="M17.79,12.96s0,0,.02-.02h0s-.02.02-.02.02Z"/><path d="M46.97,4.43c-3.03-2.02-6.41-2.92-9.95-3.45C33.07.4,29.17.05,25.18,0c-4.51-.06-9.22.56-13.52,1.94-3.55,1.14-7.97,2.79-9.9,6.23-2.2,3.97.41,8.53,3.28,11.35,3.53,3.47,8.68,4.52,13.41,5.12,4.48.53,8.78.46,13.24-.24,4.33-.68,8.96-1.26,12.99-3.04,1.92-.84,3.73-2.12,5.35-3.45,1.43-1.16,2.55-2.71,2.91-4.56.74-3.87-3.11-7.01-5.98-8.92ZM21.25,14.51c.74.48,1.5.92,2.28,1.35.34.19.68.38,1.01.58.27.16.54.4.83.45.68.09,1.04.95.87,1.54-.19.7-.86.97-1.53.87-.8-.12-1.59-.81-2.27-1.19-.81-.45-1.59-.89-2.37-1.39-.8-.52-1.59-1.03-2.37-1.57-.62-.41-1.38-.83-1.91-1.35-1.76-1.75,1.26-3.39,2.44-4.28,1.49-1.13,2.97-2.28,4.54-3.31.57-.38,1.39-.11,1.72.45.35.6.11,1.33-.45,1.71-1.17.77-2.29,1.61-3.41,2.46-.17.12-.34.24-.5.38h15.48c1.61,0,1.61,2.5,0,2.5h-15.57c.4.27.81.53,1.22.8Z"/><path class="cls-2" d="M35.61,13.71h-15.57c.4.27.81.53,1.22.8.74.48,1.5.92,2.28,1.35.34.19.68.38,1.01.58.27.16.54.4.83.45.68.09,1.04.95.87,1.54-.19.7-.86.97-1.53.87-.8-.12-1.59-.81-2.27-1.19-.81-.45-1.59-.89-2.37-1.39-.8-.52-1.59-1.03-2.37-1.57-.62-.41-1.38-.83-1.91-1.35-1.76-1.75,1.26-3.39,2.44-4.28,1.49-1.13,2.97-2.28,4.54-3.31.57-.38,1.39-.11,1.72.45.35.6.11,1.33-.45,1.71-1.17.77-2.29,1.61-3.41,2.46-.17.12-.34.24-.5.38h15.48c1.61,0,1.61,2.5,0,2.5Z"/><path class="cls-2" d="M17.21,14.44h0s-.02.02-.02.02t.02-.02Z"/></svg>