<?xml version="1.0" encoding="UTF-8"?><svg id="Layer_1" xmlns="http://www.w3.org/2000/svg" viewBox="0 0 65 55"><defs><style>.cls-1{fill:#fffdf6;}</style></defs><path d="M36.42,19.77h.01s0,0,0,0h-.01ZM36.42,19.77h.01s0,0,0,0h-.01ZM36.42,19.77h.01s0,0,0,0h-.01ZM36.42,19.77h.01s0,0,0,0h-.01ZM36.42,19.77h.01s0,0,0,0h-.01ZM36.42,19.77h.01s0,0,0,0h-.01ZM36.42,19.77h.01s0,0,0,0h-.01ZM36.42,19.77h.01s0,0,0,0h-.01ZM36.42,19.77h.01s0,0,0,0h-.01ZM36.42,19.77h.01s0,0,0,0h-.01ZM36.42,19.77h.01s0,0,0,0h-.01ZM36.42,19.77h.01s0,0,0,0h-.01ZM36.42,19.77h.01s0,0,0,0h-.01ZM36.42,19.77h.01s0,0,0,0h-.01ZM36.42,19.77h.01s0,0,0,0h-.01Z"/><path d="M64.61,14.48c-1.11-6.01-5.05-10.56-10.69-12.81-6.88-2.75-14.84-1.98-21.24,1.63-.75.42-1.51.88-2.32,1.19-.83.33-1.72.44-2.59.63-1.91.43-3.76,1.07-5.58,1.78-3.55,1.38-6.95,3.08-10.02,5.36-.05.04-.1.08-.15.12C2.81,19.48-2.31,31.52,1.03,42.98c1.53,5.25,4.94,9.87,10.41,11.37,2.8.77,5.76.72,8.63.47,3.48-.3,6.96-.77,10.39-1.47,12.46-2.57,24.21-9.3,30.65-20.59,3.15-5.52,4.66-11.97,3.5-18.28ZM36.42,19.77h.01s0,.01-.01,0Z"/><path class="cls-1" d="M32.57,39.06c-.1.74-.56,1.38-1.38,1.38-.68,0-1.48-.64-1.38-1.38.11-.93.31-1.89.22-2.82-.07-.84-.49-1.6-.94-2.3-.43-.66-.97-1.25-1.55-1.79-.32-.3-.66-.59-1-.87-.01-.01-.03-.02-.05-.04.29.33.55.68.75,1.08.48.93.58,1.98.47,3.01-.2,1.96-.91,4.04-2.29,5.49-2.59,2.73-7.15,2.58-10.34,1.08-3.22-1.51-5.01-5-5.12-8.45-.11-3.45,1.48-6.97,4.49-8.78,1.63-.99,3.56-1.43,5.45-1.51,1.1-.05,2.18.12,3.27.23,1.11.12,2.02.25,3.01.77,1.58.83.18,3.21-1.39,2.39-.84-.45-1.85-.43-2.78-.54-.88-.1-1.75-.14-2.64-.06-1.49.13-3.04.61-4.21,1.57-3.79,3.1-3.14,10.46,1.72,12.15,2.21.77,5.34.95,6.89-1.16.7-.94,1.11-2.28,1.21-3.43.05-.67,0-1.28-.4-1.84-.22-.3-.51-.57-.8-.82-.45.35-.91.68-1.37,1.01-1.22.86-2.4,1.74-3.02,3.15-.29.69-1.3.84-1.89.49-.69-.4-.79-1.2-.49-1.89.83-1.92,2.58-3.12,4.24-4.3.79-.56,1.49-1.2,2.25-1.8.87-.68,1.98-1.44,3.13-1.04.97.33,1.89,1.27,2.64,1.95.79.71,1.5,1.51,2.1,2.39.62.91,1.14,1.97,1.33,3.06.21,1.23.02,2.4-.13,3.62Z"/><path class="cls-1" d="M36.37,19.74h.01s-.01.01-.01.01h0Z"/><path class="cls-1" d="M41.12,21.8c-.36-.99-.9-1.88-1.55-2.71-.51-.63-1.13-1.34-1.84-1.74-1.29-.72-3.29-.55-4.63-.05-.02.01-.05.02-.07.03-1.45.29-2.36,1.23-3,2.61-.73,1.59-1.44,3.25-1.42,5.03.05,3.1,2.23,5.92,5.16,6.87,2.66.86,5.49-.19,6.8-2.67,1.14-2.16,1.39-5.06.55-7.37ZM38.77,25.81s0,.05-.01.07h0s-.01.06-.01.08h0c-.02.11-.04.22-.06.32-.05.23-.11.46-.17.68-.22.72-.57,1.32-1.1,1.84-.02.01-.05.04-.08.07-.05.03-.07.05-.07.05-.05.03-.09.06-.14.09-.1.06-.19.11-.29.16-.02.01-.03.02-.05.02h-.01s-.02.02-.04.02c-.49.16-.75.19-1.31.16-1.75-.09-3.43-1.65-3.91-3.4-.34-1.25.03-2.62.56-3.88.22-.52.46-1.03.73-1.52.16-.31.33-.5.6-.55.14.01.29-.01.43-.06.45-.17.87-.25,1.23-.27.21-.02.42-.02.64-.02.41.01.33.03.63.08.01,0,.03,0,.04,0s.01,0,.02.01.02.02.04.04c.23.19.44.4.64.62.44.46.8.97,1.1,1.53.25.46.41.93.52,1.43.02.05.06.33.07.4,0,.01.01.01.01.01h0c.02.25.04.51.05.75.01.42-.01.84-.06,1.26Z"/><path class="cls-1" d="M52.63,23.05c-.01.72-.46,1.15-1.01,1.29-.49.55-1.32.77-1.94.08-.81-.91-.61-1.99-.61-3.11.01-1.25,0-2.51,0-3.76v-8.01c0-1.03.92-1.46,1.7-1.3.43-.07.9.04,1.22.37,3.76,3.84.69,9.9.64,14.44Z"/><path class="cls-1" d="M53.42,30.16c-.04.74-.19,1.41-.52,2.08-.13.26-.4.45-.66.56-.16.09-.34.13-.53.12-.12-.01-.24-.03-.37-.05-.32-.13-.54-.23-.81-.48-.14-.13-.27-.3-.36-.48-.21-.41-.28-.78-.32-1.24-.04-.42.02-.84.02-1.26-.01-.59.37-1.07.88-1.27.08-.18.18-.35.32-.5.25-.27.62-.39.97-.4.35-.02.74.16.98.4s.41.62.4.98c0,.51.03,1.02,0,1.54Z"/><path class="cls-1" d="M47.3,22.48c0,.12-.01.24-.03.34v1.21c0,1.78-2.76,1.78-2.76,0v-1.87c-.05-.32-.15-.63-.23-.94-.13-.51-.22-1.02-.29-1.54-.11-.88-.15-1.75-.28-2.62-.29-1.96-.4-3.95-.4-5.93,0-1.11,1.08-1.53,1.89-1.26t.01,0c.81-.41,2.06-.02,2.06,1.17v11c.02.14.03.29.03.44Z"/><path class="cls-1" d="M47.66,29.28c-.01.19-.07.36-.17.52-.08.16-.2.29-.35.38-.14.13-.29.21-.47.25-.14.03-.27.05-.4.05h-.06c-.13-.01-.26-.03-.39-.05-.01,0-.03-.01-.04-.01-.03-.01-.06-.01-.09-.03-.14-.05-.28-.1-.41-.17-.03-.01-.05-.03-.07-.04-.11-.08-.22-.16-.32-.24,0,0-.01-.02-.02-.03-.21-.24-.28-.35-.38-.66-.05-.12-.06-.26-.06-.39v-.02s.05-.34.05-.37c.06-.26.21-.47.39-.67l.02-.02c.09-.07.25-.19.29-.22.01-.01.03-.02.04-.03.22-.13.45-.19.7-.19.12.02.25.03.37.05.06.02.11.04.17.06h.01c.5.1.81.45.94.86.04.03.06.06.08.09.05.11.09.22.14.33.06.19.07.37.03.55Z"/></svg>