<svg width="21" height="23" viewBox="0 0 21 23" fill="none" xmlns="http://www.w3.org/2000/svg">
<path d="M20.3458 11.5011C20.7663 11.7555 17.9135 11.7044 17.6932 11.8133C16.7075 11.9076 13.1483 12.1226 15.4775 13.4043C16.0197 13.8137 17.284 14.58 17.2228 14.6407C15.9092 14.0982 12.704 12.7616 14.78 15.4852C16.5051 18.0947 19.1241 20.3649 20.7849 22.8691C18.4721 20.5762 16.172 18.1568 13.6815 16.0621C13.5068 15.9151 13.3373 15.7564 13.1409 15.6372C13.0557 15.5853 12.9093 15.5005 12.8197 15.5883C12.7301 15.676 12.7458 15.8471 12.7495 15.956C12.7645 16.3275 13.2932 18.9033 13.3178 18.926C12.6988 18.1458 12.2231 17.0542 11.6017 16.2046C10.5973 15.4011 10.8535 21.8711 10.6391 22.5174C10.4987 21.7738 10.0985 18.423 9.91923 16.9336C9.61081 14.3723 8.29572 18.5809 7.82525 19.0371C7.86184 18.1444 9.34869 14.1333 7.39809 15.8339C6.30629 16.753 1.66951 21.8214 0.0273335 23C2.20943 20.3517 4.47368 17.7722 6.6401 15.1115C8.40475 12.7565 4.66934 14.5515 3.7493 14.5997C4.47518 13.9622 5.77981 13.7033 6.38321 12.7784C6.6513 11.5969 1.52389 11.9164 0.695706 11.553C2.49769 11.1721 4.37137 11.2423 6.16963 10.7919C7.3727 10.3488 3.55215 8.50043 3.55215 8.50043C3.55215 8.50043 7.11804 9.95616 6.92313 8.71978C5.78354 6.66376 4.21007 4.87243 2.6463 3.11253C-1.1832 -0.976094 -0.673149 -0.937343 2.99655 2.96703C4.57002 4.4352 5.98293 6.07737 7.67738 7.41612C7.86109 7.51922 8.07542 7.75977 8.3002 7.64498C8.43612 7.49655 8.44358 7.25527 8.44284 7.06809C8.44209 6.77124 8.3928 6.47439 8.33455 6.18412C8.20162 5.5195 8.00298 4.86585 7.77671 4.22682C8.15234 4.90387 8.90883 6.2141 9.12241 6.50364C9.23219 6.6528 9.45697 6.95111 9.67876 6.82242C9.80572 6.74858 9.86247 6.57164 9.9028 6.44368C9.99316 6.15268 10.0163 5.84999 10.0507 5.54948C10.1709 4.39718 10.3374 1.56687 10.5689 0.492069C10.6795 1.66484 10.7661 2.84566 10.8803 4.02502C10.9826 4.92068 10.9281 5.86168 11.2843 6.71567C11.7048 7.70785 12.8922 4.73424 13.2335 4.28823C13.1423 4.93238 12.1865 7.68811 13.04 7.54188C15.5029 5.96989 20.4145 0.342181 21 0C20.5661 0.996567 19.5281 1.87615 18.8567 2.80033C17.2258 4.66039 15.5731 6.50803 14.2102 8.57062C13.4993 9.91595 17.1048 8.35566 17.2594 8.45948C17.3087 8.53041 12.8825 10.7626 16.0085 10.9951C17.3811 11.2145 18.7514 11.3688 20.1255 11.4689C20.1957 11.5018 20.2756 11.4682 20.3458 11.5004V11.5011Z" fill="#231F20"/>
</svg>
