<svg width="18" height="20" viewBox="0 0 18 20" fill="none" xmlns="http://www.w3.org/2000/svg">
<path d="M17.4169 10.0116C17.5328 10.1331 17.3986 10.1017 17.3488 10.1226C17.2905 10.1478 17.2244 10.1184 17.1661 10.1471C17.1134 10.1499 17.0608 10.1534 17.0081 10.1561C16.8114 10.1897 16.6112 10.1422 16.4145 10.1813C16.3513 10.1848 16.2874 10.1876 16.2242 10.1911C16.1399 10.2176 16.05 10.1834 15.9671 10.2162C15.9165 10.219 15.8659 10.2218 15.8153 10.2246C15.7437 10.2518 15.665 10.219 15.5941 10.2497C15.5091 10.2525 15.4234 10.2553 15.3384 10.2588C15.2787 10.2826 15.2126 10.256 15.1529 10.2833C14.9387 10.2812 14.7315 10.3377 14.52 10.3608C14.4491 10.3866 14.3718 10.3545 14.3016 10.3852C13.9602 10.3873 13.6343 10.4907 13.2992 10.534C13.0927 10.5605 12.9164 10.645 12.7492 10.7554C12.5258 10.9035 12.5047 11.1088 12.7106 11.2785C12.8827 11.4203 13.073 11.5411 13.2606 11.6633C13.6034 11.8875 13.9089 12.1648 14.2707 12.3604C14.4231 12.4428 14.579 12.5168 14.7104 12.6314C14.7392 12.6565 14.8024 12.6837 14.7504 12.7361C14.7153 12.7717 14.6767 12.755 14.6338 12.7242C14.3044 12.4882 13.9328 12.3541 13.5359 12.278C13.2578 12.2249 13 12.0915 12.7134 12.0635C12.6157 12.0538 12.5209 12.0244 12.4233 12.0105C12.2498 11.986 12.1149 12.0733 12.0973 12.28C12.0734 12.3513 12.0713 12.4218 12.0973 12.4931C12.2371 12.8465 12.4352 13.1691 12.6642 13.4681C12.9592 13.8543 13.2802 14.2203 13.5113 14.6526C13.6968 14.9997 14.0213 15.2365 14.2651 15.5382C14.6071 15.9614 14.9429 16.3896 15.2913 16.8072C15.5105 17.0705 15.7437 17.324 15.9776 17.5755C16.4068 18.0364 16.798 18.5295 17.2034 19.0107C17.4197 19.2678 17.6311 19.5283 17.8292 19.8C17.8461 19.8384 17.825 19.8572 17.7934 19.8712C17.5321 19.5988 17.3235 19.2803 17.0348 19.0317C16.8535 18.8752 16.6793 18.7104 16.5016 18.5491C16.451 18.519 16.392 18.4981 16.3653 18.4387C15.9123 17.9869 15.4606 17.5343 15.0068 17.0831C14.5362 16.6152 14.0775 16.136 13.5893 15.6869C13.2662 15.3901 13.007 15.0318 12.6621 14.7601C12.4261 14.5744 12.2301 14.3509 12.0151 14.1455C11.9301 14.0645 11.8241 14.0233 11.7271 13.9681C11.5277 13.855 11.3956 13.6643 11.2031 13.5463C11.0444 13.4485 10.9559 13.4939 10.9397 13.6846C10.9236 13.8759 10.9488 14.0652 10.9741 14.2552C11.0423 14.7567 11.0886 15.2623 11.2425 15.7484C11.2958 15.9167 11.3612 16.0816 11.4209 16.2478C11.4391 16.3155 11.4448 16.3833 11.4167 16.4503C11.2495 16.4161 11.2066 16.259 11.1378 16.1444C10.8133 15.6066 10.4986 15.0626 10.1951 14.5129C10.1165 14.3704 10.0813 14.2049 9.95138 14.0904C9.82564 13.9793 9.74767 13.9849 9.66549 14.1267C9.56223 14.3048 9.48074 14.4906 9.45967 14.7001C9.42314 15.0647 9.3234 15.4208 9.30092 15.7875C9.27071 15.8588 9.30232 15.937 9.27563 16.0089C9.25526 16.3253 9.26299 16.6417 9.27563 16.9581C9.29319 17.1948 9.29249 17.4316 9.27563 17.6684C9.27282 17.7899 9.27001 17.9114 9.2665 18.0329C9.23489 18.0888 9.2665 18.1538 9.24121 18.2103C9.2384 18.2606 9.23489 18.3109 9.23208 18.3619C9.20468 18.422 9.23068 18.489 9.20679 18.5491C9.20398 18.6029 9.20117 18.6566 9.19836 18.7104C9.16605 18.7663 9.19907 18.8312 9.17237 18.8878C9.16956 18.9283 9.16605 18.9688 9.16324 19.0086C9.11969 19.1916 9.18291 19.3816 9.12952 19.5639C9.07403 19.5904 9.01011 19.6533 8.99044 19.5304C8.96726 19.2859 8.98693 19.0408 8.9799 18.7956C8.9778 18.7293 8.99044 18.6615 8.96515 18.5966C8.98342 18.5232 8.96586 18.4513 8.95743 18.3787C8.93354 18.3179 8.95953 18.2502 8.93214 18.1901C8.92933 18.1398 8.92652 18.0902 8.92371 18.0399C8.89842 17.9813 8.92722 17.9156 8.89912 17.8569C8.88508 17.7263 8.87032 17.595 8.85628 17.4644C8.82818 17.4079 8.8626 17.3429 8.82958 17.287C8.82677 17.2556 8.82467 17.2249 8.82186 17.1934C8.79587 17.1334 8.82326 17.0656 8.79516 17.0056C8.79235 16.9329 8.78884 16.8596 8.78603 16.787C8.76074 16.7157 8.79235 16.6382 8.76145 16.5677C8.75864 16.5055 8.75512 16.4426 8.75231 16.3805C8.72843 16.3204 8.75512 16.2548 8.72773 16.1954C8.69893 15.8993 8.62588 15.6115 8.56687 15.321C8.5472 15.2253 8.55282 15.1247 8.5472 15.0262C8.52402 14.9669 8.55071 14.9012 8.52332 14.8426C8.52051 14.802 8.5177 14.7622 8.51489 14.7217C8.48609 14.6659 8.52191 14.6009 8.4882 14.5457C8.44746 14.427 8.44605 14.3006 8.39337 14.1805C8.35192 14.0848 8.29784 14.0065 8.21073 13.9828C8.11661 13.9577 8.06322 14.0596 8.01967 14.1246C7.91641 14.2768 7.83071 14.441 7.73659 14.5988C7.38888 15.1806 7.08472 15.7833 6.84379 16.4168C6.82552 16.4643 6.81148 16.5271 6.72718 16.5453C6.72156 16.3903 6.77635 16.2506 6.80445 16.1081C6.86205 15.8141 6.91614 15.52 6.95828 15.2239C7.00113 14.9271 7.06997 14.6337 7.11493 14.3376C7.14865 14.1176 7.221 13.9018 7.20484 13.6748C7.18658 13.4185 7.08543 13.35 6.85011 13.4457C6.66677 13.5204 6.51013 13.6406 6.36191 13.7684C5.90673 14.1588 5.46982 14.5681 5.05046 14.9955C4.79829 15.2525 4.5152 15.4795 4.28831 15.7617C4.26513 15.8364 4.21948 15.8881 4.1394 15.9028C3.97643 16.0075 3.8521 16.1542 3.72215 16.2925C3.20937 16.84 2.73312 17.419 2.21401 17.961C1.84804 18.343 1.51228 18.7558 1.13507 19.1288C0.825993 19.434 0.493037 19.7113 0.14814 19.9746C0.126364 19.9913 0.108101 20.0179 0.0680617 19.9829C0.358871 19.6288 0.653896 19.2782 0.939788 18.9192C2.19364 17.345 3.55146 15.8567 4.79618 14.2747C5.09682 13.8927 5.38974 13.5044 5.71497 13.1419C5.87091 12.9687 5.9847 12.7655 6.08094 12.5552C6.18982 12.3185 6.08445 12.148 5.82314 12.1103C5.64964 12.0852 5.48527 12.1208 5.3202 12.1683C4.69994 12.3464 4.07969 12.5238 3.45944 12.6991C3.38709 12.7194 3.27821 12.7696 3.2466 12.6991C3.20937 12.6146 3.32949 12.5832 3.3913 12.5413C3.74744 12.2989 4.12394 12.0936 4.5131 11.9085C4.90154 11.7234 5.23801 11.4699 5.49651 11.12C5.58572 10.9991 5.57869 10.9104 5.46069 10.8189C5.37429 10.7512 5.27875 10.7086 5.1755 10.6744C4.69994 10.5186 4.21737 10.3999 3.71653 10.3629C3.02603 10.3112 2.34045 10.196 1.64714 10.1869C1.42588 10.1841 1.20742 10.1617 0.986852 10.1541C0.873057 10.1499 0.764881 10.1254 0.639847 10.057C0.811242 9.97386 0.976315 9.96827 1.13366 9.95081C2.08687 9.84465 3.04149 9.75595 3.99329 9.63862C4.43653 9.58414 4.87555 9.48636 5.31388 9.39696C5.59415 9.33969 5.64824 9.15112 5.44172 8.94229C5.2057 8.70343 4.92402 8.51416 4.62549 8.36819C4.1408 8.13142 3.72426 7.78361 3.23325 7.55872C3.16511 7.52729 3.04149 7.4791 3.07731 7.40157C3.11243 7.32545 3.2171 7.40926 3.29015 7.42462C3.9385 7.5664 4.54119 7.85904 5.19165 7.99244C5.39114 8.03364 5.59766 8.0546 5.79645 7.98825C6.0114 7.91701 6.05495 7.80107 5.95731 7.59923C5.79645 7.26887 5.56394 6.98112 5.39606 6.65496C4.98373 5.85178 4.33538 5.22459 3.78677 4.52268C3.64067 4.3355 3.49105 4.15112 3.35196 3.95905C3.03516 3.52394 2.68254 3.12234 2.30463 2.73751C1.73846 2.16062 1.19126 1.56486 0.682696 0.934189C0.46213 0.662503 0.249993 0.38523 0.0329397 0.111448C0.00554461 0.0765274 -0.0204456 0.0548763 0.023808 0.0157647C0.0708714 -0.0261406 0.0778958 0.0297331 0.0968617 0.0457968C0.628608 0.496279 1.0866 1.0166 1.54529 1.53832C1.87614 1.91477 2.24211 2.26189 2.60316 2.6118C3.44679 3.43035 4.25319 4.28661 5.09963 5.10167C5.58642 5.57031 6.04301 6.07597 6.60004 6.47058C6.68223 6.52855 6.7602 6.5928 6.85292 6.63121C6.94072 6.66753 7.02993 6.74855 7.13179 6.66893C7.25331 6.57464 7.32215 6.44054 7.28984 6.29597C7.18026 5.80568 7.0496 5.31958 6.9344 4.83068C6.8459 4.45633 6.76792 4.07918 6.68433 3.70413C6.6752 3.66222 6.69979 3.63638 6.72929 3.62311C6.78759 3.59657 6.82552 3.63149 6.85292 3.67829C6.93581 3.81797 6.992 3.96953 7.05452 4.11899C7.31231 4.7357 7.57011 5.3524 7.9993 5.87762C8.00984 5.89019 8.01616 5.90695 8.0274 5.91952C8.17491 6.08784 8.25499 6.07946 8.37581 5.88739C8.52332 5.65412 8.55001 5.38523 8.59005 5.12542C8.6034 5.03742 8.65959 4.94802 8.62588 4.85233C8.65608 4.78179 8.62447 4.70357 8.65046 4.63233C8.65327 4.56947 8.65678 4.50662 8.65959 4.44376C8.6905 4.37392 8.65749 4.29639 8.68488 4.22585C8.68769 4.16369 8.6905 4.10223 8.69331 4.04007C8.72773 3.94648 8.6898 3.84591 8.7186 3.75162C8.72141 3.64337 8.72492 3.53511 8.72773 3.42616C8.76355 3.31092 8.72211 3.19009 8.75231 3.07415C8.75583 2.97707 8.75864 2.88069 8.76215 2.78361C8.79516 2.70259 8.75864 2.61389 8.78673 2.53218C8.78954 2.46792 8.79235 2.40367 8.79587 2.33941C8.83169 2.24792 8.79095 2.15014 8.82115 2.05795C8.82396 1.98462 8.82677 1.91198 8.82958 1.83865C8.85979 1.76741 8.82958 1.68918 8.85487 1.61794C8.85838 1.55509 8.86119 1.49293 8.8647 1.43007C8.8921 1.3714 8.86471 1.30505 8.88929 1.24569C8.91388 1.02917 8.93916 0.812664 8.96305 0.595455C8.97077 0.527009 9.00519 0.480913 9.06841 0.466247C9.10494 0.557041 9.05928 0.656217 9.09651 0.747012C9.07965 0.871331 9.12109 0.989364 9.14006 1.10949C9.17167 1.26105 9.12671 1.4168 9.16605 1.56836C9.14709 1.64169 9.16465 1.71433 9.17448 1.78696C9.19907 1.84493 9.16956 1.90988 9.19907 1.96715L9.2089 2.1257C9.23278 2.18436 9.20539 2.25002 9.23349 2.30868C9.23419 2.6558 9.31848 2.99733 9.31146 3.34514C9.33464 3.4052 9.30865 3.47086 9.33534 3.53022C9.33815 3.58121 9.34166 3.63219 9.34447 3.68387C9.37327 3.76559 9.33674 3.85359 9.36976 3.93461C9.37327 3.99816 9.37608 4.06102 9.37959 4.12458C9.40488 4.18185 9.37397 4.2468 9.40418 4.30337C9.40699 4.39068 9.4098 4.47728 9.41331 4.56458C9.4386 4.62255 9.40909 4.6882 9.43789 4.74617C9.47793 5.12751 9.51657 5.51095 9.68094 5.86435C9.79333 6.1053 9.86357 6.11299 10.0399 5.91882C10.1811 5.76308 10.2696 5.57241 10.37 5.39082C10.5035 5.14777 10.7023 4.94173 10.7929 4.67633C10.8976 4.36693 11.1083 4.1162 11.2537 3.82915C11.2748 3.78724 11.2867 3.73626 11.3457 3.76C11.4075 3.78445 11.3549 3.83054 11.3485 3.85988C11.246 4.35995 11.1392 4.85932 11.0331 5.35869C10.9812 5.60453 10.9334 5.85108 10.9397 6.10391C10.9158 6.22822 10.9179 6.35324 10.9383 6.47756C10.9783 6.61655 11.0458 6.64658 11.1813 6.58093C11.4455 6.45242 11.6731 6.26873 11.9091 6.09762C12.4275 5.72257 12.8728 5.26999 13.328 4.82649C13.5451 4.61487 13.7741 4.41442 13.9862 4.19791C14.3788 3.79562 14.7617 3.38495 15.1501 2.97847C15.6453 2.46094 16.1385 1.94411 16.5965 1.39166C16.9842 0.924411 17.4401 0.513739 17.8651 0.0779242C17.8967 0.0457968 17.9353 0.00109782 17.9781 0.0416063C18.0189 0.0800195 18.0034 0.131004 17.9683 0.177798C17.8096 0.387325 17.6592 0.603836 17.4942 0.809172C17.0488 1.36581 16.6028 1.92176 16.1469 2.47002C15.8266 2.85485 15.4873 3.22431 15.1593 3.60286C14.7736 4.04845 14.4393 4.53525 14.0354 4.96688C13.3196 5.73095 12.7857 6.62912 12.1795 7.47421C12.1296 7.54335 12.0966 7.61948 12.0741 7.69701C12.0208 7.88209 12.1022 7.99244 12.2996 8.02247C12.3966 8.04971 12.4935 8.04342 12.5904 8.02387C12.7843 8.03225 12.9599 7.95682 13.1299 7.88348C13.4966 7.72494 13.9075 7.72215 14.2672 7.54964C14.3901 7.49027 14.5285 7.46373 14.6395 7.37852C14.6886 7.34011 14.7469 7.32335 14.7842 7.37783C14.8263 7.43929 14.7462 7.44697 14.7167 7.46862C14.2924 7.77942 13.8288 8.02945 13.3863 8.31231C13.1159 8.48483 12.8525 8.66502 12.6649 8.93251C12.542 9.10782 12.5209 9.2922 12.7956 9.39766C13.0955 9.5129 13.4074 9.52617 13.715 9.57646C14.1351 9.6449 14.5573 9.70217 14.9787 9.76154C15.1389 9.78459 15.2976 9.8251 15.4613 9.81881C15.5316 9.84954 15.6095 9.81602 15.6798 9.84395C15.7205 9.84675 15.762 9.85024 15.8027 9.85303C15.8617 9.88097 15.9277 9.85303 15.9867 9.87748C16.0626 9.88027 16.1392 9.88376 16.215 9.88656C16.2726 9.91589 16.338 9.88656 16.3956 9.911C16.4574 9.9138 16.5192 9.91729 16.581 9.92008C16.6414 9.94732 16.7095 9.92148 16.7707 9.94522C16.9224 9.97945 17.0741 10.0074 17.2308 9.98783C17.2905 10.0165 17.3586 9.98713 17.4183 10.0151L17.4169 10.0116Z" fill="black"/>
</svg>
