<?xml version="1.0" encoding="UTF-8"?><svg id="Layer_1" xmlns="http://www.w3.org/2000/svg" viewBox="0 0 16 16"><path d="M15.53.95c-.07-.5-.72-.78-1.15-.65-1.74.5-3.59.74-5.37,1.06-.95.17-1.89.35-2.83.58-.5.13-1,.28-1.51.42,0-.02,0-.04.01-.05.11-.6.29-1.26-.04-1.82C4.26-.13,3.6-.04,3.01.11c-.31.08-.61.17-.92.28-.22.07-.51.24-.74.24-1.2,0-1.21,1.87,0,1.87.45,0,.82-.17,1.24-.31.07-.02.14-.04.21-.07-.02.09-.04.18-.06.27-.11.47-.23.94-.34,1.41-.23.99-.46,1.98-.65,2.97-.19.97-.31,1.96-.51,2.92-.09.43-.16.87-.24,1.3-.07.38-.21.75-.22,1.14,0,.39.29.82.69.9.47.1,1.01.02,1.54-.1-.01.32-.04.63-.08.95-.04.16-.09.33-.07.48.02.17.04.32.13.47.06.1.14.19.24.26.24.48.77.8,1.34.8.55.08,1.15-.07,1.57-.43.35-.3.48-.77.37-1.2.04-.24,0-.48-.13-.71-.2-.34-.58-.56-.96-.62-.18-.03-.36-.04-.54-.04,0-.11.01-.22.01-.33.74-.12,1.48-.24,2.22-.32.63-.07,1.26-.11,1.9-.16,0,.19,0,.37-.03.56-.02.14-.04.27-.06.41-.02.16-.05.32-.05.48,0,.07,0,.14,0,.21-.02.1-.03.2-.04.3-.17.25-.24.57-.14.86.1.3.3.51.56.69.29.2.66.29,1.01.27.28-.02.59-.06.86-.15.38-.13.74-.34.94-.71.27-.48.19-1.05-.14-1.48-.27-.35-.67-.54-1.1-.57.02-.12.04-.24.05-.37.03-.23.02-.47.02-.7.64-.09,1.27-.17,1.92-.19,1.2-.05,1.21-1.92,0-1.87-.93.04-1.84.19-2.76.3-.93.11-1.88.14-2.82.24-1.46.15-2.91.42-4.36.67.02-.12.04-.23.06-.35.23-.06.54-.08.75-.14.4-.11.8-.23,1.19-.36.79-.26,1.57-.54,2.36-.81,1.55-.52,3.07-1.09,4.6-1.67.73-.28,1.47-.55,2.19-.87.69-.32,1.17-.57,1.22-1.42.04-.72.07-1.44.09-2.15.03-.77.29-1.59.18-2.34ZM11.05,6.04c-1.03.38-2.02.83-3.07,1.15-1.06.33-2.11.71-3.16,1.07-.5.17-1,.32-1.51.47,0,0-.01,0-.02,0,.01-.08.03-.16.04-.24.23-1.39.54-2.77.86-4.14.72-.13,1.42-.34,2.13-.52.97-.25,1.95-.46,2.94-.63,1.41-.25,2.86-.45,4.27-.76-.03.36-.05.73-.06,1.08-.02.46.04,1.08-.03,1.59-.31.14-.69.27-.96.38-.47.18-.95.37-1.43.55Z"/></svg>