<?xml version="1.0" encoding="UTF-8"?><svg id="Layer_1" xmlns="http://www.w3.org/2000/svg" viewBox="0 0 12.42 16"><path d="M12.25,10.93c-.42-.74-1.22-1.42-1.89-1.93-.57-.44-1.42-1.05-2.15-.58-.26.17-.5.66-.74,1.01-.07-.1-.14-.2-.17-.24-.24-.31-.41-.65-.59-.99-.26-.48-.55-.94-.84-1.4.02-.01.03-.02.04-.02.09-.05.16-.12.25-.17.32-.16.71-.24,1.04-.39.71-.31,1.62-.62,1.42-1.59-.11-.55-.62-1.18-.93-1.65-.45-.69-.84-1.41-1.28-2.11-.36-.56-.84-1-1.57-.84-.63.14-1.29.67-1.83,1.01C1.81,1.82.29,2.77.04,4.33c-.1.65.1,1.23.31,1.84.29.89.84,1.69,1.32,2.49.94,1.55,1.91,3.09,2.93,4.59.77,1.13,2.13,3.01,3.74,2.72.66-.12,1.19-.74,1.66-1.17.62-.56,1.26-1.12,1.76-1.8.44-.6.91-1.33.49-2.07ZM9.36,12.87c-.37.34-.77.84-1.2,1.09-.29.16-.12.2-.49-.03-.19-.12-.36-.25-.52-.41-.5-.47-.86-1.09-1.24-1.66-.73-1.1-1.44-2.21-2.13-3.33-.66-1.08-1.37-2.12-1.75-3.33-.17-.53-.21-.79.23-1.22.36-.34.66-.7,1.09-.96.47-.29.94-.6,1.42-.87.06-.03.12-.06.18-.09.06.09.13.18.15.22.29.49.57.98.89,1.45.17.25.32.5.47.76,0,0,.01.02.02.03-.26.11-.53.2-.79.29-.44.16-1,.39-1.33.72-.02.02-.03.04-.05.06-.54.15-.96.72-.57,1.33.88,1.35,1.66,2.75,2.58,4.07.46.65,1.14.81,1.8.36.23-.15.42-.34.59-.55.13-.16.24-.32.35-.48.32.22.62.54.86.77.17.17.34.35.5.53-.15.18-.29.47-.42.62-.2.23-.43.44-.65.65Z"/></svg>