<?xml version="1.0" encoding="UTF-8"?><svg id="Layer_1" xmlns="http://www.w3.org/2000/svg" viewBox="0 0 14.39 16"><path d="M14.26,13.19c0-.69.02-1.38.02-2.07,0-1.38,0-2.76,0-4.14,0-.86.27-2.17-.49-2.8-.22-.19-.45-.22-.7-.33-.23-.1-.44-.28-.64-.42-.52-.36-.99-.73-1.46-1.14-.46-.41-.96-.78-1.41-1.2-.33-.31-.59-.7-1-.92-.46-.24-.96-.19-1.41.05-.54.29-1.07.66-1.6.98-1.1.68-2.17,1.4-3.27,2.08C1.44,3.79.16,4.22.04,5.34c-.08.71,0,1.44,0,2.15,0,.78,0,1.56,0,2.34v4.67c0,.1.02.18.04.26-.03.49.26,1.01.9,1.01,3.94,0,7.87.23,11.81.22.22,0,.4-.06.54-.16.53.09,1.11-.2,1.08-.88-.03-.59-.13-1.16-.13-1.76ZM6.07,10.92c.08,0,.17,0,.25.01.05,0,.1.01.15.02.08.01.15.02.23.04.18.03.36.06.54.09.37.06.75.17,1.13.2,0,.28,0,.57.03.85.03.39.09.78.1,1.17,0,.26,0,.51-.01.77-.8-.02-1.61-.04-2.41-.06v-1.82c0-.38,0-.77,0-1.15,0-.04,0-.07,0-.11ZM10.35,13c-.03-.52-.12-1.03-.12-1.55,0-.28.04-.57.02-.85-.04-.66-.38-1.28-1.13-1.29-.15,0-.3.02-.44.06-.02,0-.11.02-.17.04,0,0-.02,0-.02,0-.15-.03-.31-.07-.46-.09-.52-.09-1.04-.17-1.56-.23-.5-.06-1.07-.1-1.56.04-.5.14-.71.62-.74,1.09-.01.21.02.43.02.64,0,1.03,0,2.07,0,3.1-.76-.02-1.53-.03-2.29-.03,0-2.14,0-4.28,0-6.42,0-.16,0-.33,0-.49,1.81,0,3.63,0,5.44,0,.97,0,1.96.05,2.93-.02.7-.05,1.42-.16,2.13-.18,0,.16,0,.31,0,.47,0,1.29,0,2.58,0,3.87,0,.65-.01,1.29-.02,1.94,0,.36.03.71.06,1.06-.7,0-1.4-.01-2.1-.02,0-.37.02-.73,0-1.1ZM6.84,2.6c.21-.13.43-.24.64-.37.09-.06.17-.12.26-.18.04-.03.07-.04.1-.06.05.05.09.1.11.12.15.16.31.31.47.46.4.36.83.68,1.23,1.03.55.49,1.13.96,1.73,1.39-.37.04-.74.08-1.11.11-.97.07-1.96.03-2.93.02-1.5,0-3,0-4.5,0,.89-.53,1.78-1.09,2.64-1.66.45-.3.89-.59,1.35-.86Z"/></svg>