<?xml version="1.0" encoding="UTF-8"?><svg id="Layer_1" xmlns="http://www.w3.org/2000/svg" viewBox="0 0 13.42 16"><path d="M13.13,4.28c-.75-.71-1.61-1.29-2.54-1.73.1-.5.17-.99.16-1.49-.04-1.2-1.92-1.21-1.88,0,.01.28-.01.57-.05.85-.17-.04-.35-.08-.52-.11.06-.22.12-.44.19-.66C8.84,0,7.03-.5,6.67.65c-.1.33-.19.67-.28,1-.09,0-.19,0-.28,0-1.29.08-2.61.42-3.6,1.29-.91.8-1.42,2.05-1.21,3.26.21,1.19,1.14,2.05,2.21,2.5.28.12.57.2.86.26-.41,1.15-.84,2.3-1.18,3.47-.59-.22-1.09-.57-1.34-1.15-.2-.47-.62-.8-1.15-.65-.44.12-.85.68-.65,1.15.56,1.33,1.56,2.05,2.75,2.45-.03.2-.07.4-.09.61-.13,1.2,1.75,1.19,1.88,0,0-.08.03-.16.04-.24.38.04.77.06,1.16.07-.02.14-.05.28-.07.43-.13,1.2,1.74,1.19,1.88,0,.02-.15.05-.3.07-.46,1.12-.07,2.26-.31,3.18-.98.98-.73,1.75-1.91,1.64-3.18-.11-1.21-.92-2.2-2-2.71-.34-.16-.69-.27-1.05-.36.24-1,.47-2,.71-3,.6.32,1.17.72,1.67,1.19.88.83,2.21-.49,1.33-1.33ZM3.39,6.39c-.64-.79-.04-1.84.71-2.3.53-.33,1.16-.5,1.8-.56-.3,1.21-.58,2.42-.93,3.61,0,.01,0,.03-.01.04-.61-.1-1.18-.31-1.57-.79ZM5.26,12.77c-.08,0-.17,0-.25-.01.2-.7.44-1.38.67-2.03.19-.54.4-1.08.6-1.62.27,0,.53,0,.8-.01-.2.8-.41,1.61-.6,2.42-.1.43-.21.86-.32,1.29-.31-.01-.61-.03-.9-.04ZM10.39,10.02c.57.78-.08,1.76-.78,2.2-.45.28-.98.44-1.53.52.11-.42.23-.84.33-1.25.19-.76.38-1.52.57-2.28.55.12,1.07.35,1.4.81ZM8.21,4.43c-.22.93-.44,1.87-.66,2.8-.22,0-.43,0-.65,0,.33-1.2.62-2.41.92-3.62.08.01.16.03.24.04.11.02.22.06.33.09-.06.23-.12.46-.18.68Z"/></svg>